M48
; DRILL file KiCad 10.0.0 date 2026-04-05T11:32:06
; FORMAT={-:-/ absolute / metric / decimal}
; #@! TF.CreationDate,2026-04-05T11:32:06-05:00
; #@! TF.GenerationSoftware,Kicad,Pcbnew,10.0.0
; #@! TF.FileFunction,Plated,1,2,PTH
FMAT,2
METRIC
; #@! TA.AperFunction,Plated,PTH,ViaDrill
T1C0.400
; #@! TA.AperFunction,Plated,PTH,ComponentDrill
T2C0.900
; #@! TA.AperFunction,Plated,PTH,ComponentDrill
T3C1.000
; #@! TA.AperFunction,Plated,PTH,ComponentDrill
T4C1.500
%
G90
G05
T1
X111.577Y-64.709
X113.863Y-64.709
X114.875Y-86.875
X116.377Y-73.625
X119.984Y-67.706
X120.797Y-73.98
X120.797Y-76.215
X126.433Y-76.116
X126.46Y-64.023
X128.238Y-64.023
X131.662Y-94.1
X137.696Y-101.721
T2
X81.614Y-66.63
X86.614Y-64.13
X86.614Y-69.13
T3
X77.0Y-59.0
X79.54Y-59.0
X82.08Y-59.0
X84.62Y-59.0
X87.16Y-59.0
X89.7Y-59.0
X95.542Y-63.862
X95.542Y-66.403
X95.542Y-68.942
X95.542Y-71.483
X95.542Y-74.022
X95.542Y-76.562
X95.542Y-79.102
X95.542Y-81.642
X95.542Y-84.182
X95.542Y-86.722
X95.542Y-89.263
X95.542Y-91.802
X95.542Y-94.343
X95.542Y-96.882
X95.542Y-99.422
X95.542Y-101.962
X95.542Y-104.502
X95.542Y-107.042
X95.542Y-109.582
X95.542Y-112.122
X98.082Y-63.862
X98.082Y-66.403
X98.082Y-68.942
X98.082Y-71.483
X98.082Y-74.022
X98.082Y-76.562
X98.082Y-79.102
X98.082Y-81.642
X98.082Y-84.182
X98.082Y-86.722
X98.082Y-89.263
X98.082Y-91.802
X98.082Y-94.343
X98.082Y-96.882
X98.082Y-99.422
X98.082Y-101.962
X98.082Y-104.502
X98.082Y-107.042
X98.082Y-109.582
X98.082Y-112.122
X102.4Y-59.0
X102.87Y-117.094
X104.94Y-59.0
X105.41Y-117.094
X106.72Y-97.398
X106.72Y-111.898
X107.48Y-59.0
X107.95Y-117.094
X109.22Y-97.398
X110.02Y-59.0
X110.49Y-117.094
X111.72Y-97.398
X111.72Y-111.898
X112.56Y-59.0
X113.03Y-117.094
X115.1Y-59.0
X115.57Y-117.094
X118.11Y-117.094
X120.65Y-117.094
X123.19Y-117.094
X125.73Y-117.094
X128.27Y-117.094
X129.175Y-86.385
X129.175Y-88.925
X129.175Y-98.185
X129.175Y-100.725
X130.81Y-117.094
X131.715Y-86.385
X131.715Y-88.925
X131.715Y-98.185
X131.715Y-100.725
X133.35Y-117.094
X135.89Y-117.094
T4
X72.8Y-75.0
X72.8Y-91.23
X72.8Y-99.0
X72.8Y-115.23
X79.15Y-75.0
X79.15Y-91.23
X79.15Y-99.0
X79.15Y-115.23
X85.5Y-75.0
X85.5Y-91.23
X85.5Y-99.0
X85.5Y-115.23
T4
G00X103.62Y-104.248
M15
G01X103.62Y-105.548
M16
G05
G00X114.82Y-104.248
M15
G01X114.82Y-105.548
M16
G05
M30
