G04 #@! TF.GenerationSoftware,KiCad,Pcbnew,10.0.0*
G04 #@! TF.CreationDate,2026-04-05T11:31:23-05:00*
G04 #@! TF.ProjectId,squishbox8,73717569-7368-4626-9f78-382e6b696361,8.1*
G04 #@! TF.SameCoordinates,Original*
G04 #@! TF.FileFunction,Paste,Bot*
G04 #@! TF.FilePolarity,Positive*
%FSLAX46Y46*%
G04 Gerber Fmt 4.6, Leading zero omitted, Abs format (unit mm)*
G04 Created by KiCad (PCBNEW 10.0.0) date 2026-04-05 11:31:23*
%MOMM*%
%LPD*%
G01*
G04 APERTURE LIST*
G04 Aperture macros list*
%AMRoundRect*
0 Rectangle with rounded corners*
0 $1 Rounding radius*
0 $2 $3 $4 $5 $6 $7 $8 $9 X,Y pos of 4 corners*
0 Add a 4 corners polygon primitive as box body*
4,1,4,$2,$3,$4,$5,$6,$7,$8,$9,$2,$3,0*
0 Add four circle primitives for the rounded corners*
1,1,$1+$1,$2,$3*
1,1,$1+$1,$4,$5*
1,1,$1+$1,$6,$7*
1,1,$1+$1,$8,$9*
0 Add four rect primitives between the rounded corners*
20,1,$1+$1,$2,$3,$4,$5,0*
20,1,$1+$1,$4,$5,$6,$7,0*
20,1,$1+$1,$6,$7,$8,$9,0*
20,1,$1+$1,$8,$9,$2,$3,0*%
G04 Aperture macros list end*
%ADD10R,2.000000X1.780000*%
%ADD11RoundRect,0.250000X0.250000X0.475000X-0.250000X0.475000X-0.250000X-0.475000X0.250000X-0.475000X0*%
%ADD12RoundRect,0.218750X-0.218750X-0.256250X0.218750X-0.256250X0.218750X0.256250X-0.218750X0.256250X0*%
%ADD13RoundRect,0.250000X-0.362500X-1.075000X0.362500X-1.075000X0.362500X1.075000X-0.362500X1.075000X0*%
%ADD14R,1.200000X2.500000*%
%ADD15RoundRect,0.250000X-0.312500X-0.625000X0.312500X-0.625000X0.312500X0.625000X-0.312500X0.625000X0*%
%ADD16RoundRect,0.250000X-0.475000X0.250000X-0.475000X-0.250000X0.475000X-0.250000X0.475000X0.250000X0*%
%ADD17RoundRect,0.218750X-0.256250X0.218750X-0.256250X-0.218750X0.256250X-0.218750X0.256250X0.218750X0*%
%ADD18RoundRect,0.112500X-0.112500X0.187500X-0.112500X-0.187500X0.112500X-0.187500X0.112500X0.187500X0*%
%ADD19RoundRect,0.250000X0.475000X-0.250000X0.475000X0.250000X-0.475000X0.250000X-0.475000X-0.250000X0*%
%ADD20RoundRect,0.250000X0.450000X-0.262500X0.450000X0.262500X-0.450000X0.262500X-0.450000X-0.262500X0*%
%ADD21RoundRect,0.100000X0.637500X0.100000X-0.637500X0.100000X-0.637500X-0.100000X0.637500X-0.100000X0*%
%ADD22RoundRect,0.250000X0.312500X0.625000X-0.312500X0.625000X-0.312500X-0.625000X0.312500X-0.625000X0*%
%ADD23RoundRect,0.250000X-0.262500X-0.450000X0.262500X-0.450000X0.262500X0.450000X-0.262500X0.450000X0*%
G04 APERTURE END LIST*
D10*
X121351000Y-84328000D03*
X121351000Y-86868000D03*
X121351000Y-89408000D03*
X111821000Y-89408000D03*
X111821000Y-86868000D03*
X111821000Y-84328000D03*
D11*
X124439200Y-73929400D03*
X122539200Y-73929400D03*
X135200000Y-94100000D03*
X133300000Y-94100000D03*
D12*
X127203000Y-94234000D03*
X128778000Y-94234000D03*
D13*
X120369500Y-93472000D03*
X124994500Y-93472000D03*
D14*
X142796000Y-84582000D03*
X145796000Y-84582000D03*
X137696000Y-91082000D03*
X138796000Y-84582000D03*
X142796000Y-98044000D03*
X145796000Y-98044000D03*
X137696000Y-104544000D03*
X138796000Y-98044000D03*
D12*
X129540000Y-82296000D03*
X131115000Y-82296000D03*
D15*
X124583000Y-82296000D03*
X127508000Y-82296000D03*
D16*
X113862600Y-66233200D03*
X113862600Y-68133200D03*
D11*
X128333100Y-74184000D03*
X126433100Y-74184000D03*
D17*
X124714000Y-88620500D03*
X124714000Y-90195500D03*
D18*
X124714000Y-84582000D03*
X124714000Y-86682000D03*
D19*
X128366000Y-67767400D03*
X128366000Y-65867400D03*
D20*
X122174000Y-111553000D03*
X122174000Y-109728000D03*
D12*
X129050000Y-104700000D03*
X130625000Y-104700000D03*
D21*
X121932100Y-66280000D03*
X121932100Y-66930000D03*
X121932100Y-67580000D03*
X121932100Y-68230000D03*
X121932100Y-68880000D03*
X121932100Y-69530000D03*
X121932100Y-70180000D03*
X121932100Y-70830000D03*
X121932100Y-71480000D03*
X121932100Y-72130000D03*
X116207100Y-72130000D03*
X116207100Y-71480000D03*
X116207100Y-70830000D03*
X116207100Y-70180000D03*
X116207100Y-69530000D03*
X116207100Y-68880000D03*
X116207100Y-68230000D03*
X116207100Y-67580000D03*
X116207100Y-66930000D03*
X116207100Y-66280000D03*
D20*
X119888000Y-111553000D03*
X119888000Y-109728000D03*
D16*
X126334000Y-65867400D03*
X126334000Y-67767400D03*
D22*
X118110000Y-93472000D03*
X115185000Y-93472000D03*
D19*
X111576600Y-68133200D03*
X111576600Y-66233200D03*
D13*
X122629000Y-104648000D03*
X127254000Y-104648000D03*
D11*
X124439200Y-76215400D03*
X122539200Y-76215400D03*
D16*
X124175000Y-65842000D03*
X124175000Y-67742000D03*
D23*
X126470600Y-72152000D03*
X128295600Y-72152000D03*
X126470600Y-70120000D03*
X128295600Y-70120000D03*
M02*
