G04 #@! TF.GenerationSoftware,KiCad,Pcbnew,10.0.0*
G04 #@! TF.CreationDate,2026-04-05T11:31:23-05:00*
G04 #@! TF.ProjectId,squishbox8,73717569-7368-4626-9f78-382e6b696361,8.1*
G04 #@! TF.SameCoordinates,Original*
G04 #@! TF.FileFunction,Legend,Top*
G04 #@! TF.FilePolarity,Positive*
%FSLAX46Y46*%
G04 Gerber Fmt 4.6, Leading zero omitted, Abs format (unit mm)*
G04 Created by KiCad (PCBNEW 10.0.0) date 2026-04-05 11:31:23*
%MOMM*%
%LPD*%
G01*
G04 APERTURE LIST*
G04 Aperture macros list*
%AMRotRect*
0 Rectangle, with rotation*
0 The origin of the aperture is its center*
0 $1 length*
0 $2 width*
0 $3 Rotation angle, in degrees counterclockwise*
0 Add horizontal line*
21,1,$1,$2,0,0,$3*%
%AMOutline5P*
0 Free polygon, 5 corners , with rotation*
0 The origin of the aperture is its center*
0 number of corners: always 5*
0 $1 to $10 corner X, Y*
0 $11 Rotation angle, in degrees counterclockwise*
0 create outline with 5 corners*
4,1,5,$1,$2,$3,$4,$5,$6,$7,$8,$9,$10,$1,$2,$11*%
%AMOutline6P*
0 Free polygon, 6 corners , with rotation*
0 The origin of the aperture is its center*
0 number of corners: always 6*
0 $1 to $12 corner X, Y*
0 $13 Rotation angle, in degrees counterclockwise*
0 create outline with 6 corners*
4,1,6,$1,$2,$3,$4,$5,$6,$7,$8,$9,$10,$11,$12,$1,$2,$13*%
%AMOutline7P*
0 Free polygon, 7 corners , with rotation*
0 The origin of the aperture is its center*
0 number of corners: always 7*
0 $1 to $14 corner X, Y*
0 $15 Rotation angle, in degrees counterclockwise*
0 create outline with 7 corners*
4,1,7,$1,$2,$3,$4,$5,$6,$7,$8,$9,$10,$11,$12,$13,$14,$1,$2,$15*%
%AMOutline8P*
0 Free polygon, 8 corners , with rotation*
0 The origin of the aperture is its center*
0 number of corners: always 8*
0 $1 to $16 corner X, Y*
0 $17 Rotation angle, in degrees counterclockwise*
0 create outline with 8 corners*
4,1,8,$1,$2,$3,$4,$5,$6,$7,$8,$9,$10,$11,$12,$13,$14,$15,$16,$1,$2,$17*%
G04 Aperture macros list end*
%ADD10C,0.150000*%
%ADD11C,0.120000*%
%ADD12R,1.700000X1.700000*%
%ADD13O,1.700000X1.700000*%
%ADD14O,2.000000X2.000000*%
%ADD15C,2.000000*%
%ADD16R,2.000000X3.200000*%
%ADD17RotRect,1.500000X1.500000X135.000000*%
%ADD18Outline5P,-0.850000X0.510000X-0.510000X0.850000X0.850000X0.850000X0.850000X-0.850000X-0.850000X-0.850000X90.000000*%
%ADD19C,1.600000*%
%ADD20C,3.400000*%
%ADD21C,1.700000*%
%ADD22C,1.620000*%
G04 APERTURE END LIST*
D10*
X72717731Y-106259875D02*
X72717731Y-105497970D01*
X72527255Y-105688446D02*
X72717731Y-105497970D01*
X72717731Y-105497970D02*
X72908207Y-105688446D01*
X74812969Y-106259875D02*
X74336779Y-106259875D01*
X74336779Y-106259875D02*
X74336779Y-105259875D01*
X75527255Y-106212256D02*
X75432017Y-106259875D01*
X75432017Y-106259875D02*
X75241541Y-106259875D01*
X75241541Y-106259875D02*
X75146303Y-106212256D01*
X75146303Y-106212256D02*
X75098684Y-106117017D01*
X75098684Y-106117017D02*
X75098684Y-105736065D01*
X75098684Y-105736065D02*
X75146303Y-105640827D01*
X75146303Y-105640827D02*
X75241541Y-105593208D01*
X75241541Y-105593208D02*
X75432017Y-105593208D01*
X75432017Y-105593208D02*
X75527255Y-105640827D01*
X75527255Y-105640827D02*
X75574874Y-105736065D01*
X75574874Y-105736065D02*
X75574874Y-105831303D01*
X75574874Y-105831303D02*
X75098684Y-105926541D01*
X75860589Y-105593208D02*
X76241541Y-105593208D01*
X76003446Y-106259875D02*
X76003446Y-105402732D01*
X76003446Y-105402732D02*
X76051065Y-105307494D01*
X76051065Y-105307494D02*
X76146303Y-105259875D01*
X76146303Y-105259875D02*
X76241541Y-105259875D01*
X76432018Y-105593208D02*
X76812970Y-105593208D01*
X76574875Y-105259875D02*
X76574875Y-106117017D01*
X76574875Y-106117017D02*
X76622494Y-106212256D01*
X76622494Y-106212256D02*
X76717732Y-106259875D01*
X76717732Y-106259875D02*
X76812970Y-106259875D01*
X77860589Y-105212256D02*
X77003447Y-106497970D01*
X78193923Y-106259875D02*
X78193923Y-105259875D01*
X78193923Y-105736065D02*
X78765351Y-105736065D01*
X78765351Y-106259875D02*
X78765351Y-105259875D01*
X79622494Y-106212256D02*
X79527256Y-106259875D01*
X79527256Y-106259875D02*
X79336780Y-106259875D01*
X79336780Y-106259875D02*
X79241542Y-106212256D01*
X79241542Y-106212256D02*
X79193923Y-106117017D01*
X79193923Y-106117017D02*
X79193923Y-105736065D01*
X79193923Y-105736065D02*
X79241542Y-105640827D01*
X79241542Y-105640827D02*
X79336780Y-105593208D01*
X79336780Y-105593208D02*
X79527256Y-105593208D01*
X79527256Y-105593208D02*
X79622494Y-105640827D01*
X79622494Y-105640827D02*
X79670113Y-105736065D01*
X79670113Y-105736065D02*
X79670113Y-105831303D01*
X79670113Y-105831303D02*
X79193923Y-105926541D01*
X80527256Y-106259875D02*
X80527256Y-105736065D01*
X80527256Y-105736065D02*
X80479637Y-105640827D01*
X80479637Y-105640827D02*
X80384399Y-105593208D01*
X80384399Y-105593208D02*
X80193923Y-105593208D01*
X80193923Y-105593208D02*
X80098685Y-105640827D01*
X80527256Y-106212256D02*
X80432018Y-106259875D01*
X80432018Y-106259875D02*
X80193923Y-106259875D01*
X80193923Y-106259875D02*
X80098685Y-106212256D01*
X80098685Y-106212256D02*
X80051066Y-106117017D01*
X80051066Y-106117017D02*
X80051066Y-106021779D01*
X80051066Y-106021779D02*
X80098685Y-105926541D01*
X80098685Y-105926541D02*
X80193923Y-105878922D01*
X80193923Y-105878922D02*
X80432018Y-105878922D01*
X80432018Y-105878922D02*
X80527256Y-105831303D01*
X81432018Y-106259875D02*
X81432018Y-105259875D01*
X81432018Y-106212256D02*
X81336780Y-106259875D01*
X81336780Y-106259875D02*
X81146304Y-106259875D01*
X81146304Y-106259875D02*
X81051066Y-106212256D01*
X81051066Y-106212256D02*
X81003447Y-106164636D01*
X81003447Y-106164636D02*
X80955828Y-106069398D01*
X80955828Y-106069398D02*
X80955828Y-105783684D01*
X80955828Y-105783684D02*
X81003447Y-105688446D01*
X81003447Y-105688446D02*
X81051066Y-105640827D01*
X81051066Y-105640827D02*
X81146304Y-105593208D01*
X81146304Y-105593208D02*
X81336780Y-105593208D01*
X81336780Y-105593208D02*
X81432018Y-105640827D01*
X81908209Y-105593208D02*
X81908209Y-106593208D01*
X81908209Y-105640827D02*
X82003447Y-105593208D01*
X82003447Y-105593208D02*
X82193923Y-105593208D01*
X82193923Y-105593208D02*
X82289161Y-105640827D01*
X82289161Y-105640827D02*
X82336780Y-105688446D01*
X82336780Y-105688446D02*
X82384399Y-105783684D01*
X82384399Y-105783684D02*
X82384399Y-106069398D01*
X82384399Y-106069398D02*
X82336780Y-106164636D01*
X82336780Y-106164636D02*
X82289161Y-106212256D01*
X82289161Y-106212256D02*
X82193923Y-106259875D01*
X82193923Y-106259875D02*
X82003447Y-106259875D01*
X82003447Y-106259875D02*
X81908209Y-106212256D01*
X82812971Y-106259875D02*
X82812971Y-105259875D01*
X83241542Y-106259875D02*
X83241542Y-105736065D01*
X83241542Y-105736065D02*
X83193923Y-105640827D01*
X83193923Y-105640827D02*
X83098685Y-105593208D01*
X83098685Y-105593208D02*
X82955828Y-105593208D01*
X82955828Y-105593208D02*
X82860590Y-105640827D01*
X82860590Y-105640827D02*
X82812971Y-105688446D01*
X83860590Y-106259875D02*
X83765352Y-106212256D01*
X83765352Y-106212256D02*
X83717733Y-106164636D01*
X83717733Y-106164636D02*
X83670114Y-106069398D01*
X83670114Y-106069398D02*
X83670114Y-105783684D01*
X83670114Y-105783684D02*
X83717733Y-105688446D01*
X83717733Y-105688446D02*
X83765352Y-105640827D01*
X83765352Y-105640827D02*
X83860590Y-105593208D01*
X83860590Y-105593208D02*
X84003447Y-105593208D01*
X84003447Y-105593208D02*
X84098685Y-105640827D01*
X84098685Y-105640827D02*
X84146304Y-105688446D01*
X84146304Y-105688446D02*
X84193923Y-105783684D01*
X84193923Y-105783684D02*
X84193923Y-106069398D01*
X84193923Y-106069398D02*
X84146304Y-106164636D01*
X84146304Y-106164636D02*
X84098685Y-106212256D01*
X84098685Y-106212256D02*
X84003447Y-106259875D01*
X84003447Y-106259875D02*
X83860590Y-106259875D01*
X84622495Y-105593208D02*
X84622495Y-106259875D01*
X84622495Y-105688446D02*
X84670114Y-105640827D01*
X84670114Y-105640827D02*
X84765352Y-105593208D01*
X84765352Y-105593208D02*
X84908209Y-105593208D01*
X84908209Y-105593208D02*
X85003447Y-105640827D01*
X85003447Y-105640827D02*
X85051066Y-105736065D01*
X85051066Y-105736065D02*
X85051066Y-106259875D01*
X85908209Y-106212256D02*
X85812971Y-106259875D01*
X85812971Y-106259875D02*
X85622495Y-106259875D01*
X85622495Y-106259875D02*
X85527257Y-106212256D01*
X85527257Y-106212256D02*
X85479638Y-106117017D01*
X85479638Y-106117017D02*
X85479638Y-105736065D01*
X85479638Y-105736065D02*
X85527257Y-105640827D01*
X85527257Y-105640827D02*
X85622495Y-105593208D01*
X85622495Y-105593208D02*
X85812971Y-105593208D01*
X85812971Y-105593208D02*
X85908209Y-105640827D01*
X85908209Y-105640827D02*
X85955828Y-105736065D01*
X85955828Y-105736065D02*
X85955828Y-105831303D01*
X85955828Y-105831303D02*
X85479638Y-105926541D01*
X72717731Y-107107914D02*
X72717731Y-107869819D01*
X72908207Y-107679342D02*
X72717731Y-107869819D01*
X72717731Y-107869819D02*
X72527255Y-107679342D01*
X74908207Y-107869819D02*
X74574874Y-107393628D01*
X74336779Y-107869819D02*
X74336779Y-106869819D01*
X74336779Y-106869819D02*
X74717731Y-106869819D01*
X74717731Y-106869819D02*
X74812969Y-106917438D01*
X74812969Y-106917438D02*
X74860588Y-106965057D01*
X74860588Y-106965057D02*
X74908207Y-107060295D01*
X74908207Y-107060295D02*
X74908207Y-107203152D01*
X74908207Y-107203152D02*
X74860588Y-107298390D01*
X74860588Y-107298390D02*
X74812969Y-107346009D01*
X74812969Y-107346009D02*
X74717731Y-107393628D01*
X74717731Y-107393628D02*
X74336779Y-107393628D01*
X75336779Y-107869819D02*
X75336779Y-107203152D01*
X75336779Y-106869819D02*
X75289160Y-106917438D01*
X75289160Y-106917438D02*
X75336779Y-106965057D01*
X75336779Y-106965057D02*
X75384398Y-106917438D01*
X75384398Y-106917438D02*
X75336779Y-106869819D01*
X75336779Y-106869819D02*
X75336779Y-106965057D01*
X76241540Y-107203152D02*
X76241540Y-108012676D01*
X76241540Y-108012676D02*
X76193921Y-108107914D01*
X76193921Y-108107914D02*
X76146302Y-108155533D01*
X76146302Y-108155533D02*
X76051064Y-108203152D01*
X76051064Y-108203152D02*
X75908207Y-108203152D01*
X75908207Y-108203152D02*
X75812969Y-108155533D01*
X76241540Y-107822200D02*
X76146302Y-107869819D01*
X76146302Y-107869819D02*
X75955826Y-107869819D01*
X75955826Y-107869819D02*
X75860588Y-107822200D01*
X75860588Y-107822200D02*
X75812969Y-107774580D01*
X75812969Y-107774580D02*
X75765350Y-107679342D01*
X75765350Y-107679342D02*
X75765350Y-107393628D01*
X75765350Y-107393628D02*
X75812969Y-107298390D01*
X75812969Y-107298390D02*
X75860588Y-107250771D01*
X75860588Y-107250771D02*
X75955826Y-107203152D01*
X75955826Y-107203152D02*
X76146302Y-107203152D01*
X76146302Y-107203152D02*
X76241540Y-107250771D01*
X76717731Y-107869819D02*
X76717731Y-106869819D01*
X77146302Y-107869819D02*
X77146302Y-107346009D01*
X77146302Y-107346009D02*
X77098683Y-107250771D01*
X77098683Y-107250771D02*
X77003445Y-107203152D01*
X77003445Y-107203152D02*
X76860588Y-107203152D01*
X76860588Y-107203152D02*
X76765350Y-107250771D01*
X76765350Y-107250771D02*
X76717731Y-107298390D01*
X77479636Y-107203152D02*
X77860588Y-107203152D01*
X77622493Y-106869819D02*
X77622493Y-107726961D01*
X77622493Y-107726961D02*
X77670112Y-107822200D01*
X77670112Y-107822200D02*
X77765350Y-107869819D01*
X77765350Y-107869819D02*
X77860588Y-107869819D01*
X78908207Y-106822200D02*
X78051065Y-108107914D01*
X79241541Y-107869819D02*
X79241541Y-106869819D01*
X79241541Y-106869819D02*
X79574874Y-107584104D01*
X79574874Y-107584104D02*
X79908207Y-106869819D01*
X79908207Y-106869819D02*
X79908207Y-107869819D01*
X80527255Y-107869819D02*
X80432017Y-107822200D01*
X80432017Y-107822200D02*
X80384398Y-107774580D01*
X80384398Y-107774580D02*
X80336779Y-107679342D01*
X80336779Y-107679342D02*
X80336779Y-107393628D01*
X80336779Y-107393628D02*
X80384398Y-107298390D01*
X80384398Y-107298390D02*
X80432017Y-107250771D01*
X80432017Y-107250771D02*
X80527255Y-107203152D01*
X80527255Y-107203152D02*
X80670112Y-107203152D01*
X80670112Y-107203152D02*
X80765350Y-107250771D01*
X80765350Y-107250771D02*
X80812969Y-107298390D01*
X80812969Y-107298390D02*
X80860588Y-107393628D01*
X80860588Y-107393628D02*
X80860588Y-107679342D01*
X80860588Y-107679342D02*
X80812969Y-107774580D01*
X80812969Y-107774580D02*
X80765350Y-107822200D01*
X80765350Y-107822200D02*
X80670112Y-107869819D01*
X80670112Y-107869819D02*
X80527255Y-107869819D01*
X81289160Y-107203152D02*
X81289160Y-107869819D01*
X81289160Y-107298390D02*
X81336779Y-107250771D01*
X81336779Y-107250771D02*
X81432017Y-107203152D01*
X81432017Y-107203152D02*
X81574874Y-107203152D01*
X81574874Y-107203152D02*
X81670112Y-107250771D01*
X81670112Y-107250771D02*
X81717731Y-107346009D01*
X81717731Y-107346009D02*
X81717731Y-107869819D01*
X82336779Y-107869819D02*
X82241541Y-107822200D01*
X82241541Y-107822200D02*
X82193922Y-107774580D01*
X82193922Y-107774580D02*
X82146303Y-107679342D01*
X82146303Y-107679342D02*
X82146303Y-107393628D01*
X82146303Y-107393628D02*
X82193922Y-107298390D01*
X82193922Y-107298390D02*
X82241541Y-107250771D01*
X82241541Y-107250771D02*
X82336779Y-107203152D01*
X82336779Y-107203152D02*
X82479636Y-107203152D01*
X82479636Y-107203152D02*
X82574874Y-107250771D01*
X82574874Y-107250771D02*
X82622493Y-107298390D01*
X82622493Y-107298390D02*
X82670112Y-107393628D01*
X82670112Y-107393628D02*
X82670112Y-107679342D01*
X82670112Y-107679342D02*
X82622493Y-107774580D01*
X82622493Y-107774580D02*
X82574874Y-107822200D01*
X82574874Y-107822200D02*
X82479636Y-107869819D01*
X82479636Y-107869819D02*
X82336779Y-107869819D01*
X138717731Y-106259875D02*
X138717731Y-105497970D01*
X138527255Y-105688446D02*
X138717731Y-105497970D01*
X138717731Y-105497970D02*
X138908207Y-105688446D01*
X140336779Y-106259875D02*
X140336779Y-105259875D01*
X140336779Y-105259875D02*
X140670112Y-105974160D01*
X140670112Y-105974160D02*
X141003445Y-105259875D01*
X141003445Y-105259875D02*
X141003445Y-106259875D01*
X141479636Y-106259875D02*
X141479636Y-105259875D01*
X141955826Y-106259875D02*
X141955826Y-105259875D01*
X141955826Y-105259875D02*
X142193921Y-105259875D01*
X142193921Y-105259875D02*
X142336778Y-105307494D01*
X142336778Y-105307494D02*
X142432016Y-105402732D01*
X142432016Y-105402732D02*
X142479635Y-105497970D01*
X142479635Y-105497970D02*
X142527254Y-105688446D01*
X142527254Y-105688446D02*
X142527254Y-105831303D01*
X142527254Y-105831303D02*
X142479635Y-106021779D01*
X142479635Y-106021779D02*
X142432016Y-106117017D01*
X142432016Y-106117017D02*
X142336778Y-106212256D01*
X142336778Y-106212256D02*
X142193921Y-106259875D01*
X142193921Y-106259875D02*
X141955826Y-106259875D01*
X142955826Y-106259875D02*
X142955826Y-105259875D01*
X144193921Y-106259875D02*
X144193921Y-105593208D01*
X144193921Y-105259875D02*
X144146302Y-105307494D01*
X144146302Y-105307494D02*
X144193921Y-105355113D01*
X144193921Y-105355113D02*
X144241540Y-105307494D01*
X144241540Y-105307494D02*
X144193921Y-105259875D01*
X144193921Y-105259875D02*
X144193921Y-105355113D01*
X144670111Y-105593208D02*
X144670111Y-106259875D01*
X144670111Y-105688446D02*
X144717730Y-105640827D01*
X144717730Y-105640827D02*
X144812968Y-105593208D01*
X144812968Y-105593208D02*
X144955825Y-105593208D01*
X144955825Y-105593208D02*
X145051063Y-105640827D01*
X145051063Y-105640827D02*
X145098682Y-105736065D01*
X145098682Y-105736065D02*
X145098682Y-106259875D01*
X138717731Y-107107914D02*
X138717731Y-107869819D01*
X138908207Y-107679342D02*
X138717731Y-107869819D01*
X138717731Y-107869819D02*
X138527255Y-107679342D01*
X140336779Y-107869819D02*
X140336779Y-106869819D01*
X140336779Y-106869819D02*
X140670112Y-107584104D01*
X140670112Y-107584104D02*
X141003445Y-106869819D01*
X141003445Y-106869819D02*
X141003445Y-107869819D01*
X141479636Y-107869819D02*
X141479636Y-106869819D01*
X141955826Y-107869819D02*
X141955826Y-106869819D01*
X141955826Y-106869819D02*
X142193921Y-106869819D01*
X142193921Y-106869819D02*
X142336778Y-106917438D01*
X142336778Y-106917438D02*
X142432016Y-107012676D01*
X142432016Y-107012676D02*
X142479635Y-107107914D01*
X142479635Y-107107914D02*
X142527254Y-107298390D01*
X142527254Y-107298390D02*
X142527254Y-107441247D01*
X142527254Y-107441247D02*
X142479635Y-107631723D01*
X142479635Y-107631723D02*
X142432016Y-107726961D01*
X142432016Y-107726961D02*
X142336778Y-107822200D01*
X142336778Y-107822200D02*
X142193921Y-107869819D01*
X142193921Y-107869819D02*
X141955826Y-107869819D01*
X142955826Y-107869819D02*
X142955826Y-106869819D01*
X144336778Y-107869819D02*
X144241540Y-107822200D01*
X144241540Y-107822200D02*
X144193921Y-107774580D01*
X144193921Y-107774580D02*
X144146302Y-107679342D01*
X144146302Y-107679342D02*
X144146302Y-107393628D01*
X144146302Y-107393628D02*
X144193921Y-107298390D01*
X144193921Y-107298390D02*
X144241540Y-107250771D01*
X144241540Y-107250771D02*
X144336778Y-107203152D01*
X144336778Y-107203152D02*
X144479635Y-107203152D01*
X144479635Y-107203152D02*
X144574873Y-107250771D01*
X144574873Y-107250771D02*
X144622492Y-107298390D01*
X144622492Y-107298390D02*
X144670111Y-107393628D01*
X144670111Y-107393628D02*
X144670111Y-107679342D01*
X144670111Y-107679342D02*
X144622492Y-107774580D01*
X144622492Y-107774580D02*
X144574873Y-107822200D01*
X144574873Y-107822200D02*
X144479635Y-107869819D01*
X144479635Y-107869819D02*
X144336778Y-107869819D01*
X145527254Y-107203152D02*
X145527254Y-107869819D01*
X145098683Y-107203152D02*
X145098683Y-107726961D01*
X145098683Y-107726961D02*
X145146302Y-107822200D01*
X145146302Y-107822200D02*
X145241540Y-107869819D01*
X145241540Y-107869819D02*
X145384397Y-107869819D01*
X145384397Y-107869819D02*
X145479635Y-107822200D01*
X145479635Y-107822200D02*
X145527254Y-107774580D01*
X145860588Y-107203152D02*
X146241540Y-107203152D01*
X146003445Y-106869819D02*
X146003445Y-107726961D01*
X146003445Y-107726961D02*
X146051064Y-107822200D01*
X146051064Y-107822200D02*
X146146302Y-107869819D01*
X146146302Y-107869819D02*
X146241540Y-107869819D01*
X94004761Y-59654819D02*
X93528571Y-59654819D01*
X93528571Y-59654819D02*
X93528571Y-58654819D01*
X94909523Y-59559580D02*
X94861904Y-59607200D01*
X94861904Y-59607200D02*
X94719047Y-59654819D01*
X94719047Y-59654819D02*
X94623809Y-59654819D01*
X94623809Y-59654819D02*
X94480952Y-59607200D01*
X94480952Y-59607200D02*
X94385714Y-59511961D01*
X94385714Y-59511961D02*
X94338095Y-59416723D01*
X94338095Y-59416723D02*
X94290476Y-59226247D01*
X94290476Y-59226247D02*
X94290476Y-59083390D01*
X94290476Y-59083390D02*
X94338095Y-58892914D01*
X94338095Y-58892914D02*
X94385714Y-58797676D01*
X94385714Y-58797676D02*
X94480952Y-58702438D01*
X94480952Y-58702438D02*
X94623809Y-58654819D01*
X94623809Y-58654819D02*
X94719047Y-58654819D01*
X94719047Y-58654819D02*
X94861904Y-58702438D01*
X94861904Y-58702438D02*
X94909523Y-58750057D01*
X95338095Y-59654819D02*
X95338095Y-58654819D01*
X95338095Y-58654819D02*
X95576190Y-58654819D01*
X95576190Y-58654819D02*
X95719047Y-58702438D01*
X95719047Y-58702438D02*
X95814285Y-58797676D01*
X95814285Y-58797676D02*
X95861904Y-58892914D01*
X95861904Y-58892914D02*
X95909523Y-59083390D01*
X95909523Y-59083390D02*
X95909523Y-59226247D01*
X95909523Y-59226247D02*
X95861904Y-59416723D01*
X95861904Y-59416723D02*
X95814285Y-59511961D01*
X95814285Y-59511961D02*
X95719047Y-59607200D01*
X95719047Y-59607200D02*
X95576190Y-59654819D01*
X95576190Y-59654819D02*
X95338095Y-59654819D01*
X96861904Y-59654819D02*
X96290476Y-59654819D01*
X96576190Y-59654819D02*
X96576190Y-58654819D01*
X96576190Y-58654819D02*
X96480952Y-58797676D01*
X96480952Y-58797676D02*
X96385714Y-58892914D01*
X96385714Y-58892914D02*
X96290476Y-58940533D01*
X97719047Y-58654819D02*
X97528571Y-58654819D01*
X97528571Y-58654819D02*
X97433333Y-58702438D01*
X97433333Y-58702438D02*
X97385714Y-58750057D01*
X97385714Y-58750057D02*
X97290476Y-58892914D01*
X97290476Y-58892914D02*
X97242857Y-59083390D01*
X97242857Y-59083390D02*
X97242857Y-59464342D01*
X97242857Y-59464342D02*
X97290476Y-59559580D01*
X97290476Y-59559580D02*
X97338095Y-59607200D01*
X97338095Y-59607200D02*
X97433333Y-59654819D01*
X97433333Y-59654819D02*
X97623809Y-59654819D01*
X97623809Y-59654819D02*
X97719047Y-59607200D01*
X97719047Y-59607200D02*
X97766666Y-59559580D01*
X97766666Y-59559580D02*
X97814285Y-59464342D01*
X97814285Y-59464342D02*
X97814285Y-59226247D01*
X97814285Y-59226247D02*
X97766666Y-59131009D01*
X97766666Y-59131009D02*
X97719047Y-59083390D01*
X97719047Y-59083390D02*
X97623809Y-59035771D01*
X97623809Y-59035771D02*
X97433333Y-59035771D01*
X97433333Y-59035771D02*
X97338095Y-59083390D01*
X97338095Y-59083390D02*
X97290476Y-59131009D01*
X97290476Y-59131009D02*
X97242857Y-59226247D01*
X98433333Y-58654819D02*
X98528571Y-58654819D01*
X98528571Y-58654819D02*
X98623809Y-58702438D01*
X98623809Y-58702438D02*
X98671428Y-58750057D01*
X98671428Y-58750057D02*
X98719047Y-58845295D01*
X98719047Y-58845295D02*
X98766666Y-59035771D01*
X98766666Y-59035771D02*
X98766666Y-59273866D01*
X98766666Y-59273866D02*
X98719047Y-59464342D01*
X98719047Y-59464342D02*
X98671428Y-59559580D01*
X98671428Y-59559580D02*
X98623809Y-59607200D01*
X98623809Y-59607200D02*
X98528571Y-59654819D01*
X98528571Y-59654819D02*
X98433333Y-59654819D01*
X98433333Y-59654819D02*
X98338095Y-59607200D01*
X98338095Y-59607200D02*
X98290476Y-59559580D01*
X98290476Y-59559580D02*
X98242857Y-59464342D01*
X98242857Y-59464342D02*
X98195238Y-59273866D01*
X98195238Y-59273866D02*
X98195238Y-59035771D01*
X98195238Y-59035771D02*
X98242857Y-58845295D01*
X98242857Y-58845295D02*
X98290476Y-58750057D01*
X98290476Y-58750057D02*
X98338095Y-58702438D01*
X98338095Y-58702438D02*
X98433333Y-58654819D01*
X99147619Y-58750057D02*
X99195238Y-58702438D01*
X99195238Y-58702438D02*
X99290476Y-58654819D01*
X99290476Y-58654819D02*
X99528571Y-58654819D01*
X99528571Y-58654819D02*
X99623809Y-58702438D01*
X99623809Y-58702438D02*
X99671428Y-58750057D01*
X99671428Y-58750057D02*
X99719047Y-58845295D01*
X99719047Y-58845295D02*
X99719047Y-58940533D01*
X99719047Y-58940533D02*
X99671428Y-59083390D01*
X99671428Y-59083390D02*
X99100000Y-59654819D01*
X99100000Y-59654819D02*
X99719047Y-59654819D01*
X107485714Y-104729009D02*
X107819047Y-104729009D01*
X107961904Y-105252819D02*
X107485714Y-105252819D01*
X107485714Y-105252819D02*
X107485714Y-104252819D01*
X107485714Y-104252819D02*
X107961904Y-104252819D01*
X108390476Y-105252819D02*
X108390476Y-104252819D01*
X108390476Y-104252819D02*
X108961904Y-105252819D01*
X108961904Y-105252819D02*
X108961904Y-104252819D01*
X110009523Y-105157580D02*
X109961904Y-105205200D01*
X109961904Y-105205200D02*
X109819047Y-105252819D01*
X109819047Y-105252819D02*
X109723809Y-105252819D01*
X109723809Y-105252819D02*
X109580952Y-105205200D01*
X109580952Y-105205200D02*
X109485714Y-105109961D01*
X109485714Y-105109961D02*
X109438095Y-105014723D01*
X109438095Y-105014723D02*
X109390476Y-104824247D01*
X109390476Y-104824247D02*
X109390476Y-104681390D01*
X109390476Y-104681390D02*
X109438095Y-104490914D01*
X109438095Y-104490914D02*
X109485714Y-104395676D01*
X109485714Y-104395676D02*
X109580952Y-104300438D01*
X109580952Y-104300438D02*
X109723809Y-104252819D01*
X109723809Y-104252819D02*
X109819047Y-104252819D01*
X109819047Y-104252819D02*
X109961904Y-104300438D01*
X109961904Y-104300438D02*
X110009523Y-104348057D01*
X110961904Y-105252819D02*
X110390476Y-105252819D01*
X110676190Y-105252819D02*
X110676190Y-104252819D01*
X110676190Y-104252819D02*
X110580952Y-104395676D01*
X110580952Y-104395676D02*
X110485714Y-104490914D01*
X110485714Y-104490914D02*
X110390476Y-104538533D01*
X99411905Y-117529819D02*
X99411905Y-116529819D01*
X99411905Y-116529819D02*
X99792857Y-116529819D01*
X99792857Y-116529819D02*
X99888095Y-116577438D01*
X99888095Y-116577438D02*
X99935714Y-116625057D01*
X99935714Y-116625057D02*
X99983333Y-116720295D01*
X99983333Y-116720295D02*
X99983333Y-116863152D01*
X99983333Y-116863152D02*
X99935714Y-116958390D01*
X99935714Y-116958390D02*
X99888095Y-117006009D01*
X99888095Y-117006009D02*
X99792857Y-117053628D01*
X99792857Y-117053628D02*
X99411905Y-117053628D01*
X100935714Y-117529819D02*
X100364286Y-117529819D01*
X100650000Y-117529819D02*
X100650000Y-116529819D01*
X100650000Y-116529819D02*
X100554762Y-116672676D01*
X100554762Y-116672676D02*
X100459524Y-116767914D01*
X100459524Y-116767914D02*
X100364286Y-116815533D01*
D11*
X75710000Y-57660000D02*
X116430000Y-57670000D01*
X75710000Y-60320000D02*
X75710000Y-57660000D01*
X75710000Y-60320000D02*
X116430000Y-60330000D01*
X116430000Y-60330000D02*
X116430000Y-57670000D01*
X103320000Y-102898000D02*
X103320000Y-98798000D01*
X103320000Y-110998000D02*
X103320000Y-106898000D01*
X105720000Y-110998000D02*
X103320000Y-110998000D01*
X110520000Y-110998000D02*
X107920000Y-110998000D01*
X115120000Y-98798000D02*
X103320000Y-98798000D01*
X115120000Y-102898000D02*
X115120000Y-98798000D01*
X115120000Y-106898000D02*
X115120000Y-110998000D01*
X115120000Y-110998000D02*
X112720000Y-110998000D01*
X112220000Y-104898000D02*
G75*
G02*
X106220000Y-104898000I-3000000J0D01*
G01*
X106220000Y-104898000D02*
G75*
G02*
X112220000Y-104898000I3000000J0D01*
G01*
X101570000Y-115764000D02*
X137220000Y-115764000D01*
X101570000Y-118424000D02*
X101570000Y-115764000D01*
X101570000Y-118424000D02*
X137220000Y-118424000D01*
X137220000Y-118424000D02*
X137220000Y-115764000D01*
%LPC*%
D12*
X77000000Y-59000000D03*
D13*
X79540000Y-59000000D03*
X82080000Y-59000000D03*
X84620000Y-59000000D03*
X87160000Y-59000000D03*
X89700000Y-59000000D03*
X102400000Y-59000000D03*
X104940000Y-59000000D03*
X107480000Y-59000000D03*
X110020000Y-59000000D03*
X112560000Y-59000000D03*
X115100000Y-59000000D03*
D14*
X111720000Y-97398000D03*
D15*
X106720000Y-97398000D03*
X109220000Y-97398000D03*
D16*
X114820000Y-104898000D03*
X103620000Y-104898000D03*
D15*
X106720000Y-111898000D03*
X111720000Y-111898000D03*
D17*
X102870000Y-117094000D03*
X105410000Y-117094000D03*
D13*
X107950000Y-117094000D03*
D18*
X110490000Y-117094000D03*
D13*
X113030000Y-117094000D03*
X115570000Y-117094000D03*
D18*
X118110000Y-117094000D03*
D13*
X120650000Y-117094000D03*
X123190000Y-117094000D03*
X125730000Y-117094000D03*
X128270000Y-117094000D03*
X130810000Y-117094000D03*
X133350000Y-117094000D03*
D12*
X135890000Y-117094000D03*
D19*
X147396000Y-87832000D03*
X140396000Y-87832000D03*
X147396000Y-101294000D03*
X140396000Y-101294000D03*
D20*
X79150000Y-99000000D03*
X79150000Y-115230000D03*
X72800000Y-99000000D03*
X72800000Y-115230000D03*
X85500000Y-99000000D03*
X85500000Y-115230000D03*
D13*
X98082500Y-112122500D03*
X95542500Y-112122500D03*
X98082500Y-109582500D03*
X95542500Y-109582500D03*
X98082500Y-107042500D03*
X95542500Y-107042500D03*
X98082500Y-104502500D03*
X95542500Y-104502500D03*
X98082500Y-101962500D03*
X95542500Y-101962500D03*
X98082500Y-99422500D03*
X95542500Y-99422500D03*
X98082500Y-96882500D03*
X95542500Y-96882500D03*
X98082500Y-94342500D03*
X95542500Y-94342500D03*
X98082500Y-91802500D03*
X95542500Y-91802500D03*
X98082500Y-89262500D03*
X95542500Y-89262500D03*
X98082500Y-86722500D03*
X95542500Y-86722500D03*
X98082500Y-84182500D03*
X95542500Y-84182500D03*
X98082500Y-81642500D03*
X95542500Y-81642500D03*
X98082500Y-79102500D03*
X95542500Y-79102500D03*
X98082500Y-76562500D03*
X95542500Y-76562500D03*
X98082500Y-74022500D03*
X95542500Y-74022500D03*
X98082500Y-71482500D03*
X95542500Y-71482500D03*
X98082500Y-68942500D03*
X95542500Y-68942500D03*
X98082500Y-66402500D03*
X95542500Y-66402500D03*
X98082500Y-63862500D03*
X95542500Y-63862500D03*
D21*
X129175000Y-88925000D03*
D13*
X131715000Y-88925000D03*
X129175000Y-86385000D03*
X131715000Y-86385000D03*
D22*
X86614000Y-69130000D03*
X81614000Y-66630000D03*
X86614000Y-64130000D03*
D20*
X79150000Y-75000000D03*
X79150000Y-91230000D03*
X72800000Y-75000000D03*
X72800000Y-91230000D03*
X85500000Y-75000000D03*
X85500000Y-91230000D03*
D21*
X129175000Y-100725000D03*
D13*
X131715000Y-100725000D03*
X129175000Y-98185000D03*
X131715000Y-98185000D03*
%LPD*%
M02*
