G04 #@! TF.GenerationSoftware,KiCad,Pcbnew,10.0.0*
G04 #@! TF.CreationDate,2026-04-05T11:31:23-05:00*
G04 #@! TF.ProjectId,squishbox8,73717569-7368-4626-9f78-382e6b696361,8.1*
G04 #@! TF.SameCoordinates,Original*
G04 #@! TF.FileFunction,Legend,Bot*
G04 #@! TF.FilePolarity,Positive*
%FSLAX46Y46*%
G04 Gerber Fmt 4.6, Leading zero omitted, Abs format (unit mm)*
G04 Created by KiCad (PCBNEW 10.0.0) date 2026-04-05 11:31:23*
%MOMM*%
%LPD*%
G01*
G04 APERTURE LIST*
G04 Aperture macros list*
%AMRoundRect*
0 Rectangle with rounded corners*
0 $1 Rounding radius*
0 $2 $3 $4 $5 $6 $7 $8 $9 X,Y pos of 4 corners*
0 Add a 4 corners polygon primitive as box body*
4,1,4,$2,$3,$4,$5,$6,$7,$8,$9,$2,$3,0*
0 Add four circle primitives for the rounded corners*
1,1,$1+$1,$2,$3*
1,1,$1+$1,$4,$5*
1,1,$1+$1,$6,$7*
1,1,$1+$1,$8,$9*
0 Add four rect primitives between the rounded corners*
20,1,$1+$1,$2,$3,$4,$5,0*
20,1,$1+$1,$4,$5,$6,$7,0*
20,1,$1+$1,$6,$7,$8,$9,0*
20,1,$1+$1,$8,$9,$2,$3,0*%
%AMRotRect*
0 Rectangle, with rotation*
0 The origin of the aperture is its center*
0 $1 length*
0 $2 width*
0 $3 Rotation angle, in degrees counterclockwise*
0 Add horizontal line*
21,1,$1,$2,0,0,$3*%
%AMOutline5P*
0 Free polygon, 5 corners , with rotation*
0 The origin of the aperture is its center*
0 number of corners: always 5*
0 $1 to $10 corner X, Y*
0 $11 Rotation angle, in degrees counterclockwise*
0 create outline with 5 corners*
4,1,5,$1,$2,$3,$4,$5,$6,$7,$8,$9,$10,$1,$2,$11*%
%AMOutline6P*
0 Free polygon, 6 corners , with rotation*
0 The origin of the aperture is its center*
0 number of corners: always 6*
0 $1 to $12 corner X, Y*
0 $13 Rotation angle, in degrees counterclockwise*
0 create outline with 6 corners*
4,1,6,$1,$2,$3,$4,$5,$6,$7,$8,$9,$10,$11,$12,$1,$2,$13*%
%AMOutline7P*
0 Free polygon, 7 corners , with rotation*
0 The origin of the aperture is its center*
0 number of corners: always 7*
0 $1 to $14 corner X, Y*
0 $15 Rotation angle, in degrees counterclockwise*
0 create outline with 7 corners*
4,1,7,$1,$2,$3,$4,$5,$6,$7,$8,$9,$10,$11,$12,$13,$14,$1,$2,$15*%
%AMOutline8P*
0 Free polygon, 8 corners , with rotation*
0 The origin of the aperture is its center*
0 number of corners: always 8*
0 $1 to $16 corner X, Y*
0 $17 Rotation angle, in degrees counterclockwise*
0 create outline with 8 corners*
4,1,8,$1,$2,$3,$4,$5,$6,$7,$8,$9,$10,$11,$12,$13,$14,$15,$16,$1,$2,$17*%
G04 Aperture macros list end*
%ADD10C,0.150000*%
%ADD11C,0.120000*%
%ADD12R,1.700000X1.700000*%
%ADD13O,1.700000X1.700000*%
%ADD14O,2.000000X2.000000*%
%ADD15C,2.000000*%
%ADD16R,2.000000X3.200000*%
%ADD17RotRect,1.500000X1.500000X135.000000*%
%ADD18Outline5P,-0.850000X0.510000X-0.510000X0.850000X0.850000X0.850000X0.850000X-0.850000X-0.850000X-0.850000X90.000000*%
%ADD19R,2.000000X1.780000*%
%ADD20RoundRect,0.250000X0.250000X0.475000X-0.250000X0.475000X-0.250000X-0.475000X0.250000X-0.475000X0*%
%ADD21RoundRect,0.218750X-0.218750X-0.256250X0.218750X-0.256250X0.218750X0.256250X-0.218750X0.256250X0*%
%ADD22RoundRect,0.250000X-0.362500X-1.075000X0.362500X-1.075000X0.362500X1.075000X-0.362500X1.075000X0*%
%ADD23C,1.600000*%
%ADD24R,1.200000X2.500000*%
%ADD25RoundRect,0.250000X-0.312500X-0.625000X0.312500X-0.625000X0.312500X0.625000X-0.312500X0.625000X0*%
%ADD26RoundRect,0.250000X-0.475000X0.250000X-0.475000X-0.250000X0.475000X-0.250000X0.475000X0.250000X0*%
%ADD27RoundRect,0.218750X-0.256250X0.218750X-0.256250X-0.218750X0.256250X-0.218750X0.256250X0.218750X0*%
%ADD28RoundRect,0.112500X-0.112500X0.187500X-0.112500X-0.187500X0.112500X-0.187500X0.112500X0.187500X0*%
%ADD29C,3.400000*%
%ADD30RoundRect,0.250000X0.475000X-0.250000X0.475000X0.250000X-0.475000X0.250000X-0.475000X-0.250000X0*%
%ADD31RoundRect,0.250000X0.450000X-0.262500X0.450000X0.262500X-0.450000X0.262500X-0.450000X-0.262500X0*%
%ADD32C,1.700000*%
%ADD33RoundRect,0.100000X0.637500X0.100000X-0.637500X0.100000X-0.637500X-0.100000X0.637500X-0.100000X0*%
%ADD34RoundRect,0.250000X0.312500X0.625000X-0.312500X0.625000X-0.312500X-0.625000X0.312500X-0.625000X0*%
%ADD35C,1.620000*%
%ADD36RoundRect,0.250000X-0.262500X-0.450000X0.262500X-0.450000X0.262500X0.450000X-0.262500X0.450000X0*%
G04 APERTURE END LIST*
D10*
X78816792Y-66974580D02*
X78864411Y-67022200D01*
X78864411Y-67022200D02*
X79007268Y-67069819D01*
X79007268Y-67069819D02*
X79102506Y-67069819D01*
X79102506Y-67069819D02*
X79245363Y-67022200D01*
X79245363Y-67022200D02*
X79340601Y-66926961D01*
X79340601Y-66926961D02*
X79388220Y-66831723D01*
X79388220Y-66831723D02*
X79435839Y-66641247D01*
X79435839Y-66641247D02*
X79435839Y-66498390D01*
X79435839Y-66498390D02*
X79388220Y-66307914D01*
X79388220Y-66307914D02*
X79340601Y-66212676D01*
X79340601Y-66212676D02*
X79245363Y-66117438D01*
X79245363Y-66117438D02*
X79102506Y-66069819D01*
X79102506Y-66069819D02*
X79007268Y-66069819D01*
X79007268Y-66069819D02*
X78864411Y-66117438D01*
X78864411Y-66117438D02*
X78816792Y-66165057D01*
X78245363Y-67069819D02*
X78340601Y-67022200D01*
X78340601Y-67022200D02*
X78388220Y-66974580D01*
X78388220Y-66974580D02*
X78435839Y-66879342D01*
X78435839Y-66879342D02*
X78435839Y-66593628D01*
X78435839Y-66593628D02*
X78388220Y-66498390D01*
X78388220Y-66498390D02*
X78340601Y-66450771D01*
X78340601Y-66450771D02*
X78245363Y-66403152D01*
X78245363Y-66403152D02*
X78102506Y-66403152D01*
X78102506Y-66403152D02*
X78007268Y-66450771D01*
X78007268Y-66450771D02*
X77959649Y-66498390D01*
X77959649Y-66498390D02*
X77912030Y-66593628D01*
X77912030Y-66593628D02*
X77912030Y-66879342D01*
X77912030Y-66879342D02*
X77959649Y-66974580D01*
X77959649Y-66974580D02*
X78007268Y-67022200D01*
X78007268Y-67022200D02*
X78102506Y-67069819D01*
X78102506Y-67069819D02*
X78245363Y-67069819D01*
X77483458Y-66403152D02*
X77483458Y-67069819D01*
X77483458Y-66498390D02*
X77435839Y-66450771D01*
X77435839Y-66450771D02*
X77340601Y-66403152D01*
X77340601Y-66403152D02*
X77197744Y-66403152D01*
X77197744Y-66403152D02*
X77102506Y-66450771D01*
X77102506Y-66450771D02*
X77054887Y-66546009D01*
X77054887Y-66546009D02*
X77054887Y-67069819D01*
X76721553Y-66403152D02*
X76340601Y-66403152D01*
X76578696Y-66069819D02*
X76578696Y-66926961D01*
X76578696Y-66926961D02*
X76531077Y-67022200D01*
X76531077Y-67022200D02*
X76435839Y-67069819D01*
X76435839Y-67069819D02*
X76340601Y-67069819D01*
X76007267Y-67069819D02*
X76007267Y-66403152D01*
X76007267Y-66593628D02*
X75959648Y-66498390D01*
X75959648Y-66498390D02*
X75912029Y-66450771D01*
X75912029Y-66450771D02*
X75816791Y-66403152D01*
X75816791Y-66403152D02*
X75721553Y-66403152D01*
X74959648Y-67069819D02*
X74959648Y-66546009D01*
X74959648Y-66546009D02*
X75007267Y-66450771D01*
X75007267Y-66450771D02*
X75102505Y-66403152D01*
X75102505Y-66403152D02*
X75292981Y-66403152D01*
X75292981Y-66403152D02*
X75388219Y-66450771D01*
X74959648Y-67022200D02*
X75054886Y-67069819D01*
X75054886Y-67069819D02*
X75292981Y-67069819D01*
X75292981Y-67069819D02*
X75388219Y-67022200D01*
X75388219Y-67022200D02*
X75435838Y-66926961D01*
X75435838Y-66926961D02*
X75435838Y-66831723D01*
X75435838Y-66831723D02*
X75388219Y-66736485D01*
X75388219Y-66736485D02*
X75292981Y-66688866D01*
X75292981Y-66688866D02*
X75054886Y-66688866D01*
X75054886Y-66688866D02*
X74959648Y-66641247D01*
X74531076Y-67022200D02*
X74435838Y-67069819D01*
X74435838Y-67069819D02*
X74245362Y-67069819D01*
X74245362Y-67069819D02*
X74150124Y-67022200D01*
X74150124Y-67022200D02*
X74102505Y-66926961D01*
X74102505Y-66926961D02*
X74102505Y-66879342D01*
X74102505Y-66879342D02*
X74150124Y-66784104D01*
X74150124Y-66784104D02*
X74245362Y-66736485D01*
X74245362Y-66736485D02*
X74388219Y-66736485D01*
X74388219Y-66736485D02*
X74483457Y-66688866D01*
X74483457Y-66688866D02*
X74531076Y-66593628D01*
X74531076Y-66593628D02*
X74531076Y-66546009D01*
X74531076Y-66546009D02*
X74483457Y-66450771D01*
X74483457Y-66450771D02*
X74388219Y-66403152D01*
X74388219Y-66403152D02*
X74245362Y-66403152D01*
X74245362Y-66403152D02*
X74150124Y-66450771D01*
X73816790Y-66403152D02*
X73435838Y-66403152D01*
X73673933Y-66069819D02*
X73673933Y-66926961D01*
X73673933Y-66926961D02*
X73626314Y-67022200D01*
X73626314Y-67022200D02*
X73531076Y-67069819D01*
X73531076Y-67069819D02*
X73435838Y-67069819D01*
X84616792Y-118844819D02*
X84950125Y-118368628D01*
X85188220Y-118844819D02*
X85188220Y-117844819D01*
X85188220Y-117844819D02*
X84807268Y-117844819D01*
X84807268Y-117844819D02*
X84712030Y-117892438D01*
X84712030Y-117892438D02*
X84664411Y-117940057D01*
X84664411Y-117940057D02*
X84616792Y-118035295D01*
X84616792Y-118035295D02*
X84616792Y-118178152D01*
X84616792Y-118178152D02*
X84664411Y-118273390D01*
X84664411Y-118273390D02*
X84712030Y-118321009D01*
X84712030Y-118321009D02*
X84807268Y-118368628D01*
X84807268Y-118368628D02*
X85188220Y-118368628D01*
X84188220Y-118844819D02*
X84188220Y-118178152D01*
X84188220Y-117844819D02*
X84235839Y-117892438D01*
X84235839Y-117892438D02*
X84188220Y-117940057D01*
X84188220Y-117940057D02*
X84140601Y-117892438D01*
X84140601Y-117892438D02*
X84188220Y-117844819D01*
X84188220Y-117844819D02*
X84188220Y-117940057D01*
X83283459Y-118178152D02*
X83283459Y-118987676D01*
X83283459Y-118987676D02*
X83331078Y-119082914D01*
X83331078Y-119082914D02*
X83378697Y-119130533D01*
X83378697Y-119130533D02*
X83473935Y-119178152D01*
X83473935Y-119178152D02*
X83616792Y-119178152D01*
X83616792Y-119178152D02*
X83712030Y-119130533D01*
X83283459Y-118797200D02*
X83378697Y-118844819D01*
X83378697Y-118844819D02*
X83569173Y-118844819D01*
X83569173Y-118844819D02*
X83664411Y-118797200D01*
X83664411Y-118797200D02*
X83712030Y-118749580D01*
X83712030Y-118749580D02*
X83759649Y-118654342D01*
X83759649Y-118654342D02*
X83759649Y-118368628D01*
X83759649Y-118368628D02*
X83712030Y-118273390D01*
X83712030Y-118273390D02*
X83664411Y-118225771D01*
X83664411Y-118225771D02*
X83569173Y-118178152D01*
X83569173Y-118178152D02*
X83378697Y-118178152D01*
X83378697Y-118178152D02*
X83283459Y-118225771D01*
X82807268Y-118844819D02*
X82807268Y-117844819D01*
X82378697Y-118844819D02*
X82378697Y-118321009D01*
X82378697Y-118321009D02*
X82426316Y-118225771D01*
X82426316Y-118225771D02*
X82521554Y-118178152D01*
X82521554Y-118178152D02*
X82664411Y-118178152D01*
X82664411Y-118178152D02*
X82759649Y-118225771D01*
X82759649Y-118225771D02*
X82807268Y-118273390D01*
X82045363Y-118178152D02*
X81664411Y-118178152D01*
X81902506Y-117844819D02*
X81902506Y-118701961D01*
X81902506Y-118701961D02*
X81854887Y-118797200D01*
X81854887Y-118797200D02*
X81759649Y-118844819D01*
X81759649Y-118844819D02*
X81664411Y-118844819D01*
X80616792Y-117797200D02*
X81473934Y-119082914D01*
X80283458Y-118844819D02*
X80283458Y-117844819D01*
X80283458Y-117844819D02*
X79950125Y-118559104D01*
X79950125Y-118559104D02*
X79616792Y-117844819D01*
X79616792Y-117844819D02*
X79616792Y-118844819D01*
X78997744Y-118844819D02*
X79092982Y-118797200D01*
X79092982Y-118797200D02*
X79140601Y-118749580D01*
X79140601Y-118749580D02*
X79188220Y-118654342D01*
X79188220Y-118654342D02*
X79188220Y-118368628D01*
X79188220Y-118368628D02*
X79140601Y-118273390D01*
X79140601Y-118273390D02*
X79092982Y-118225771D01*
X79092982Y-118225771D02*
X78997744Y-118178152D01*
X78997744Y-118178152D02*
X78854887Y-118178152D01*
X78854887Y-118178152D02*
X78759649Y-118225771D01*
X78759649Y-118225771D02*
X78712030Y-118273390D01*
X78712030Y-118273390D02*
X78664411Y-118368628D01*
X78664411Y-118368628D02*
X78664411Y-118654342D01*
X78664411Y-118654342D02*
X78712030Y-118749580D01*
X78712030Y-118749580D02*
X78759649Y-118797200D01*
X78759649Y-118797200D02*
X78854887Y-118844819D01*
X78854887Y-118844819D02*
X78997744Y-118844819D01*
X78235839Y-118178152D02*
X78235839Y-118844819D01*
X78235839Y-118273390D02*
X78188220Y-118225771D01*
X78188220Y-118225771D02*
X78092982Y-118178152D01*
X78092982Y-118178152D02*
X77950125Y-118178152D01*
X77950125Y-118178152D02*
X77854887Y-118225771D01*
X77854887Y-118225771D02*
X77807268Y-118321009D01*
X77807268Y-118321009D02*
X77807268Y-118844819D01*
X77188220Y-118844819D02*
X77283458Y-118797200D01*
X77283458Y-118797200D02*
X77331077Y-118749580D01*
X77331077Y-118749580D02*
X77378696Y-118654342D01*
X77378696Y-118654342D02*
X77378696Y-118368628D01*
X77378696Y-118368628D02*
X77331077Y-118273390D01*
X77331077Y-118273390D02*
X77283458Y-118225771D01*
X77283458Y-118225771D02*
X77188220Y-118178152D01*
X77188220Y-118178152D02*
X77045363Y-118178152D01*
X77045363Y-118178152D02*
X76950125Y-118225771D01*
X76950125Y-118225771D02*
X76902506Y-118273390D01*
X76902506Y-118273390D02*
X76854887Y-118368628D01*
X76854887Y-118368628D02*
X76854887Y-118654342D01*
X76854887Y-118654342D02*
X76902506Y-118749580D01*
X76902506Y-118749580D02*
X76950125Y-118797200D01*
X76950125Y-118797200D02*
X77045363Y-118844819D01*
X77045363Y-118844819D02*
X77188220Y-118844819D01*
X85737030Y-72069819D02*
X86213220Y-72069819D01*
X86213220Y-72069819D02*
X86213220Y-71069819D01*
X85022744Y-72022200D02*
X85117982Y-72069819D01*
X85117982Y-72069819D02*
X85308458Y-72069819D01*
X85308458Y-72069819D02*
X85403696Y-72022200D01*
X85403696Y-72022200D02*
X85451315Y-71926961D01*
X85451315Y-71926961D02*
X85451315Y-71546009D01*
X85451315Y-71546009D02*
X85403696Y-71450771D01*
X85403696Y-71450771D02*
X85308458Y-71403152D01*
X85308458Y-71403152D02*
X85117982Y-71403152D01*
X85117982Y-71403152D02*
X85022744Y-71450771D01*
X85022744Y-71450771D02*
X84975125Y-71546009D01*
X84975125Y-71546009D02*
X84975125Y-71641247D01*
X84975125Y-71641247D02*
X85451315Y-71736485D01*
X84689410Y-71403152D02*
X84308458Y-71403152D01*
X84546553Y-72069819D02*
X84546553Y-71212676D01*
X84546553Y-71212676D02*
X84498934Y-71117438D01*
X84498934Y-71117438D02*
X84403696Y-71069819D01*
X84403696Y-71069819D02*
X84308458Y-71069819D01*
X84117981Y-71403152D02*
X83737029Y-71403152D01*
X83975124Y-71069819D02*
X83975124Y-71926961D01*
X83975124Y-71926961D02*
X83927505Y-72022200D01*
X83927505Y-72022200D02*
X83832267Y-72069819D01*
X83832267Y-72069819D02*
X83737029Y-72069819D01*
X82689410Y-71022200D02*
X83546552Y-72307914D01*
X82356076Y-72069819D02*
X82356076Y-71069819D01*
X82356076Y-71546009D02*
X81784648Y-71546009D01*
X81784648Y-72069819D02*
X81784648Y-71069819D01*
X80927505Y-72022200D02*
X81022743Y-72069819D01*
X81022743Y-72069819D02*
X81213219Y-72069819D01*
X81213219Y-72069819D02*
X81308457Y-72022200D01*
X81308457Y-72022200D02*
X81356076Y-71926961D01*
X81356076Y-71926961D02*
X81356076Y-71546009D01*
X81356076Y-71546009D02*
X81308457Y-71450771D01*
X81308457Y-71450771D02*
X81213219Y-71403152D01*
X81213219Y-71403152D02*
X81022743Y-71403152D01*
X81022743Y-71403152D02*
X80927505Y-71450771D01*
X80927505Y-71450771D02*
X80879886Y-71546009D01*
X80879886Y-71546009D02*
X80879886Y-71641247D01*
X80879886Y-71641247D02*
X81356076Y-71736485D01*
X80022743Y-72069819D02*
X80022743Y-71546009D01*
X80022743Y-71546009D02*
X80070362Y-71450771D01*
X80070362Y-71450771D02*
X80165600Y-71403152D01*
X80165600Y-71403152D02*
X80356076Y-71403152D01*
X80356076Y-71403152D02*
X80451314Y-71450771D01*
X80022743Y-72022200D02*
X80117981Y-72069819D01*
X80117981Y-72069819D02*
X80356076Y-72069819D01*
X80356076Y-72069819D02*
X80451314Y-72022200D01*
X80451314Y-72022200D02*
X80498933Y-71926961D01*
X80498933Y-71926961D02*
X80498933Y-71831723D01*
X80498933Y-71831723D02*
X80451314Y-71736485D01*
X80451314Y-71736485D02*
X80356076Y-71688866D01*
X80356076Y-71688866D02*
X80117981Y-71688866D01*
X80117981Y-71688866D02*
X80022743Y-71641247D01*
X79117981Y-72069819D02*
X79117981Y-71069819D01*
X79117981Y-72022200D02*
X79213219Y-72069819D01*
X79213219Y-72069819D02*
X79403695Y-72069819D01*
X79403695Y-72069819D02*
X79498933Y-72022200D01*
X79498933Y-72022200D02*
X79546552Y-71974580D01*
X79546552Y-71974580D02*
X79594171Y-71879342D01*
X79594171Y-71879342D02*
X79594171Y-71593628D01*
X79594171Y-71593628D02*
X79546552Y-71498390D01*
X79546552Y-71498390D02*
X79498933Y-71450771D01*
X79498933Y-71450771D02*
X79403695Y-71403152D01*
X79403695Y-71403152D02*
X79213219Y-71403152D01*
X79213219Y-71403152D02*
X79117981Y-71450771D01*
X78641790Y-71403152D02*
X78641790Y-72403152D01*
X78641790Y-71450771D02*
X78546552Y-71403152D01*
X78546552Y-71403152D02*
X78356076Y-71403152D01*
X78356076Y-71403152D02*
X78260838Y-71450771D01*
X78260838Y-71450771D02*
X78213219Y-71498390D01*
X78213219Y-71498390D02*
X78165600Y-71593628D01*
X78165600Y-71593628D02*
X78165600Y-71879342D01*
X78165600Y-71879342D02*
X78213219Y-71974580D01*
X78213219Y-71974580D02*
X78260838Y-72022200D01*
X78260838Y-72022200D02*
X78356076Y-72069819D01*
X78356076Y-72069819D02*
X78546552Y-72069819D01*
X78546552Y-72069819D02*
X78641790Y-72022200D01*
X77737028Y-72069819D02*
X77737028Y-71069819D01*
X77308457Y-72069819D02*
X77308457Y-71546009D01*
X77308457Y-71546009D02*
X77356076Y-71450771D01*
X77356076Y-71450771D02*
X77451314Y-71403152D01*
X77451314Y-71403152D02*
X77594171Y-71403152D01*
X77594171Y-71403152D02*
X77689409Y-71450771D01*
X77689409Y-71450771D02*
X77737028Y-71498390D01*
X76689409Y-72069819D02*
X76784647Y-72022200D01*
X76784647Y-72022200D02*
X76832266Y-71974580D01*
X76832266Y-71974580D02*
X76879885Y-71879342D01*
X76879885Y-71879342D02*
X76879885Y-71593628D01*
X76879885Y-71593628D02*
X76832266Y-71498390D01*
X76832266Y-71498390D02*
X76784647Y-71450771D01*
X76784647Y-71450771D02*
X76689409Y-71403152D01*
X76689409Y-71403152D02*
X76546552Y-71403152D01*
X76546552Y-71403152D02*
X76451314Y-71450771D01*
X76451314Y-71450771D02*
X76403695Y-71498390D01*
X76403695Y-71498390D02*
X76356076Y-71593628D01*
X76356076Y-71593628D02*
X76356076Y-71879342D01*
X76356076Y-71879342D02*
X76403695Y-71974580D01*
X76403695Y-71974580D02*
X76451314Y-72022200D01*
X76451314Y-72022200D02*
X76546552Y-72069819D01*
X76546552Y-72069819D02*
X76689409Y-72069819D01*
X75927504Y-71403152D02*
X75927504Y-72069819D01*
X75927504Y-71498390D02*
X75879885Y-71450771D01*
X75879885Y-71450771D02*
X75784647Y-71403152D01*
X75784647Y-71403152D02*
X75641790Y-71403152D01*
X75641790Y-71403152D02*
X75546552Y-71450771D01*
X75546552Y-71450771D02*
X75498933Y-71546009D01*
X75498933Y-71546009D02*
X75498933Y-72069819D01*
X74641790Y-72022200D02*
X74737028Y-72069819D01*
X74737028Y-72069819D02*
X74927504Y-72069819D01*
X74927504Y-72069819D02*
X75022742Y-72022200D01*
X75022742Y-72022200D02*
X75070361Y-71926961D01*
X75070361Y-71926961D02*
X75070361Y-71546009D01*
X75070361Y-71546009D02*
X75022742Y-71450771D01*
X75022742Y-71450771D02*
X74927504Y-71403152D01*
X74927504Y-71403152D02*
X74737028Y-71403152D01*
X74737028Y-71403152D02*
X74641790Y-71450771D01*
X74641790Y-71450771D02*
X74594171Y-71546009D01*
X74594171Y-71546009D02*
X74594171Y-71641247D01*
X74594171Y-71641247D02*
X75070361Y-71736485D01*
X97402506Y-114294819D02*
X97402506Y-115009104D01*
X97402506Y-115009104D02*
X97450125Y-115151961D01*
X97450125Y-115151961D02*
X97545363Y-115247200D01*
X97545363Y-115247200D02*
X97688220Y-115294819D01*
X97688220Y-115294819D02*
X97783458Y-115294819D01*
X96402506Y-115294819D02*
X96973934Y-115294819D01*
X96688220Y-115294819D02*
X96688220Y-114294819D01*
X96688220Y-114294819D02*
X96783458Y-114437676D01*
X96783458Y-114437676D02*
X96878696Y-114532914D01*
X96878696Y-114532914D02*
X96973934Y-114580533D01*
X146110839Y-63902592D02*
X145967982Y-63950211D01*
X145967982Y-63950211D02*
X145729887Y-63950211D01*
X145729887Y-63950211D02*
X145634649Y-63902592D01*
X145634649Y-63902592D02*
X145587030Y-63854972D01*
X145587030Y-63854972D02*
X145539411Y-63759734D01*
X145539411Y-63759734D02*
X145539411Y-63664496D01*
X145539411Y-63664496D02*
X145587030Y-63569258D01*
X145587030Y-63569258D02*
X145634649Y-63521639D01*
X145634649Y-63521639D02*
X145729887Y-63474020D01*
X145729887Y-63474020D02*
X145920363Y-63426401D01*
X145920363Y-63426401D02*
X146015601Y-63378782D01*
X146015601Y-63378782D02*
X146063220Y-63331163D01*
X146063220Y-63331163D02*
X146110839Y-63235925D01*
X146110839Y-63235925D02*
X146110839Y-63140687D01*
X146110839Y-63140687D02*
X146063220Y-63045449D01*
X146063220Y-63045449D02*
X146015601Y-62997830D01*
X146015601Y-62997830D02*
X145920363Y-62950211D01*
X145920363Y-62950211D02*
X145682268Y-62950211D01*
X145682268Y-62950211D02*
X145539411Y-62997830D01*
X144682268Y-63283544D02*
X144682268Y-64283544D01*
X144682268Y-63902592D02*
X144777506Y-63950211D01*
X144777506Y-63950211D02*
X144967982Y-63950211D01*
X144967982Y-63950211D02*
X145063220Y-63902592D01*
X145063220Y-63902592D02*
X145110839Y-63854972D01*
X145110839Y-63854972D02*
X145158458Y-63759734D01*
X145158458Y-63759734D02*
X145158458Y-63474020D01*
X145158458Y-63474020D02*
X145110839Y-63378782D01*
X145110839Y-63378782D02*
X145063220Y-63331163D01*
X145063220Y-63331163D02*
X144967982Y-63283544D01*
X144967982Y-63283544D02*
X144777506Y-63283544D01*
X144777506Y-63283544D02*
X144682268Y-63331163D01*
X143777506Y-63283544D02*
X143777506Y-63950211D01*
X144206077Y-63283544D02*
X144206077Y-63807353D01*
X144206077Y-63807353D02*
X144158458Y-63902592D01*
X144158458Y-63902592D02*
X144063220Y-63950211D01*
X144063220Y-63950211D02*
X143920363Y-63950211D01*
X143920363Y-63950211D02*
X143825125Y-63902592D01*
X143825125Y-63902592D02*
X143777506Y-63854972D01*
X143301315Y-63950211D02*
X143301315Y-63283544D01*
X143301315Y-62950211D02*
X143348934Y-62997830D01*
X143348934Y-62997830D02*
X143301315Y-63045449D01*
X143301315Y-63045449D02*
X143253696Y-62997830D01*
X143253696Y-62997830D02*
X143301315Y-62950211D01*
X143301315Y-62950211D02*
X143301315Y-63045449D01*
X142872744Y-63902592D02*
X142777506Y-63950211D01*
X142777506Y-63950211D02*
X142587030Y-63950211D01*
X142587030Y-63950211D02*
X142491792Y-63902592D01*
X142491792Y-63902592D02*
X142444173Y-63807353D01*
X142444173Y-63807353D02*
X142444173Y-63759734D01*
X142444173Y-63759734D02*
X142491792Y-63664496D01*
X142491792Y-63664496D02*
X142587030Y-63616877D01*
X142587030Y-63616877D02*
X142729887Y-63616877D01*
X142729887Y-63616877D02*
X142825125Y-63569258D01*
X142825125Y-63569258D02*
X142872744Y-63474020D01*
X142872744Y-63474020D02*
X142872744Y-63426401D01*
X142872744Y-63426401D02*
X142825125Y-63331163D01*
X142825125Y-63331163D02*
X142729887Y-63283544D01*
X142729887Y-63283544D02*
X142587030Y-63283544D01*
X142587030Y-63283544D02*
X142491792Y-63331163D01*
X142015601Y-63950211D02*
X142015601Y-62950211D01*
X141587030Y-63950211D02*
X141587030Y-63426401D01*
X141587030Y-63426401D02*
X141634649Y-63331163D01*
X141634649Y-63331163D02*
X141729887Y-63283544D01*
X141729887Y-63283544D02*
X141872744Y-63283544D01*
X141872744Y-63283544D02*
X141967982Y-63331163D01*
X141967982Y-63331163D02*
X142015601Y-63378782D01*
X140777506Y-63426401D02*
X140634649Y-63474020D01*
X140634649Y-63474020D02*
X140587030Y-63521639D01*
X140587030Y-63521639D02*
X140539411Y-63616877D01*
X140539411Y-63616877D02*
X140539411Y-63759734D01*
X140539411Y-63759734D02*
X140587030Y-63854972D01*
X140587030Y-63854972D02*
X140634649Y-63902592D01*
X140634649Y-63902592D02*
X140729887Y-63950211D01*
X140729887Y-63950211D02*
X141110839Y-63950211D01*
X141110839Y-63950211D02*
X141110839Y-62950211D01*
X141110839Y-62950211D02*
X140777506Y-62950211D01*
X140777506Y-62950211D02*
X140682268Y-62997830D01*
X140682268Y-62997830D02*
X140634649Y-63045449D01*
X140634649Y-63045449D02*
X140587030Y-63140687D01*
X140587030Y-63140687D02*
X140587030Y-63235925D01*
X140587030Y-63235925D02*
X140634649Y-63331163D01*
X140634649Y-63331163D02*
X140682268Y-63378782D01*
X140682268Y-63378782D02*
X140777506Y-63426401D01*
X140777506Y-63426401D02*
X141110839Y-63426401D01*
X139967982Y-63950211D02*
X140063220Y-63902592D01*
X140063220Y-63902592D02*
X140110839Y-63854972D01*
X140110839Y-63854972D02*
X140158458Y-63759734D01*
X140158458Y-63759734D02*
X140158458Y-63474020D01*
X140158458Y-63474020D02*
X140110839Y-63378782D01*
X140110839Y-63378782D02*
X140063220Y-63331163D01*
X140063220Y-63331163D02*
X139967982Y-63283544D01*
X139967982Y-63283544D02*
X139825125Y-63283544D01*
X139825125Y-63283544D02*
X139729887Y-63331163D01*
X139729887Y-63331163D02*
X139682268Y-63378782D01*
X139682268Y-63378782D02*
X139634649Y-63474020D01*
X139634649Y-63474020D02*
X139634649Y-63759734D01*
X139634649Y-63759734D02*
X139682268Y-63854972D01*
X139682268Y-63854972D02*
X139729887Y-63902592D01*
X139729887Y-63902592D02*
X139825125Y-63950211D01*
X139825125Y-63950211D02*
X139967982Y-63950211D01*
X139301315Y-63950211D02*
X138777506Y-63283544D01*
X139301315Y-63283544D02*
X138777506Y-63950211D01*
X137729886Y-63283544D02*
X137491791Y-63950211D01*
X137491791Y-63950211D02*
X137253696Y-63283544D01*
X136729886Y-63378782D02*
X136825124Y-63331163D01*
X136825124Y-63331163D02*
X136872743Y-63283544D01*
X136872743Y-63283544D02*
X136920362Y-63188306D01*
X136920362Y-63188306D02*
X136920362Y-63140687D01*
X136920362Y-63140687D02*
X136872743Y-63045449D01*
X136872743Y-63045449D02*
X136825124Y-62997830D01*
X136825124Y-62997830D02*
X136729886Y-62950211D01*
X136729886Y-62950211D02*
X136539410Y-62950211D01*
X136539410Y-62950211D02*
X136444172Y-62997830D01*
X136444172Y-62997830D02*
X136396553Y-63045449D01*
X136396553Y-63045449D02*
X136348934Y-63140687D01*
X136348934Y-63140687D02*
X136348934Y-63188306D01*
X136348934Y-63188306D02*
X136396553Y-63283544D01*
X136396553Y-63283544D02*
X136444172Y-63331163D01*
X136444172Y-63331163D02*
X136539410Y-63378782D01*
X136539410Y-63378782D02*
X136729886Y-63378782D01*
X136729886Y-63378782D02*
X136825124Y-63426401D01*
X136825124Y-63426401D02*
X136872743Y-63474020D01*
X136872743Y-63474020D02*
X136920362Y-63569258D01*
X136920362Y-63569258D02*
X136920362Y-63759734D01*
X136920362Y-63759734D02*
X136872743Y-63854972D01*
X136872743Y-63854972D02*
X136825124Y-63902592D01*
X136825124Y-63902592D02*
X136729886Y-63950211D01*
X136729886Y-63950211D02*
X136539410Y-63950211D01*
X136539410Y-63950211D02*
X136444172Y-63902592D01*
X136444172Y-63902592D02*
X136396553Y-63854972D01*
X136396553Y-63854972D02*
X136348934Y-63759734D01*
X136348934Y-63759734D02*
X136348934Y-63569258D01*
X136348934Y-63569258D02*
X136396553Y-63474020D01*
X136396553Y-63474020D02*
X136444172Y-63426401D01*
X136444172Y-63426401D02*
X136539410Y-63378782D01*
X135920362Y-63854972D02*
X135872743Y-63902592D01*
X135872743Y-63902592D02*
X135920362Y-63950211D01*
X135920362Y-63950211D02*
X135967981Y-63902592D01*
X135967981Y-63902592D02*
X135920362Y-63854972D01*
X135920362Y-63854972D02*
X135920362Y-63950211D01*
X134920363Y-63950211D02*
X135491791Y-63950211D01*
X135206077Y-63950211D02*
X135206077Y-62950211D01*
X135206077Y-62950211D02*
X135301315Y-63093068D01*
X135301315Y-63093068D02*
X135396553Y-63188306D01*
X135396553Y-63188306D02*
X135491791Y-63235925D01*
X145634649Y-64893488D02*
X145634649Y-65703012D01*
X145634649Y-65703012D02*
X145682268Y-65798250D01*
X145682268Y-65798250D02*
X145729887Y-65845869D01*
X145729887Y-65845869D02*
X145825125Y-65893488D01*
X145825125Y-65893488D02*
X145967982Y-65893488D01*
X145967982Y-65893488D02*
X146063220Y-65845869D01*
X145634649Y-65512536D02*
X145729887Y-65560155D01*
X145729887Y-65560155D02*
X145920363Y-65560155D01*
X145920363Y-65560155D02*
X146015601Y-65512536D01*
X146015601Y-65512536D02*
X146063220Y-65464916D01*
X146063220Y-65464916D02*
X146110839Y-65369678D01*
X146110839Y-65369678D02*
X146110839Y-65083964D01*
X146110839Y-65083964D02*
X146063220Y-64988726D01*
X146063220Y-64988726D02*
X146015601Y-64941107D01*
X146015601Y-64941107D02*
X145920363Y-64893488D01*
X145920363Y-64893488D02*
X145729887Y-64893488D01*
X145729887Y-64893488D02*
X145634649Y-64941107D01*
X144777506Y-65512536D02*
X144872744Y-65560155D01*
X144872744Y-65560155D02*
X145063220Y-65560155D01*
X145063220Y-65560155D02*
X145158458Y-65512536D01*
X145158458Y-65512536D02*
X145206077Y-65417297D01*
X145206077Y-65417297D02*
X145206077Y-65036345D01*
X145206077Y-65036345D02*
X145158458Y-64941107D01*
X145158458Y-64941107D02*
X145063220Y-64893488D01*
X145063220Y-64893488D02*
X144872744Y-64893488D01*
X144872744Y-64893488D02*
X144777506Y-64941107D01*
X144777506Y-64941107D02*
X144729887Y-65036345D01*
X144729887Y-65036345D02*
X144729887Y-65131583D01*
X144729887Y-65131583D02*
X145206077Y-65226821D01*
X143920363Y-65512536D02*
X144015601Y-65560155D01*
X144015601Y-65560155D02*
X144206077Y-65560155D01*
X144206077Y-65560155D02*
X144301315Y-65512536D01*
X144301315Y-65512536D02*
X144348934Y-65417297D01*
X144348934Y-65417297D02*
X144348934Y-65036345D01*
X144348934Y-65036345D02*
X144301315Y-64941107D01*
X144301315Y-64941107D02*
X144206077Y-64893488D01*
X144206077Y-64893488D02*
X144015601Y-64893488D01*
X144015601Y-64893488D02*
X143920363Y-64941107D01*
X143920363Y-64941107D02*
X143872744Y-65036345D01*
X143872744Y-65036345D02*
X143872744Y-65131583D01*
X143872744Y-65131583D02*
X144348934Y-65226821D01*
X143444172Y-65560155D02*
X143444172Y-64560155D01*
X143348934Y-65179202D02*
X143063220Y-65560155D01*
X143063220Y-64893488D02*
X143444172Y-65274440D01*
X142777505Y-64893488D02*
X142396553Y-64893488D01*
X142634648Y-65560155D02*
X142634648Y-64703012D01*
X142634648Y-64703012D02*
X142587029Y-64607774D01*
X142587029Y-64607774D02*
X142491791Y-64560155D01*
X142491791Y-64560155D02*
X142396553Y-64560155D01*
X141634648Y-64893488D02*
X141634648Y-65560155D01*
X142063219Y-64893488D02*
X142063219Y-65417297D01*
X142063219Y-65417297D02*
X142015600Y-65512536D01*
X142015600Y-65512536D02*
X141920362Y-65560155D01*
X141920362Y-65560155D02*
X141777505Y-65560155D01*
X141777505Y-65560155D02*
X141682267Y-65512536D01*
X141682267Y-65512536D02*
X141634648Y-65464916D01*
X141158457Y-64893488D02*
X141158457Y-65560155D01*
X141158457Y-64988726D02*
X141110838Y-64941107D01*
X141110838Y-64941107D02*
X141015600Y-64893488D01*
X141015600Y-64893488D02*
X140872743Y-64893488D01*
X140872743Y-64893488D02*
X140777505Y-64941107D01*
X140777505Y-64941107D02*
X140729886Y-65036345D01*
X140729886Y-65036345D02*
X140729886Y-65560155D01*
X140253695Y-65560155D02*
X140253695Y-64560155D01*
X140158457Y-65179202D02*
X139872743Y-65560155D01*
X139872743Y-64893488D02*
X140253695Y-65274440D01*
X139301314Y-65560155D02*
X139396552Y-65512536D01*
X139396552Y-65512536D02*
X139444171Y-65417297D01*
X139444171Y-65417297D02*
X139444171Y-64560155D01*
X138491790Y-65560155D02*
X138491790Y-65036345D01*
X138491790Y-65036345D02*
X138539409Y-64941107D01*
X138539409Y-64941107D02*
X138634647Y-64893488D01*
X138634647Y-64893488D02*
X138825123Y-64893488D01*
X138825123Y-64893488D02*
X138920361Y-64941107D01*
X138491790Y-65512536D02*
X138587028Y-65560155D01*
X138587028Y-65560155D02*
X138825123Y-65560155D01*
X138825123Y-65560155D02*
X138920361Y-65512536D01*
X138920361Y-65512536D02*
X138967980Y-65417297D01*
X138967980Y-65417297D02*
X138967980Y-65322059D01*
X138967980Y-65322059D02*
X138920361Y-65226821D01*
X138920361Y-65226821D02*
X138825123Y-65179202D01*
X138825123Y-65179202D02*
X138587028Y-65179202D01*
X138587028Y-65179202D02*
X138491790Y-65131583D01*
X138015599Y-65560155D02*
X138015599Y-64560155D01*
X138015599Y-64941107D02*
X137920361Y-64893488D01*
X137920361Y-64893488D02*
X137729885Y-64893488D01*
X137729885Y-64893488D02*
X137634647Y-64941107D01*
X137634647Y-64941107D02*
X137587028Y-64988726D01*
X137587028Y-64988726D02*
X137539409Y-65083964D01*
X137539409Y-65083964D02*
X137539409Y-65369678D01*
X137539409Y-65369678D02*
X137587028Y-65464916D01*
X137587028Y-65464916D02*
X137634647Y-65512536D01*
X137634647Y-65512536D02*
X137729885Y-65560155D01*
X137729885Y-65560155D02*
X137920361Y-65560155D01*
X137920361Y-65560155D02*
X138015599Y-65512536D01*
X137158456Y-65512536D02*
X137063218Y-65560155D01*
X137063218Y-65560155D02*
X136872742Y-65560155D01*
X136872742Y-65560155D02*
X136777504Y-65512536D01*
X136777504Y-65512536D02*
X136729885Y-65417297D01*
X136729885Y-65417297D02*
X136729885Y-65369678D01*
X136729885Y-65369678D02*
X136777504Y-65274440D01*
X136777504Y-65274440D02*
X136872742Y-65226821D01*
X136872742Y-65226821D02*
X137015599Y-65226821D01*
X137015599Y-65226821D02*
X137110837Y-65179202D01*
X137110837Y-65179202D02*
X137158456Y-65083964D01*
X137158456Y-65083964D02*
X137158456Y-65036345D01*
X137158456Y-65036345D02*
X137110837Y-64941107D01*
X137110837Y-64941107D02*
X137015599Y-64893488D01*
X137015599Y-64893488D02*
X136872742Y-64893488D01*
X136872742Y-64893488D02*
X136777504Y-64941107D01*
X136301313Y-65464916D02*
X136253694Y-65512536D01*
X136253694Y-65512536D02*
X136301313Y-65560155D01*
X136301313Y-65560155D02*
X136348932Y-65512536D01*
X136348932Y-65512536D02*
X136301313Y-65464916D01*
X136301313Y-65464916D02*
X136301313Y-65560155D01*
X135396552Y-65512536D02*
X135491790Y-65560155D01*
X135491790Y-65560155D02*
X135682266Y-65560155D01*
X135682266Y-65560155D02*
X135777504Y-65512536D01*
X135777504Y-65512536D02*
X135825123Y-65464916D01*
X135825123Y-65464916D02*
X135872742Y-65369678D01*
X135872742Y-65369678D02*
X135872742Y-65083964D01*
X135872742Y-65083964D02*
X135825123Y-64988726D01*
X135825123Y-64988726D02*
X135777504Y-64941107D01*
X135777504Y-64941107D02*
X135682266Y-64893488D01*
X135682266Y-64893488D02*
X135491790Y-64893488D01*
X135491790Y-64893488D02*
X135396552Y-64941107D01*
X134825123Y-65560155D02*
X134920361Y-65512536D01*
X134920361Y-65512536D02*
X134967980Y-65464916D01*
X134967980Y-65464916D02*
X135015599Y-65369678D01*
X135015599Y-65369678D02*
X135015599Y-65083964D01*
X135015599Y-65083964D02*
X134967980Y-64988726D01*
X134967980Y-64988726D02*
X134920361Y-64941107D01*
X134920361Y-64941107D02*
X134825123Y-64893488D01*
X134825123Y-64893488D02*
X134682266Y-64893488D01*
X134682266Y-64893488D02*
X134587028Y-64941107D01*
X134587028Y-64941107D02*
X134539409Y-64988726D01*
X134539409Y-64988726D02*
X134491790Y-65083964D01*
X134491790Y-65083964D02*
X134491790Y-65369678D01*
X134491790Y-65369678D02*
X134539409Y-65464916D01*
X134539409Y-65464916D02*
X134587028Y-65512536D01*
X134587028Y-65512536D02*
X134682266Y-65560155D01*
X134682266Y-65560155D02*
X134825123Y-65560155D01*
X134063218Y-65560155D02*
X134063218Y-64893488D01*
X134063218Y-64988726D02*
X134015599Y-64941107D01*
X134015599Y-64941107D02*
X133920361Y-64893488D01*
X133920361Y-64893488D02*
X133777504Y-64893488D01*
X133777504Y-64893488D02*
X133682266Y-64941107D01*
X133682266Y-64941107D02*
X133634647Y-65036345D01*
X133634647Y-65036345D02*
X133634647Y-65560155D01*
X133634647Y-65036345D02*
X133587028Y-64941107D01*
X133587028Y-64941107D02*
X133491790Y-64893488D01*
X133491790Y-64893488D02*
X133348933Y-64893488D01*
X133348933Y-64893488D02*
X133253694Y-64941107D01*
X133253694Y-64941107D02*
X133206075Y-65036345D01*
X133206075Y-65036345D02*
X133206075Y-65560155D01*
X146063220Y-68780043D02*
X146063220Y-67780043D01*
X146063220Y-67780043D02*
X145729887Y-68494328D01*
X145729887Y-68494328D02*
X145396554Y-67780043D01*
X145396554Y-67780043D02*
X145396554Y-68780043D01*
X144920363Y-68780043D02*
X144920363Y-67780043D01*
X144444173Y-68780043D02*
X144444173Y-67780043D01*
X144444173Y-67780043D02*
X144206078Y-67780043D01*
X144206078Y-67780043D02*
X144063221Y-67827662D01*
X144063221Y-67827662D02*
X143967983Y-67922900D01*
X143967983Y-67922900D02*
X143920364Y-68018138D01*
X143920364Y-68018138D02*
X143872745Y-68208614D01*
X143872745Y-68208614D02*
X143872745Y-68351471D01*
X143872745Y-68351471D02*
X143920364Y-68541947D01*
X143920364Y-68541947D02*
X143967983Y-68637185D01*
X143967983Y-68637185D02*
X144063221Y-68732424D01*
X144063221Y-68732424D02*
X144206078Y-68780043D01*
X144206078Y-68780043D02*
X144444173Y-68780043D01*
X143444173Y-68780043D02*
X143444173Y-67780043D01*
X142206078Y-68780043D02*
X142206078Y-68113376D01*
X142206078Y-68208614D02*
X142158459Y-68160995D01*
X142158459Y-68160995D02*
X142063221Y-68113376D01*
X142063221Y-68113376D02*
X141920364Y-68113376D01*
X141920364Y-68113376D02*
X141825126Y-68160995D01*
X141825126Y-68160995D02*
X141777507Y-68256233D01*
X141777507Y-68256233D02*
X141777507Y-68780043D01*
X141777507Y-68256233D02*
X141729888Y-68160995D01*
X141729888Y-68160995D02*
X141634650Y-68113376D01*
X141634650Y-68113376D02*
X141491793Y-68113376D01*
X141491793Y-68113376D02*
X141396554Y-68160995D01*
X141396554Y-68160995D02*
X141348935Y-68256233D01*
X141348935Y-68256233D02*
X141348935Y-68780043D01*
X140872745Y-68780043D02*
X140872745Y-68113376D01*
X140872745Y-67780043D02*
X140920364Y-67827662D01*
X140920364Y-67827662D02*
X140872745Y-67875281D01*
X140872745Y-67875281D02*
X140825126Y-67827662D01*
X140825126Y-67827662D02*
X140872745Y-67780043D01*
X140872745Y-67780043D02*
X140872745Y-67875281D01*
X140396555Y-68113376D02*
X140396555Y-68780043D01*
X140396555Y-68208614D02*
X140348936Y-68160995D01*
X140348936Y-68160995D02*
X140253698Y-68113376D01*
X140253698Y-68113376D02*
X140110841Y-68113376D01*
X140110841Y-68113376D02*
X140015603Y-68160995D01*
X140015603Y-68160995D02*
X139967984Y-68256233D01*
X139967984Y-68256233D02*
X139967984Y-68780043D01*
X139491793Y-68780043D02*
X139491793Y-68113376D01*
X139491793Y-67780043D02*
X139539412Y-67827662D01*
X139539412Y-67827662D02*
X139491793Y-67875281D01*
X139491793Y-67875281D02*
X139444174Y-67827662D01*
X139444174Y-67827662D02*
X139491793Y-67780043D01*
X139491793Y-67780043D02*
X139491793Y-67875281D01*
X139015603Y-68113376D02*
X139015603Y-68970519D01*
X139015603Y-68970519D02*
X139063222Y-69065757D01*
X139063222Y-69065757D02*
X139158460Y-69113376D01*
X139158460Y-69113376D02*
X139206079Y-69113376D01*
X139015603Y-67780043D02*
X139063222Y-67827662D01*
X139063222Y-67827662D02*
X139015603Y-67875281D01*
X139015603Y-67875281D02*
X138967984Y-67827662D01*
X138967984Y-67827662D02*
X139015603Y-67780043D01*
X139015603Y-67780043D02*
X139015603Y-67875281D01*
X138110842Y-68780043D02*
X138110842Y-68256233D01*
X138110842Y-68256233D02*
X138158461Y-68160995D01*
X138158461Y-68160995D02*
X138253699Y-68113376D01*
X138253699Y-68113376D02*
X138444175Y-68113376D01*
X138444175Y-68113376D02*
X138539413Y-68160995D01*
X138110842Y-68732424D02*
X138206080Y-68780043D01*
X138206080Y-68780043D02*
X138444175Y-68780043D01*
X138444175Y-68780043D02*
X138539413Y-68732424D01*
X138539413Y-68732424D02*
X138587032Y-68637185D01*
X138587032Y-68637185D02*
X138587032Y-68541947D01*
X138587032Y-68541947D02*
X138539413Y-68446709D01*
X138539413Y-68446709D02*
X138444175Y-68399090D01*
X138444175Y-68399090D02*
X138206080Y-68399090D01*
X138206080Y-68399090D02*
X138110842Y-68351471D01*
X137206080Y-68732424D02*
X137301318Y-68780043D01*
X137301318Y-68780043D02*
X137491794Y-68780043D01*
X137491794Y-68780043D02*
X137587032Y-68732424D01*
X137587032Y-68732424D02*
X137634651Y-68684804D01*
X137634651Y-68684804D02*
X137682270Y-68589566D01*
X137682270Y-68589566D02*
X137682270Y-68303852D01*
X137682270Y-68303852D02*
X137634651Y-68208614D01*
X137634651Y-68208614D02*
X137587032Y-68160995D01*
X137587032Y-68160995D02*
X137491794Y-68113376D01*
X137491794Y-68113376D02*
X137301318Y-68113376D01*
X137301318Y-68113376D02*
X137206080Y-68160995D01*
X136777508Y-68780043D02*
X136777508Y-67780043D01*
X136682270Y-68399090D02*
X136396556Y-68780043D01*
X136396556Y-68113376D02*
X136777508Y-68494328D01*
X146063220Y-69723320D02*
X146063220Y-70580463D01*
X146063220Y-70580463D02*
X146110839Y-70675701D01*
X146110839Y-70675701D02*
X146206077Y-70723320D01*
X146206077Y-70723320D02*
X146253696Y-70723320D01*
X146063220Y-69389987D02*
X146110839Y-69437606D01*
X146110839Y-69437606D02*
X146063220Y-69485225D01*
X146063220Y-69485225D02*
X146015601Y-69437606D01*
X146015601Y-69437606D02*
X146063220Y-69389987D01*
X146063220Y-69389987D02*
X146063220Y-69485225D01*
X145158459Y-69723320D02*
X145158459Y-70389987D01*
X145587030Y-69723320D02*
X145587030Y-70247129D01*
X145587030Y-70247129D02*
X145539411Y-70342368D01*
X145539411Y-70342368D02*
X145444173Y-70389987D01*
X145444173Y-70389987D02*
X145301316Y-70389987D01*
X145301316Y-70389987D02*
X145206078Y-70342368D01*
X145206078Y-70342368D02*
X145158459Y-70294748D01*
X144682268Y-70389987D02*
X144682268Y-69723320D01*
X144682268Y-69818558D02*
X144634649Y-69770939D01*
X144634649Y-69770939D02*
X144539411Y-69723320D01*
X144539411Y-69723320D02*
X144396554Y-69723320D01*
X144396554Y-69723320D02*
X144301316Y-69770939D01*
X144301316Y-69770939D02*
X144253697Y-69866177D01*
X144253697Y-69866177D02*
X144253697Y-70389987D01*
X144253697Y-69866177D02*
X144206078Y-69770939D01*
X144206078Y-69770939D02*
X144110840Y-69723320D01*
X144110840Y-69723320D02*
X143967983Y-69723320D01*
X143967983Y-69723320D02*
X143872744Y-69770939D01*
X143872744Y-69770939D02*
X143825125Y-69866177D01*
X143825125Y-69866177D02*
X143825125Y-70389987D01*
X143348935Y-69723320D02*
X143348935Y-70723320D01*
X143348935Y-69770939D02*
X143253697Y-69723320D01*
X143253697Y-69723320D02*
X143063221Y-69723320D01*
X143063221Y-69723320D02*
X142967983Y-69770939D01*
X142967983Y-69770939D02*
X142920364Y-69818558D01*
X142920364Y-69818558D02*
X142872745Y-69913796D01*
X142872745Y-69913796D02*
X142872745Y-70199510D01*
X142872745Y-70199510D02*
X142920364Y-70294748D01*
X142920364Y-70294748D02*
X142967983Y-70342368D01*
X142967983Y-70342368D02*
X143063221Y-70389987D01*
X143063221Y-70389987D02*
X143253697Y-70389987D01*
X143253697Y-70389987D02*
X143348935Y-70342368D01*
X142063221Y-70342368D02*
X142158459Y-70389987D01*
X142158459Y-70389987D02*
X142348935Y-70389987D01*
X142348935Y-70389987D02*
X142444173Y-70342368D01*
X142444173Y-70342368D02*
X142491792Y-70247129D01*
X142491792Y-70247129D02*
X142491792Y-69866177D01*
X142491792Y-69866177D02*
X142444173Y-69770939D01*
X142444173Y-69770939D02*
X142348935Y-69723320D01*
X142348935Y-69723320D02*
X142158459Y-69723320D01*
X142158459Y-69723320D02*
X142063221Y-69770939D01*
X142063221Y-69770939D02*
X142015602Y-69866177D01*
X142015602Y-69866177D02*
X142015602Y-69961415D01*
X142015602Y-69961415D02*
X142491792Y-70056653D01*
X141587030Y-70389987D02*
X141587030Y-69723320D01*
X141587030Y-69913796D02*
X141539411Y-69818558D01*
X141539411Y-69818558D02*
X141491792Y-69770939D01*
X141491792Y-69770939D02*
X141396554Y-69723320D01*
X141396554Y-69723320D02*
X141301316Y-69723320D01*
X140253696Y-70342368D02*
X140158458Y-70389987D01*
X140158458Y-70389987D02*
X139967982Y-70389987D01*
X139967982Y-70389987D02*
X139872744Y-70342368D01*
X139872744Y-70342368D02*
X139825125Y-70247129D01*
X139825125Y-70247129D02*
X139825125Y-70199510D01*
X139825125Y-70199510D02*
X139872744Y-70104272D01*
X139872744Y-70104272D02*
X139967982Y-70056653D01*
X139967982Y-70056653D02*
X140110839Y-70056653D01*
X140110839Y-70056653D02*
X140206077Y-70009034D01*
X140206077Y-70009034D02*
X140253696Y-69913796D01*
X140253696Y-69913796D02*
X140253696Y-69866177D01*
X140253696Y-69866177D02*
X140206077Y-69770939D01*
X140206077Y-69770939D02*
X140110839Y-69723320D01*
X140110839Y-69723320D02*
X139967982Y-69723320D01*
X139967982Y-69723320D02*
X139872744Y-69770939D01*
X139015601Y-70342368D02*
X139110839Y-70389987D01*
X139110839Y-70389987D02*
X139301315Y-70389987D01*
X139301315Y-70389987D02*
X139396553Y-70342368D01*
X139396553Y-70342368D02*
X139444172Y-70247129D01*
X139444172Y-70247129D02*
X139444172Y-69866177D01*
X139444172Y-69866177D02*
X139396553Y-69770939D01*
X139396553Y-69770939D02*
X139301315Y-69723320D01*
X139301315Y-69723320D02*
X139110839Y-69723320D01*
X139110839Y-69723320D02*
X139015601Y-69770939D01*
X139015601Y-69770939D02*
X138967982Y-69866177D01*
X138967982Y-69866177D02*
X138967982Y-69961415D01*
X138967982Y-69961415D02*
X139444172Y-70056653D01*
X138682267Y-69723320D02*
X138301315Y-69723320D01*
X138539410Y-69389987D02*
X138539410Y-70247129D01*
X138539410Y-70247129D02*
X138491791Y-70342368D01*
X138491791Y-70342368D02*
X138396553Y-70389987D01*
X138396553Y-70389987D02*
X138301315Y-70389987D01*
X138110838Y-69723320D02*
X137729886Y-69723320D01*
X137967981Y-69389987D02*
X137967981Y-70247129D01*
X137967981Y-70247129D02*
X137920362Y-70342368D01*
X137920362Y-70342368D02*
X137825124Y-70389987D01*
X137825124Y-70389987D02*
X137729886Y-70389987D01*
X137396552Y-70389987D02*
X137396552Y-69723320D01*
X137396552Y-69389987D02*
X137444171Y-69437606D01*
X137444171Y-69437606D02*
X137396552Y-69485225D01*
X137396552Y-69485225D02*
X137348933Y-69437606D01*
X137348933Y-69437606D02*
X137396552Y-69389987D01*
X137396552Y-69389987D02*
X137396552Y-69485225D01*
X136920362Y-69723320D02*
X136920362Y-70389987D01*
X136920362Y-69818558D02*
X136872743Y-69770939D01*
X136872743Y-69770939D02*
X136777505Y-69723320D01*
X136777505Y-69723320D02*
X136634648Y-69723320D01*
X136634648Y-69723320D02*
X136539410Y-69770939D01*
X136539410Y-69770939D02*
X136491791Y-69866177D01*
X136491791Y-69866177D02*
X136491791Y-70389987D01*
X135587029Y-69723320D02*
X135587029Y-70532844D01*
X135587029Y-70532844D02*
X135634648Y-70628082D01*
X135634648Y-70628082D02*
X135682267Y-70675701D01*
X135682267Y-70675701D02*
X135777505Y-70723320D01*
X135777505Y-70723320D02*
X135920362Y-70723320D01*
X135920362Y-70723320D02*
X136015600Y-70675701D01*
X135587029Y-70342368D02*
X135682267Y-70389987D01*
X135682267Y-70389987D02*
X135872743Y-70389987D01*
X135872743Y-70389987D02*
X135967981Y-70342368D01*
X135967981Y-70342368D02*
X136015600Y-70294748D01*
X136015600Y-70294748D02*
X136063219Y-70199510D01*
X136063219Y-70199510D02*
X136063219Y-69913796D01*
X136063219Y-69913796D02*
X136015600Y-69818558D01*
X136015600Y-69818558D02*
X135967981Y-69770939D01*
X135967981Y-69770939D02*
X135872743Y-69723320D01*
X135872743Y-69723320D02*
X135682267Y-69723320D01*
X135682267Y-69723320D02*
X135587029Y-69770939D01*
X135158457Y-70342368D02*
X135063219Y-70389987D01*
X135063219Y-70389987D02*
X134872743Y-70389987D01*
X134872743Y-70389987D02*
X134777505Y-70342368D01*
X134777505Y-70342368D02*
X134729886Y-70247129D01*
X134729886Y-70247129D02*
X134729886Y-70199510D01*
X134729886Y-70199510D02*
X134777505Y-70104272D01*
X134777505Y-70104272D02*
X134872743Y-70056653D01*
X134872743Y-70056653D02*
X135015600Y-70056653D01*
X135015600Y-70056653D02*
X135110838Y-70009034D01*
X135110838Y-70009034D02*
X135158457Y-69913796D01*
X135158457Y-69913796D02*
X135158457Y-69866177D01*
X135158457Y-69866177D02*
X135110838Y-69770939D01*
X135110838Y-69770939D02*
X135015600Y-69723320D01*
X135015600Y-69723320D02*
X134872743Y-69723320D01*
X134872743Y-69723320D02*
X134777505Y-69770939D01*
X134301314Y-70294748D02*
X134253695Y-70342368D01*
X134253695Y-70342368D02*
X134301314Y-70389987D01*
X134301314Y-70389987D02*
X134348933Y-70342368D01*
X134348933Y-70342368D02*
X134301314Y-70294748D01*
X134301314Y-70294748D02*
X134301314Y-70389987D01*
X134301314Y-69770939D02*
X134253695Y-69818558D01*
X134253695Y-69818558D02*
X134301314Y-69866177D01*
X134301314Y-69866177D02*
X134348933Y-69818558D01*
X134348933Y-69818558D02*
X134301314Y-69770939D01*
X134301314Y-69770939D02*
X134301314Y-69866177D01*
X146206077Y-72609875D02*
X145634649Y-72609875D01*
X145920363Y-73609875D02*
X145920363Y-72609875D01*
X145396553Y-72943208D02*
X145158458Y-73609875D01*
X144920363Y-72943208D02*
X145158458Y-73609875D01*
X145158458Y-73609875D02*
X145253696Y-73847970D01*
X145253696Y-73847970D02*
X145301315Y-73895589D01*
X145301315Y-73895589D02*
X145396553Y-73943208D01*
X144539410Y-72943208D02*
X144539410Y-73943208D01*
X144539410Y-72990827D02*
X144444172Y-72943208D01*
X144444172Y-72943208D02*
X144253696Y-72943208D01*
X144253696Y-72943208D02*
X144158458Y-72990827D01*
X144158458Y-72990827D02*
X144110839Y-73038446D01*
X144110839Y-73038446D02*
X144063220Y-73133684D01*
X144063220Y-73133684D02*
X144063220Y-73419398D01*
X144063220Y-73419398D02*
X144110839Y-73514636D01*
X144110839Y-73514636D02*
X144158458Y-73562256D01*
X144158458Y-73562256D02*
X144253696Y-73609875D01*
X144253696Y-73609875D02*
X144444172Y-73609875D01*
X144444172Y-73609875D02*
X144539410Y-73562256D01*
X143253696Y-73562256D02*
X143348934Y-73609875D01*
X143348934Y-73609875D02*
X143539410Y-73609875D01*
X143539410Y-73609875D02*
X143634648Y-73562256D01*
X143634648Y-73562256D02*
X143682267Y-73467017D01*
X143682267Y-73467017D02*
X143682267Y-73086065D01*
X143682267Y-73086065D02*
X143634648Y-72990827D01*
X143634648Y-72990827D02*
X143539410Y-72943208D01*
X143539410Y-72943208D02*
X143348934Y-72943208D01*
X143348934Y-72943208D02*
X143253696Y-72990827D01*
X143253696Y-72990827D02*
X143206077Y-73086065D01*
X143206077Y-73086065D02*
X143206077Y-73181303D01*
X143206077Y-73181303D02*
X143682267Y-73276541D01*
X142063219Y-73324160D02*
X141587029Y-73324160D01*
X142158457Y-73609875D02*
X141825124Y-72609875D01*
X141825124Y-72609875D02*
X141491791Y-73609875D01*
X141158457Y-73514636D02*
X141110838Y-73562256D01*
X141110838Y-73562256D02*
X141158457Y-73609875D01*
X141158457Y-73609875D02*
X141206076Y-73562256D01*
X141206076Y-73562256D02*
X141158457Y-73514636D01*
X141158457Y-73514636D02*
X141158457Y-73609875D01*
X141158457Y-72990827D02*
X141110838Y-73038446D01*
X141110838Y-73038446D02*
X141158457Y-73086065D01*
X141158457Y-73086065D02*
X141206076Y-73038446D01*
X141206076Y-73038446D02*
X141158457Y-72990827D01*
X141158457Y-72990827D02*
X141158457Y-73086065D01*
X139920362Y-73086065D02*
X139158458Y-73086065D01*
X139158458Y-73371779D02*
X139920362Y-73371779D01*
X146206077Y-74219819D02*
X145634649Y-74219819D01*
X145920363Y-75219819D02*
X145920363Y-74219819D01*
X145396553Y-74553152D02*
X145158458Y-75219819D01*
X144920363Y-74553152D02*
X145158458Y-75219819D01*
X145158458Y-75219819D02*
X145253696Y-75457914D01*
X145253696Y-75457914D02*
X145301315Y-75505533D01*
X145301315Y-75505533D02*
X145396553Y-75553152D01*
X144539410Y-74553152D02*
X144539410Y-75553152D01*
X144539410Y-74600771D02*
X144444172Y-74553152D01*
X144444172Y-74553152D02*
X144253696Y-74553152D01*
X144253696Y-74553152D02*
X144158458Y-74600771D01*
X144158458Y-74600771D02*
X144110839Y-74648390D01*
X144110839Y-74648390D02*
X144063220Y-74743628D01*
X144063220Y-74743628D02*
X144063220Y-75029342D01*
X144063220Y-75029342D02*
X144110839Y-75124580D01*
X144110839Y-75124580D02*
X144158458Y-75172200D01*
X144158458Y-75172200D02*
X144253696Y-75219819D01*
X144253696Y-75219819D02*
X144444172Y-75219819D01*
X144444172Y-75219819D02*
X144539410Y-75172200D01*
X143253696Y-75172200D02*
X143348934Y-75219819D01*
X143348934Y-75219819D02*
X143539410Y-75219819D01*
X143539410Y-75219819D02*
X143634648Y-75172200D01*
X143634648Y-75172200D02*
X143682267Y-75076961D01*
X143682267Y-75076961D02*
X143682267Y-74696009D01*
X143682267Y-74696009D02*
X143634648Y-74600771D01*
X143634648Y-74600771D02*
X143539410Y-74553152D01*
X143539410Y-74553152D02*
X143348934Y-74553152D01*
X143348934Y-74553152D02*
X143253696Y-74600771D01*
X143253696Y-74600771D02*
X143206077Y-74696009D01*
X143206077Y-74696009D02*
X143206077Y-74791247D01*
X143206077Y-74791247D02*
X143682267Y-74886485D01*
X141682267Y-74696009D02*
X141539410Y-74743628D01*
X141539410Y-74743628D02*
X141491791Y-74791247D01*
X141491791Y-74791247D02*
X141444172Y-74886485D01*
X141444172Y-74886485D02*
X141444172Y-75029342D01*
X141444172Y-75029342D02*
X141491791Y-75124580D01*
X141491791Y-75124580D02*
X141539410Y-75172200D01*
X141539410Y-75172200D02*
X141634648Y-75219819D01*
X141634648Y-75219819D02*
X142015600Y-75219819D01*
X142015600Y-75219819D02*
X142015600Y-74219819D01*
X142015600Y-74219819D02*
X141682267Y-74219819D01*
X141682267Y-74219819D02*
X141587029Y-74267438D01*
X141587029Y-74267438D02*
X141539410Y-74315057D01*
X141539410Y-74315057D02*
X141491791Y-74410295D01*
X141491791Y-74410295D02*
X141491791Y-74505533D01*
X141491791Y-74505533D02*
X141539410Y-74600771D01*
X141539410Y-74600771D02*
X141587029Y-74648390D01*
X141587029Y-74648390D02*
X141682267Y-74696009D01*
X141682267Y-74696009D02*
X142015600Y-74696009D01*
X141015600Y-75124580D02*
X140967981Y-75172200D01*
X140967981Y-75172200D02*
X141015600Y-75219819D01*
X141015600Y-75219819D02*
X141063219Y-75172200D01*
X141063219Y-75172200D02*
X141015600Y-75124580D01*
X141015600Y-75124580D02*
X141015600Y-75219819D01*
X141015600Y-74600771D02*
X140967981Y-74648390D01*
X140967981Y-74648390D02*
X141015600Y-74696009D01*
X141015600Y-74696009D02*
X141063219Y-74648390D01*
X141063219Y-74648390D02*
X141015600Y-74600771D01*
X141015600Y-74600771D02*
X141015600Y-74696009D01*
X139682267Y-74124580D02*
X139682267Y-75553152D01*
X139396553Y-74124580D02*
X139396553Y-75553152D01*
X146263220Y-81094819D02*
X146263220Y-80094819D01*
X146263220Y-80094819D02*
X145929887Y-80809104D01*
X145929887Y-80809104D02*
X145596554Y-80094819D01*
X145596554Y-80094819D02*
X145596554Y-81094819D01*
X145120363Y-81094819D02*
X145120363Y-80094819D01*
X144644173Y-81094819D02*
X144644173Y-80094819D01*
X144644173Y-80094819D02*
X144406078Y-80094819D01*
X144406078Y-80094819D02*
X144263221Y-80142438D01*
X144263221Y-80142438D02*
X144167983Y-80237676D01*
X144167983Y-80237676D02*
X144120364Y-80332914D01*
X144120364Y-80332914D02*
X144072745Y-80523390D01*
X144072745Y-80523390D02*
X144072745Y-80666247D01*
X144072745Y-80666247D02*
X144120364Y-80856723D01*
X144120364Y-80856723D02*
X144167983Y-80951961D01*
X144167983Y-80951961D02*
X144263221Y-81047200D01*
X144263221Y-81047200D02*
X144406078Y-81094819D01*
X144406078Y-81094819D02*
X144644173Y-81094819D01*
X143644173Y-81094819D02*
X143644173Y-80094819D01*
X142406078Y-81094819D02*
X142406078Y-80428152D01*
X142406078Y-80094819D02*
X142453697Y-80142438D01*
X142453697Y-80142438D02*
X142406078Y-80190057D01*
X142406078Y-80190057D02*
X142358459Y-80142438D01*
X142358459Y-80142438D02*
X142406078Y-80094819D01*
X142406078Y-80094819D02*
X142406078Y-80190057D01*
X141929888Y-80428152D02*
X141929888Y-81094819D01*
X141929888Y-80523390D02*
X141882269Y-80475771D01*
X141882269Y-80475771D02*
X141787031Y-80428152D01*
X141787031Y-80428152D02*
X141644174Y-80428152D01*
X141644174Y-80428152D02*
X141548936Y-80475771D01*
X141548936Y-80475771D02*
X141501317Y-80571009D01*
X141501317Y-80571009D02*
X141501317Y-81094819D01*
X146313220Y-107594819D02*
X146313220Y-106594819D01*
X146313220Y-106594819D02*
X145979887Y-107309104D01*
X145979887Y-107309104D02*
X145646554Y-106594819D01*
X145646554Y-106594819D02*
X145646554Y-107594819D01*
X145170363Y-107594819D02*
X145170363Y-106594819D01*
X144694173Y-107594819D02*
X144694173Y-106594819D01*
X144694173Y-106594819D02*
X144456078Y-106594819D01*
X144456078Y-106594819D02*
X144313221Y-106642438D01*
X144313221Y-106642438D02*
X144217983Y-106737676D01*
X144217983Y-106737676D02*
X144170364Y-106832914D01*
X144170364Y-106832914D02*
X144122745Y-107023390D01*
X144122745Y-107023390D02*
X144122745Y-107166247D01*
X144122745Y-107166247D02*
X144170364Y-107356723D01*
X144170364Y-107356723D02*
X144217983Y-107451961D01*
X144217983Y-107451961D02*
X144313221Y-107547200D01*
X144313221Y-107547200D02*
X144456078Y-107594819D01*
X144456078Y-107594819D02*
X144694173Y-107594819D01*
X143694173Y-107594819D02*
X143694173Y-106594819D01*
X142313221Y-107594819D02*
X142408459Y-107547200D01*
X142408459Y-107547200D02*
X142456078Y-107499580D01*
X142456078Y-107499580D02*
X142503697Y-107404342D01*
X142503697Y-107404342D02*
X142503697Y-107118628D01*
X142503697Y-107118628D02*
X142456078Y-107023390D01*
X142456078Y-107023390D02*
X142408459Y-106975771D01*
X142408459Y-106975771D02*
X142313221Y-106928152D01*
X142313221Y-106928152D02*
X142170364Y-106928152D01*
X142170364Y-106928152D02*
X142075126Y-106975771D01*
X142075126Y-106975771D02*
X142027507Y-107023390D01*
X142027507Y-107023390D02*
X141979888Y-107118628D01*
X141979888Y-107118628D02*
X141979888Y-107404342D01*
X141979888Y-107404342D02*
X142027507Y-107499580D01*
X142027507Y-107499580D02*
X142075126Y-107547200D01*
X142075126Y-107547200D02*
X142170364Y-107594819D01*
X142170364Y-107594819D02*
X142313221Y-107594819D01*
X141122745Y-106928152D02*
X141122745Y-107594819D01*
X141551316Y-106928152D02*
X141551316Y-107451961D01*
X141551316Y-107451961D02*
X141503697Y-107547200D01*
X141503697Y-107547200D02*
X141408459Y-107594819D01*
X141408459Y-107594819D02*
X141265602Y-107594819D01*
X141265602Y-107594819D02*
X141170364Y-107547200D01*
X141170364Y-107547200D02*
X141122745Y-107499580D01*
X140789411Y-106928152D02*
X140408459Y-106928152D01*
X140646554Y-106594819D02*
X140646554Y-107451961D01*
X140646554Y-107451961D02*
X140598935Y-107547200D01*
X140598935Y-107547200D02*
X140503697Y-107594819D01*
X140503697Y-107594819D02*
X140408459Y-107594819D01*
X80932094Y-106562819D02*
X80360666Y-106562819D01*
X80646380Y-107562819D02*
X80646380Y-106562819D01*
X79455904Y-107562819D02*
X79789237Y-107086628D01*
X80027332Y-107562819D02*
X80027332Y-106562819D01*
X80027332Y-106562819D02*
X79646380Y-106562819D01*
X79646380Y-106562819D02*
X79551142Y-106610438D01*
X79551142Y-106610438D02*
X79503523Y-106658057D01*
X79503523Y-106658057D02*
X79455904Y-106753295D01*
X79455904Y-106753295D02*
X79455904Y-106896152D01*
X79455904Y-106896152D02*
X79503523Y-106991390D01*
X79503523Y-106991390D02*
X79551142Y-107039009D01*
X79551142Y-107039009D02*
X79646380Y-107086628D01*
X79646380Y-107086628D02*
X80027332Y-107086628D01*
X79074951Y-107515200D02*
X78932094Y-107562819D01*
X78932094Y-107562819D02*
X78693999Y-107562819D01*
X78693999Y-107562819D02*
X78598761Y-107515200D01*
X78598761Y-107515200D02*
X78551142Y-107467580D01*
X78551142Y-107467580D02*
X78503523Y-107372342D01*
X78503523Y-107372342D02*
X78503523Y-107277104D01*
X78503523Y-107277104D02*
X78551142Y-107181866D01*
X78551142Y-107181866D02*
X78598761Y-107134247D01*
X78598761Y-107134247D02*
X78693999Y-107086628D01*
X78693999Y-107086628D02*
X78884475Y-107039009D01*
X78884475Y-107039009D02*
X78979713Y-106991390D01*
X78979713Y-106991390D02*
X79027332Y-106943771D01*
X79027332Y-106943771D02*
X79074951Y-106848533D01*
X79074951Y-106848533D02*
X79074951Y-106753295D01*
X79074951Y-106753295D02*
X79027332Y-106658057D01*
X79027332Y-106658057D02*
X78979713Y-106610438D01*
X78979713Y-106610438D02*
X78884475Y-106562819D01*
X78884475Y-106562819D02*
X78646380Y-106562819D01*
X78646380Y-106562819D02*
X78503523Y-106610438D01*
X77551142Y-107562819D02*
X78122570Y-107562819D01*
X77836856Y-107562819D02*
X77836856Y-106562819D01*
X77836856Y-106562819D02*
X77932094Y-106705676D01*
X77932094Y-106705676D02*
X78027332Y-106800914D01*
X78027332Y-106800914D02*
X78122570Y-106848533D01*
X134858333Y-86854819D02*
X134858333Y-87569104D01*
X134858333Y-87569104D02*
X134905952Y-87711961D01*
X134905952Y-87711961D02*
X135001190Y-87807200D01*
X135001190Y-87807200D02*
X135144047Y-87854819D01*
X135144047Y-87854819D02*
X135239285Y-87854819D01*
X134429761Y-86950057D02*
X134382142Y-86902438D01*
X134382142Y-86902438D02*
X134286904Y-86854819D01*
X134286904Y-86854819D02*
X134048809Y-86854819D01*
X134048809Y-86854819D02*
X133953571Y-86902438D01*
X133953571Y-86902438D02*
X133905952Y-86950057D01*
X133905952Y-86950057D02*
X133858333Y-87045295D01*
X133858333Y-87045295D02*
X133858333Y-87140533D01*
X133858333Y-87140533D02*
X133905952Y-87283390D01*
X133905952Y-87283390D02*
X134477380Y-87854819D01*
X134477380Y-87854819D02*
X133858333Y-87854819D01*
X85423523Y-66084819D02*
X85090190Y-67084819D01*
X85090190Y-67084819D02*
X84756857Y-66084819D01*
X83852095Y-67084819D02*
X84185428Y-66608628D01*
X84423523Y-67084819D02*
X84423523Y-66084819D01*
X84423523Y-66084819D02*
X84042571Y-66084819D01*
X84042571Y-66084819D02*
X83947333Y-66132438D01*
X83947333Y-66132438D02*
X83899714Y-66180057D01*
X83899714Y-66180057D02*
X83852095Y-66275295D01*
X83852095Y-66275295D02*
X83852095Y-66418152D01*
X83852095Y-66418152D02*
X83899714Y-66513390D01*
X83899714Y-66513390D02*
X83947333Y-66561009D01*
X83947333Y-66561009D02*
X84042571Y-66608628D01*
X84042571Y-66608628D02*
X84423523Y-66608628D01*
X82899714Y-67084819D02*
X83471142Y-67084819D01*
X83185428Y-67084819D02*
X83185428Y-66084819D01*
X83185428Y-66084819D02*
X83280666Y-66227676D01*
X83280666Y-66227676D02*
X83375904Y-66322914D01*
X83375904Y-66322914D02*
X83471142Y-66370533D01*
X80888094Y-82454819D02*
X80316666Y-82454819D01*
X80602380Y-83454819D02*
X80602380Y-82454819D01*
X79411904Y-83454819D02*
X79745237Y-82978628D01*
X79983332Y-83454819D02*
X79983332Y-82454819D01*
X79983332Y-82454819D02*
X79602380Y-82454819D01*
X79602380Y-82454819D02*
X79507142Y-82502438D01*
X79507142Y-82502438D02*
X79459523Y-82550057D01*
X79459523Y-82550057D02*
X79411904Y-82645295D01*
X79411904Y-82645295D02*
X79411904Y-82788152D01*
X79411904Y-82788152D02*
X79459523Y-82883390D01*
X79459523Y-82883390D02*
X79507142Y-82931009D01*
X79507142Y-82931009D02*
X79602380Y-82978628D01*
X79602380Y-82978628D02*
X79983332Y-82978628D01*
X79030951Y-83407200D02*
X78888094Y-83454819D01*
X78888094Y-83454819D02*
X78649999Y-83454819D01*
X78649999Y-83454819D02*
X78554761Y-83407200D01*
X78554761Y-83407200D02*
X78507142Y-83359580D01*
X78507142Y-83359580D02*
X78459523Y-83264342D01*
X78459523Y-83264342D02*
X78459523Y-83169104D01*
X78459523Y-83169104D02*
X78507142Y-83073866D01*
X78507142Y-83073866D02*
X78554761Y-83026247D01*
X78554761Y-83026247D02*
X78649999Y-82978628D01*
X78649999Y-82978628D02*
X78840475Y-82931009D01*
X78840475Y-82931009D02*
X78935713Y-82883390D01*
X78935713Y-82883390D02*
X78983332Y-82835771D01*
X78983332Y-82835771D02*
X79030951Y-82740533D01*
X79030951Y-82740533D02*
X79030951Y-82645295D01*
X79030951Y-82645295D02*
X78983332Y-82550057D01*
X78983332Y-82550057D02*
X78935713Y-82502438D01*
X78935713Y-82502438D02*
X78840475Y-82454819D01*
X78840475Y-82454819D02*
X78602380Y-82454819D01*
X78602380Y-82454819D02*
X78459523Y-82502438D01*
X78078570Y-82550057D02*
X78030951Y-82502438D01*
X78030951Y-82502438D02*
X77935713Y-82454819D01*
X77935713Y-82454819D02*
X77697618Y-82454819D01*
X77697618Y-82454819D02*
X77602380Y-82502438D01*
X77602380Y-82502438D02*
X77554761Y-82550057D01*
X77554761Y-82550057D02*
X77507142Y-82645295D01*
X77507142Y-82645295D02*
X77507142Y-82740533D01*
X77507142Y-82740533D02*
X77554761Y-82883390D01*
X77554761Y-82883390D02*
X78126189Y-83454819D01*
X78126189Y-83454819D02*
X77507142Y-83454819D01*
X134908333Y-98854819D02*
X134908333Y-99569104D01*
X134908333Y-99569104D02*
X134955952Y-99711961D01*
X134955952Y-99711961D02*
X135051190Y-99807200D01*
X135051190Y-99807200D02*
X135194047Y-99854819D01*
X135194047Y-99854819D02*
X135289285Y-99854819D01*
X134527380Y-98854819D02*
X133908333Y-98854819D01*
X133908333Y-98854819D02*
X134241666Y-99235771D01*
X134241666Y-99235771D02*
X134098809Y-99235771D01*
X134098809Y-99235771D02*
X134003571Y-99283390D01*
X134003571Y-99283390D02*
X133955952Y-99331009D01*
X133955952Y-99331009D02*
X133908333Y-99426247D01*
X133908333Y-99426247D02*
X133908333Y-99664342D01*
X133908333Y-99664342D02*
X133955952Y-99759580D01*
X133955952Y-99759580D02*
X134003571Y-99807200D01*
X134003571Y-99807200D02*
X134098809Y-99854819D01*
X134098809Y-99854819D02*
X134384523Y-99854819D01*
X134384523Y-99854819D02*
X134479761Y-99807200D01*
X134479761Y-99807200D02*
X134527380Y-99759580D01*
D11*
X113351000Y-82998000D02*
X113351000Y-90738000D01*
X113351000Y-90738000D02*
X119821000Y-90738000D01*
X115586000Y-82998000D02*
X113351000Y-82998000D01*
X119821000Y-82998000D02*
X117586000Y-82998000D01*
X119821000Y-90738000D02*
X119821000Y-82998000D01*
X117586000Y-82998000D02*
G75*
G02*
X115586000Y-82998000I-1000000J0D01*
G01*
X123227948Y-73194400D02*
X123750452Y-73194400D01*
X123227948Y-74664400D02*
X123750452Y-74664400D01*
X133988748Y-93365000D02*
X134511252Y-93365000D01*
X133988748Y-94835000D02*
X134511252Y-94835000D01*
X128153279Y-93724000D02*
X127827721Y-93724000D01*
X128153279Y-94744000D02*
X127827721Y-94744000D01*
X124209064Y-92112000D02*
X121154936Y-92112000D01*
X124209064Y-94832000D02*
X121154936Y-94832000D01*
X136776000Y-92332000D02*
X136776000Y-84662000D01*
X137996000Y-84662000D02*
X136776000Y-84662000D01*
X138496000Y-91002000D02*
X138496000Y-92332000D01*
X139596000Y-84662000D02*
X141996000Y-84662000D01*
X143596000Y-84662000D02*
X144996000Y-84662000D01*
X146596000Y-84662000D02*
X149116000Y-84662000D01*
X149116000Y-84662000D02*
X149116000Y-85212000D01*
X149116000Y-85212000D02*
X151116000Y-85212000D01*
X149116000Y-90452000D02*
X149116000Y-91002000D01*
X149116000Y-91002000D02*
X138496000Y-91002000D01*
X151116000Y-85212000D02*
X151116000Y-90452000D01*
X151116000Y-90452000D02*
X149116000Y-90452000D01*
X136776000Y-105794000D02*
X136776000Y-98124000D01*
X137996000Y-98124000D02*
X136776000Y-98124000D01*
X138496000Y-104464000D02*
X138496000Y-105794000D01*
X139596000Y-98124000D02*
X141996000Y-98124000D01*
X143596000Y-98124000D02*
X144996000Y-98124000D01*
X146596000Y-98124000D02*
X149116000Y-98124000D01*
X149116000Y-98124000D02*
X149116000Y-98674000D01*
X149116000Y-98674000D02*
X151116000Y-98674000D01*
X149116000Y-103914000D02*
X149116000Y-104464000D01*
X149116000Y-104464000D02*
X138496000Y-104464000D01*
X151116000Y-98674000D02*
X151116000Y-103914000D01*
X151116000Y-103914000D02*
X149116000Y-103914000D01*
X130490279Y-81786000D02*
X130164721Y-81786000D01*
X130490279Y-82806000D02*
X130164721Y-82806000D01*
X126772564Y-81386000D02*
X125318436Y-81386000D01*
X126772564Y-83206000D02*
X125318436Y-83206000D01*
X113127600Y-67444452D02*
X113127600Y-66921948D01*
X114597600Y-67444452D02*
X114597600Y-66921948D01*
X127121848Y-73449000D02*
X127644352Y-73449000D01*
X127121848Y-74919000D02*
X127644352Y-74919000D01*
X124204000Y-89570779D02*
X124204000Y-89245221D01*
X125224000Y-89570779D02*
X125224000Y-89245221D01*
X123864000Y-86682000D02*
X123864000Y-84022000D01*
X125564000Y-84022000D02*
X123864000Y-84022000D01*
X125564000Y-86682000D02*
X125564000Y-84022000D01*
X59480000Y-101495000D02*
X59480000Y-112735000D01*
X59480000Y-101495000D02*
X68330000Y-101495000D01*
X59480000Y-112735000D02*
X68330000Y-112735000D01*
X68330000Y-97895000D02*
X68330000Y-101495000D01*
X68330000Y-112735000D02*
X68330000Y-116335000D01*
X71150000Y-97895000D02*
X68330000Y-97895000D01*
X71150000Y-116335000D02*
X68330000Y-116335000D01*
X74450000Y-97895000D02*
X77550000Y-97895000D01*
X77550000Y-116335000D02*
X74450000Y-116335000D01*
X80750000Y-97895000D02*
X83850000Y-97895000D01*
X83850000Y-116335000D02*
X80750000Y-116335000D01*
X87150000Y-97895000D02*
X89570000Y-97895000D01*
X89570000Y-97895000D02*
X89570000Y-102645000D01*
X89570000Y-102645000D02*
X92570000Y-102645000D01*
X89570000Y-111585000D02*
X89570000Y-116335000D01*
X89570000Y-111585000D02*
X92570000Y-111585000D01*
X89570000Y-116335000D02*
X87150000Y-116335000D01*
X92570000Y-102645000D02*
X92570000Y-111545000D01*
X127631000Y-66556148D02*
X127631000Y-67078652D01*
X129101000Y-66556148D02*
X129101000Y-67078652D01*
X94212500Y-62532500D02*
X99412500Y-62532500D01*
X94212500Y-113452500D02*
X94212500Y-62532500D01*
X94212500Y-113452500D02*
X99372500Y-113442500D01*
X99372500Y-113442500D02*
X99412500Y-62532500D01*
X121439000Y-110413436D02*
X121439000Y-110867564D01*
X122909000Y-110413436D02*
X122909000Y-110867564D01*
X130000279Y-104190000D02*
X129674721Y-104190000D01*
X130000279Y-105210000D02*
X129674721Y-105210000D01*
X127845000Y-85055000D02*
X127845000Y-90255000D01*
X133045000Y-85055000D02*
X127845000Y-85055000D01*
X133045000Y-85055000D02*
X133045000Y-90255000D01*
X133045000Y-90255000D02*
X127845000Y-90255000D01*
X116869600Y-65820000D02*
X119069600Y-65820000D01*
X116869600Y-72590000D02*
X119069600Y-72590000D01*
X121269600Y-72590000D02*
X119069600Y-72590000D01*
X122669600Y-65820000D02*
X119069600Y-65820000D01*
X119153000Y-110413436D02*
X119153000Y-110867564D01*
X120623000Y-110413436D02*
X120623000Y-110867564D01*
X125599000Y-67078652D02*
X125599000Y-66556148D01*
X127069000Y-67078652D02*
X127069000Y-66556148D01*
X115920436Y-92562000D02*
X117374564Y-92562000D01*
X115920436Y-94382000D02*
X117374564Y-94382000D01*
X110841600Y-66921948D02*
X110841600Y-67444452D01*
X112311600Y-66921948D02*
X112311600Y-67444452D01*
X81022000Y-65566000D02*
G75*
G02*
X85597968Y-63716171I3092000J-1064000D01*
G01*
X84114000Y-69900000D02*
G75*
G02*
X81022154Y-67694608I0J3270000D01*
G01*
X85599000Y-69544000D02*
G75*
G02*
X84057137Y-69900075I-1485000J2914000D01*
G01*
X87028000Y-65146000D02*
G75*
G02*
X87027387Y-68115202I-2914000J-1484000D01*
G01*
X126468564Y-103288000D02*
X123414436Y-103288000D01*
X126468564Y-106008000D02*
X123414436Y-106008000D01*
X123227948Y-75480400D02*
X123750452Y-75480400D01*
X123227948Y-76950400D02*
X123750452Y-76950400D01*
X59480000Y-77495000D02*
X59480000Y-88735000D01*
X59480000Y-77495000D02*
X68330000Y-77495000D01*
X59480000Y-88735000D02*
X68330000Y-88735000D01*
X68330000Y-73895000D02*
X68330000Y-77495000D01*
X68330000Y-88735000D02*
X68330000Y-92335000D01*
X71150000Y-73895000D02*
X68330000Y-73895000D01*
X71150000Y-92335000D02*
X68330000Y-92335000D01*
X74450000Y-73895000D02*
X77550000Y-73895000D01*
X77550000Y-92335000D02*
X74450000Y-92335000D01*
X80750000Y-73895000D02*
X83850000Y-73895000D01*
X83850000Y-92335000D02*
X80750000Y-92335000D01*
X87150000Y-73895000D02*
X89570000Y-73895000D01*
X89570000Y-73895000D02*
X89570000Y-78645000D01*
X89570000Y-78645000D02*
X92570000Y-78645000D01*
X89570000Y-87585000D02*
X89570000Y-92335000D01*
X89570000Y-87585000D02*
X92570000Y-87585000D01*
X89570000Y-92335000D02*
X87150000Y-92335000D01*
X92570000Y-78645000D02*
X92570000Y-87545000D01*
X123440000Y-67053252D02*
X123440000Y-66530748D01*
X124910000Y-67053252D02*
X124910000Y-66530748D01*
X127610164Y-71417000D02*
X127156036Y-71417000D01*
X127610164Y-72887000D02*
X127156036Y-72887000D01*
X127845000Y-96855000D02*
X127845000Y-102055000D01*
X133045000Y-96855000D02*
X127845000Y-96855000D01*
X133045000Y-96855000D02*
X133045000Y-102055000D01*
X133045000Y-102055000D02*
X127845000Y-102055000D01*
X127610164Y-69385000D02*
X127156036Y-69385000D01*
X127610164Y-70855000D02*
X127156036Y-70855000D01*
%LPC*%
D12*
X77000000Y-59000000D03*
D13*
X79540000Y-59000000D03*
X82080000Y-59000000D03*
X84620000Y-59000000D03*
X87160000Y-59000000D03*
X89700000Y-59000000D03*
X102400000Y-59000000D03*
X104940000Y-59000000D03*
X107480000Y-59000000D03*
X110020000Y-59000000D03*
X112560000Y-59000000D03*
X115100000Y-59000000D03*
D14*
X111720000Y-97398000D03*
D15*
X106720000Y-97398000D03*
X109220000Y-97398000D03*
D16*
X114820000Y-104898000D03*
X103620000Y-104898000D03*
D15*
X106720000Y-111898000D03*
X111720000Y-111898000D03*
D17*
X102870000Y-117094000D03*
X105410000Y-117094000D03*
D13*
X107950000Y-117094000D03*
D18*
X110490000Y-117094000D03*
D13*
X113030000Y-117094000D03*
X115570000Y-117094000D03*
D18*
X118110000Y-117094000D03*
D13*
X120650000Y-117094000D03*
X123190000Y-117094000D03*
X125730000Y-117094000D03*
X128270000Y-117094000D03*
X130810000Y-117094000D03*
X133350000Y-117094000D03*
D12*
X135890000Y-117094000D03*
D19*
X121351000Y-84328000D03*
X121351000Y-86868000D03*
X121351000Y-89408000D03*
X111821000Y-89408000D03*
X111821000Y-86868000D03*
X111821000Y-84328000D03*
D20*
X124439200Y-73929400D03*
X122539200Y-73929400D03*
X135200000Y-94100000D03*
X133300000Y-94100000D03*
D21*
X127203000Y-94234000D03*
X128778000Y-94234000D03*
D22*
X120369500Y-93472000D03*
X124994500Y-93472000D03*
D23*
X147396000Y-87832000D03*
X140396000Y-87832000D03*
D24*
X142796000Y-84582000D03*
X145796000Y-84582000D03*
X137696000Y-91082000D03*
X138796000Y-84582000D03*
D23*
X147396000Y-101294000D03*
X140396000Y-101294000D03*
D24*
X142796000Y-98044000D03*
X145796000Y-98044000D03*
X137696000Y-104544000D03*
X138796000Y-98044000D03*
D21*
X129540000Y-82296000D03*
X131115000Y-82296000D03*
D25*
X124583000Y-82296000D03*
X127508000Y-82296000D03*
D26*
X113862600Y-66233200D03*
X113862600Y-68133200D03*
D20*
X128333100Y-74184000D03*
X126433100Y-74184000D03*
D27*
X124714000Y-88620500D03*
X124714000Y-90195500D03*
D28*
X124714000Y-84582000D03*
X124714000Y-86682000D03*
D29*
X79150000Y-99000000D03*
X79150000Y-115230000D03*
X72800000Y-99000000D03*
X72800000Y-115230000D03*
X85500000Y-99000000D03*
X85500000Y-115230000D03*
D30*
X128366000Y-67767400D03*
X128366000Y-65867400D03*
D13*
X98082500Y-112122500D03*
X95542500Y-112122500D03*
X98082500Y-109582500D03*
X95542500Y-109582500D03*
X98082500Y-107042500D03*
X95542500Y-107042500D03*
X98082500Y-104502500D03*
X95542500Y-104502500D03*
X98082500Y-101962500D03*
X95542500Y-101962500D03*
X98082500Y-99422500D03*
X95542500Y-99422500D03*
X98082500Y-96882500D03*
X95542500Y-96882500D03*
X98082500Y-94342500D03*
X95542500Y-94342500D03*
X98082500Y-91802500D03*
X95542500Y-91802500D03*
X98082500Y-89262500D03*
X95542500Y-89262500D03*
X98082500Y-86722500D03*
X95542500Y-86722500D03*
X98082500Y-84182500D03*
X95542500Y-84182500D03*
X98082500Y-81642500D03*
X95542500Y-81642500D03*
X98082500Y-79102500D03*
X95542500Y-79102500D03*
X98082500Y-76562500D03*
X95542500Y-76562500D03*
X98082500Y-74022500D03*
X95542500Y-74022500D03*
X98082500Y-71482500D03*
X95542500Y-71482500D03*
X98082500Y-68942500D03*
X95542500Y-68942500D03*
X98082500Y-66402500D03*
X95542500Y-66402500D03*
X98082500Y-63862500D03*
X95542500Y-63862500D03*
D31*
X122174000Y-111553000D03*
X122174000Y-109728000D03*
D21*
X129050000Y-104700000D03*
X130625000Y-104700000D03*
D32*
X129175000Y-88925000D03*
D13*
X131715000Y-88925000D03*
X129175000Y-86385000D03*
X131715000Y-86385000D03*
D33*
X121932100Y-66280000D03*
X121932100Y-66930000D03*
X121932100Y-67580000D03*
X121932100Y-68230000D03*
X121932100Y-68880000D03*
X121932100Y-69530000D03*
X121932100Y-70180000D03*
X121932100Y-70830000D03*
X121932100Y-71480000D03*
X121932100Y-72130000D03*
X116207100Y-72130000D03*
X116207100Y-71480000D03*
X116207100Y-70830000D03*
X116207100Y-70180000D03*
X116207100Y-69530000D03*
X116207100Y-68880000D03*
X116207100Y-68230000D03*
X116207100Y-67580000D03*
X116207100Y-66930000D03*
X116207100Y-66280000D03*
D31*
X119888000Y-111553000D03*
X119888000Y-109728000D03*
D26*
X126334000Y-65867400D03*
X126334000Y-67767400D03*
D34*
X118110000Y-93472000D03*
X115185000Y-93472000D03*
D30*
X111576600Y-68133200D03*
X111576600Y-66233200D03*
D35*
X86614000Y-69130000D03*
X81614000Y-66630000D03*
X86614000Y-64130000D03*
D22*
X122629000Y-104648000D03*
X127254000Y-104648000D03*
D20*
X124439200Y-76215400D03*
X122539200Y-76215400D03*
D29*
X79150000Y-75000000D03*
X79150000Y-91230000D03*
X72800000Y-75000000D03*
X72800000Y-91230000D03*
X85500000Y-75000000D03*
X85500000Y-91230000D03*
D26*
X124175000Y-65842000D03*
X124175000Y-67742000D03*
D36*
X126470600Y-72152000D03*
X128295600Y-72152000D03*
D32*
X129175000Y-100725000D03*
D13*
X131715000Y-100725000D03*
X129175000Y-98185000D03*
X131715000Y-98185000D03*
D36*
X126470600Y-70120000D03*
X128295600Y-70120000D03*
%LPD*%
M02*
