%TF.GenerationSoftware,KiCad,Pcbnew,7.0.1*%
%TF.CreationDate,2023-07-06T22:47:11-05:00*%
%TF.ProjectId,squishbox1,73717569-7368-4626-9f78-312e6b696361,rev?*%
%TF.SameCoordinates,Original*%
%TF.FileFunction,Legend,Top*%
%TF.FilePolarity,Positive*%
%FSLAX46Y46*%
G04 Gerber Fmt 4.6, Leading zero omitted, Abs format (unit mm)*
G04 Created by KiCad (PCBNEW 7.0.1) date 2023-07-06 22:47:11*
%MOMM*%
%LPD*%
G01*
G04 APERTURE LIST*
G04 Aperture macros list*
%AMRoundRect*
0 Rectangle with rounded corners*
0 $1 Rounding radius*
0 $2 $3 $4 $5 $6 $7 $8 $9 X,Y pos of 4 corners*
0 Add a 4 corners polygon primitive as box body*
4,1,4,$2,$3,$4,$5,$6,$7,$8,$9,$2,$3,0*
0 Add four circle primitives for the rounded corners*
1,1,$1+$1,$2,$3*
1,1,$1+$1,$4,$5*
1,1,$1+$1,$6,$7*
1,1,$1+$1,$8,$9*
0 Add four rect primitives between the rounded corners*
20,1,$1+$1,$2,$3,$4,$5,0*
20,1,$1+$1,$4,$5,$6,$7,0*
20,1,$1+$1,$6,$7,$8,$9,0*
20,1,$1+$1,$8,$9,$2,$3,0*%
G04 Aperture macros list end*
%ADD10C,0.300000*%
%ADD11C,0.250000*%
%ADD12C,0.120000*%
%ADD13R,1.700000X1.700000*%
%ADD14O,1.700000X1.700000*%
%ADD15RoundRect,0.250000X0.250000X0.475000X-0.250000X0.475000X-0.250000X-0.475000X0.250000X-0.475000X0*%
%ADD16RoundRect,0.250000X-0.262500X-0.450000X0.262500X-0.450000X0.262500X0.450000X-0.262500X0.450000X0*%
%ADD17RoundRect,0.250000X-0.250000X-0.475000X0.250000X-0.475000X0.250000X0.475000X-0.250000X0.475000X0*%
%ADD18R,1.600000X2.500000*%
%ADD19RoundRect,0.250000X-0.475000X0.250000X-0.475000X-0.250000X0.475000X-0.250000X0.475000X0.250000X0*%
%ADD20RoundRect,0.250000X0.475000X-0.250000X0.475000X0.250000X-0.475000X0.250000X-0.475000X-0.250000X0*%
%ADD21RoundRect,0.100000X0.637500X0.100000X-0.637500X0.100000X-0.637500X-0.100000X0.637500X-0.100000X0*%
%ADD22RoundRect,0.250000X-0.450000X0.262500X-0.450000X-0.262500X0.450000X-0.262500X0.450000X0.262500X0*%
%ADD23RoundRect,0.150000X-0.512500X-0.150000X0.512500X-0.150000X0.512500X0.150000X-0.512500X0.150000X0*%
%ADD24RoundRect,0.250000X0.450000X-0.262500X0.450000X0.262500X-0.450000X0.262500X-0.450000X-0.262500X0*%
%ADD25C,1.620000*%
G04 APERTURE END LIST*
D10*
X93143342Y-75470400D02*
X94286200Y-75470400D01*
X93714771Y-76041828D02*
X93714771Y-74898971D01*
X95000485Y-76041828D02*
X95000485Y-74541828D01*
X95000485Y-74541828D02*
X95357628Y-74541828D01*
X95357628Y-74541828D02*
X95571914Y-74613257D01*
X95571914Y-74613257D02*
X95714771Y-74756114D01*
X95714771Y-74756114D02*
X95786200Y-74898971D01*
X95786200Y-74898971D02*
X95857628Y-75184685D01*
X95857628Y-75184685D02*
X95857628Y-75398971D01*
X95857628Y-75398971D02*
X95786200Y-75684685D01*
X95786200Y-75684685D02*
X95714771Y-75827542D01*
X95714771Y-75827542D02*
X95571914Y-75970400D01*
X95571914Y-75970400D02*
X95357628Y-76041828D01*
X95357628Y-76041828D02*
X95000485Y-76041828D01*
X97357628Y-75898971D02*
X97286200Y-75970400D01*
X97286200Y-75970400D02*
X97071914Y-76041828D01*
X97071914Y-76041828D02*
X96929057Y-76041828D01*
X96929057Y-76041828D02*
X96714771Y-75970400D01*
X96714771Y-75970400D02*
X96571914Y-75827542D01*
X96571914Y-75827542D02*
X96500485Y-75684685D01*
X96500485Y-75684685D02*
X96429057Y-75398971D01*
X96429057Y-75398971D02*
X96429057Y-75184685D01*
X96429057Y-75184685D02*
X96500485Y-74898971D01*
X96500485Y-74898971D02*
X96571914Y-74756114D01*
X96571914Y-74756114D02*
X96714771Y-74613257D01*
X96714771Y-74613257D02*
X96929057Y-74541828D01*
X96929057Y-74541828D02*
X97071914Y-74541828D01*
X97071914Y-74541828D02*
X97286200Y-74613257D01*
X97286200Y-74613257D02*
X97357628Y-74684685D01*
X98000485Y-75470400D02*
X99143343Y-75470400D01*
D11*
X103609685Y-76153819D02*
X103133495Y-76153819D01*
X103133495Y-76153819D02*
X103133495Y-75153819D01*
X103943019Y-75772866D02*
X104704924Y-75772866D01*
X106419209Y-76153819D02*
X105943019Y-76153819D01*
X105943019Y-76153819D02*
X105943019Y-75153819D01*
X106752543Y-75772866D02*
X107514448Y-75772866D01*
X107133495Y-76153819D02*
X107133495Y-75391914D01*
X92079780Y-67973485D02*
X92079780Y-67497295D01*
X92079780Y-67497295D02*
X91603590Y-67449676D01*
X91603590Y-67449676D02*
X91651209Y-67497295D01*
X91651209Y-67497295D02*
X91698828Y-67592533D01*
X91698828Y-67592533D02*
X91698828Y-67830628D01*
X91698828Y-67830628D02*
X91651209Y-67925866D01*
X91651209Y-67925866D02*
X91603590Y-67973485D01*
X91603590Y-67973485D02*
X91508352Y-68021104D01*
X91508352Y-68021104D02*
X91270257Y-68021104D01*
X91270257Y-68021104D02*
X91175019Y-67973485D01*
X91175019Y-67973485D02*
X91127400Y-67925866D01*
X91127400Y-67925866D02*
X91079780Y-67830628D01*
X91079780Y-67830628D02*
X91079780Y-67592533D01*
X91079780Y-67592533D02*
X91127400Y-67497295D01*
X91127400Y-67497295D02*
X91175019Y-67449676D01*
X92079780Y-68306819D02*
X91079780Y-68640152D01*
X91079780Y-68640152D02*
X92079780Y-68973485D01*
X92079780Y-69925867D02*
X92079780Y-70497295D01*
X91079780Y-70211581D02*
X92079780Y-70211581D01*
X92079780Y-70735391D02*
X91079780Y-71402057D01*
X92079780Y-71402057D02*
X91079780Y-70735391D01*
X91079780Y-73116343D02*
X91555971Y-72783010D01*
X91079780Y-72544915D02*
X92079780Y-72544915D01*
X92079780Y-72544915D02*
X92079780Y-72925867D01*
X92079780Y-72925867D02*
X92032161Y-73021105D01*
X92032161Y-73021105D02*
X91984542Y-73068724D01*
X91984542Y-73068724D02*
X91889304Y-73116343D01*
X91889304Y-73116343D02*
X91746447Y-73116343D01*
X91746447Y-73116343D02*
X91651209Y-73068724D01*
X91651209Y-73068724D02*
X91603590Y-73021105D01*
X91603590Y-73021105D02*
X91555971Y-72925867D01*
X91555971Y-72925867D02*
X91555971Y-72544915D01*
X92079780Y-73449677D02*
X91079780Y-74116343D01*
X92079780Y-74116343D02*
X91079780Y-73449677D01*
X91746447Y-75687772D02*
X90936923Y-75687772D01*
X90936923Y-75687772D02*
X90841685Y-75640153D01*
X90841685Y-75640153D02*
X90794066Y-75592534D01*
X90794066Y-75592534D02*
X90746447Y-75497296D01*
X90746447Y-75497296D02*
X90746447Y-75354439D01*
X90746447Y-75354439D02*
X90794066Y-75259201D01*
X91127400Y-75687772D02*
X91079780Y-75592534D01*
X91079780Y-75592534D02*
X91079780Y-75402058D01*
X91079780Y-75402058D02*
X91127400Y-75306820D01*
X91127400Y-75306820D02*
X91175019Y-75259201D01*
X91175019Y-75259201D02*
X91270257Y-75211582D01*
X91270257Y-75211582D02*
X91555971Y-75211582D01*
X91555971Y-75211582D02*
X91651209Y-75259201D01*
X91651209Y-75259201D02*
X91698828Y-75306820D01*
X91698828Y-75306820D02*
X91746447Y-75402058D01*
X91746447Y-75402058D02*
X91746447Y-75592534D01*
X91746447Y-75592534D02*
X91698828Y-75687772D01*
X117408295Y-75477609D02*
X117741628Y-75477609D01*
X117884485Y-76001419D02*
X117408295Y-76001419D01*
X117408295Y-76001419D02*
X117408295Y-75001419D01*
X117408295Y-75001419D02*
X117884485Y-75001419D01*
X118789247Y-76001419D02*
X118313057Y-76001419D01*
X118313057Y-76001419D02*
X118313057Y-75001419D01*
X119884486Y-75477609D02*
X120217819Y-75477609D01*
X120360676Y-76001419D02*
X119884486Y-76001419D01*
X119884486Y-76001419D02*
X119884486Y-75001419D01*
X119884486Y-75001419D02*
X120360676Y-75001419D01*
X121217819Y-75334752D02*
X121217819Y-76144276D01*
X121217819Y-76144276D02*
X121170200Y-76239514D01*
X121170200Y-76239514D02*
X121122581Y-76287133D01*
X121122581Y-76287133D02*
X121027343Y-76334752D01*
X121027343Y-76334752D02*
X120884486Y-76334752D01*
X120884486Y-76334752D02*
X120789248Y-76287133D01*
X121217819Y-75953800D02*
X121122581Y-76001419D01*
X121122581Y-76001419D02*
X120932105Y-76001419D01*
X120932105Y-76001419D02*
X120836867Y-75953800D01*
X120836867Y-75953800D02*
X120789248Y-75906180D01*
X120789248Y-75906180D02*
X120741629Y-75810942D01*
X120741629Y-75810942D02*
X120741629Y-75525228D01*
X120741629Y-75525228D02*
X120789248Y-75429990D01*
X120789248Y-75429990D02*
X120836867Y-75382371D01*
X120836867Y-75382371D02*
X120932105Y-75334752D01*
X120932105Y-75334752D02*
X121122581Y-75334752D01*
X121122581Y-75334752D02*
X121217819Y-75382371D01*
X122455915Y-75477609D02*
X122789248Y-75477609D01*
X122932105Y-76001419D02*
X122455915Y-76001419D01*
X122455915Y-76001419D02*
X122455915Y-75001419D01*
X122455915Y-75001419D02*
X122932105Y-75001419D01*
X123932105Y-76001419D02*
X123598772Y-75525228D01*
X123360677Y-76001419D02*
X123360677Y-75001419D01*
X123360677Y-75001419D02*
X123741629Y-75001419D01*
X123741629Y-75001419D02*
X123836867Y-75049038D01*
X123836867Y-75049038D02*
X123884486Y-75096657D01*
X123884486Y-75096657D02*
X123932105Y-75191895D01*
X123932105Y-75191895D02*
X123932105Y-75334752D01*
X123932105Y-75334752D02*
X123884486Y-75429990D01*
X123884486Y-75429990D02*
X123836867Y-75477609D01*
X123836867Y-75477609D02*
X123741629Y-75525228D01*
X123741629Y-75525228D02*
X123360677Y-75525228D01*
X125122582Y-75477609D02*
X125455915Y-75477609D01*
X125598772Y-76001419D02*
X125122582Y-76001419D01*
X125122582Y-76001419D02*
X125122582Y-75001419D01*
X125122582Y-75001419D02*
X125598772Y-75001419D01*
X126360677Y-75477609D02*
X126503534Y-75525228D01*
X126503534Y-75525228D02*
X126551153Y-75572847D01*
X126551153Y-75572847D02*
X126598772Y-75668085D01*
X126598772Y-75668085D02*
X126598772Y-75810942D01*
X126598772Y-75810942D02*
X126551153Y-75906180D01*
X126551153Y-75906180D02*
X126503534Y-75953800D01*
X126503534Y-75953800D02*
X126408296Y-76001419D01*
X126408296Y-76001419D02*
X126027344Y-76001419D01*
X126027344Y-76001419D02*
X126027344Y-75001419D01*
X126027344Y-75001419D02*
X126360677Y-75001419D01*
X126360677Y-75001419D02*
X126455915Y-75049038D01*
X126455915Y-75049038D02*
X126503534Y-75096657D01*
X126503534Y-75096657D02*
X126551153Y-75191895D01*
X126551153Y-75191895D02*
X126551153Y-75287133D01*
X126551153Y-75287133D02*
X126503534Y-75382371D01*
X126503534Y-75382371D02*
X126455915Y-75429990D01*
X126455915Y-75429990D02*
X126360677Y-75477609D01*
X126360677Y-75477609D02*
X126027344Y-75477609D01*
D10*
X111156714Y-75995800D02*
X111371000Y-76067228D01*
X111371000Y-76067228D02*
X111728142Y-76067228D01*
X111728142Y-76067228D02*
X111871000Y-75995800D01*
X111871000Y-75995800D02*
X111942428Y-75924371D01*
X111942428Y-75924371D02*
X112013857Y-75781514D01*
X112013857Y-75781514D02*
X112013857Y-75638657D01*
X112013857Y-75638657D02*
X111942428Y-75495800D01*
X111942428Y-75495800D02*
X111871000Y-75424371D01*
X111871000Y-75424371D02*
X111728142Y-75352942D01*
X111728142Y-75352942D02*
X111442428Y-75281514D01*
X111442428Y-75281514D02*
X111299571Y-75210085D01*
X111299571Y-75210085D02*
X111228142Y-75138657D01*
X111228142Y-75138657D02*
X111156714Y-74995800D01*
X111156714Y-74995800D02*
X111156714Y-74852942D01*
X111156714Y-74852942D02*
X111228142Y-74710085D01*
X111228142Y-74710085D02*
X111299571Y-74638657D01*
X111299571Y-74638657D02*
X111442428Y-74567228D01*
X111442428Y-74567228D02*
X111799571Y-74567228D01*
X111799571Y-74567228D02*
X112013857Y-74638657D01*
X112513856Y-74567228D02*
X112870999Y-76067228D01*
X112870999Y-76067228D02*
X113156713Y-74995800D01*
X113156713Y-74995800D02*
X113442428Y-76067228D01*
X113442428Y-76067228D02*
X113799571Y-74567228D01*
X130662228Y-76194228D02*
X129947942Y-76194228D01*
X129947942Y-76194228D02*
X129947942Y-74694228D01*
X132947943Y-75194228D02*
X132947943Y-76408514D01*
X132947943Y-76408514D02*
X132876514Y-76551371D01*
X132876514Y-76551371D02*
X132805085Y-76622800D01*
X132805085Y-76622800D02*
X132662228Y-76694228D01*
X132662228Y-76694228D02*
X132447943Y-76694228D01*
X132447943Y-76694228D02*
X132305085Y-76622800D01*
X132947943Y-76122800D02*
X132805085Y-76194228D01*
X132805085Y-76194228D02*
X132519371Y-76194228D01*
X132519371Y-76194228D02*
X132376514Y-76122800D01*
X132376514Y-76122800D02*
X132305085Y-76051371D01*
X132305085Y-76051371D02*
X132233657Y-75908514D01*
X132233657Y-75908514D02*
X132233657Y-75479942D01*
X132233657Y-75479942D02*
X132305085Y-75337085D01*
X132305085Y-75337085D02*
X132376514Y-75265657D01*
X132376514Y-75265657D02*
X132519371Y-75194228D01*
X132519371Y-75194228D02*
X132805085Y-75194228D01*
X132805085Y-75194228D02*
X132947943Y-75265657D01*
X135662228Y-76194228D02*
X135162228Y-75479942D01*
X134805085Y-76194228D02*
X134805085Y-74694228D01*
X134805085Y-74694228D02*
X135376514Y-74694228D01*
X135376514Y-74694228D02*
X135519371Y-74765657D01*
X135519371Y-74765657D02*
X135590800Y-74837085D01*
X135590800Y-74837085D02*
X135662228Y-74979942D01*
X135662228Y-74979942D02*
X135662228Y-75194228D01*
X135662228Y-75194228D02*
X135590800Y-75337085D01*
X135590800Y-75337085D02*
X135519371Y-75408514D01*
X135519371Y-75408514D02*
X135376514Y-75479942D01*
X135376514Y-75479942D02*
X134805085Y-75479942D01*
D12*
%TO.C,U2*%
X130430000Y-57330000D02*
X130430000Y-54670000D01*
X89710000Y-57320000D02*
X130430000Y-57330000D01*
X89710000Y-57320000D02*
X89710000Y-54660000D01*
X89710000Y-54660000D02*
X130430000Y-54670000D01*
%TO.C,D1*%
X102700000Y-79360000D02*
X107870000Y-79330000D01*
X102700000Y-79360000D02*
X102700000Y-76700000D01*
X107870000Y-79330000D02*
X107870000Y-76670000D01*
X102710000Y-76690000D02*
X107870000Y-76670000D01*
%TO.C,S1*%
X109759200Y-79320000D02*
X114929200Y-79310000D01*
X109759200Y-79320000D02*
X109769200Y-76670000D01*
X114929200Y-79310000D02*
X114939200Y-76670000D01*
X109769200Y-76670000D02*
X114909200Y-76670000D01*
%TO.C,C7*%
X119758052Y-61695000D02*
X119235548Y-61695000D01*
X119758052Y-60225000D02*
X119235548Y-60225000D01*
%TO.C,R3*%
X125428636Y-59386800D02*
X125882764Y-59386800D01*
X125428636Y-60856800D02*
X125882764Y-60856800D01*
%TO.C,C3*%
X100845252Y-62457000D02*
X100322748Y-62457000D01*
X100845252Y-60987000D02*
X100322748Y-60987000D01*
%TO.C,C13*%
X95395148Y-60225000D02*
X95917652Y-60225000D01*
X95395148Y-61695000D02*
X95917652Y-61695000D01*
%TO.C,L1*%
X103158000Y-60486000D02*
X103158000Y-60886000D01*
X103158000Y-60486000D02*
X108678000Y-60486000D01*
X103158000Y-66006000D02*
X103158000Y-65606000D01*
X103158000Y-66006000D02*
X108678000Y-66006000D01*
X108678000Y-60486000D02*
X108678000Y-60886000D01*
X108678000Y-66006000D02*
X108678000Y-65606000D01*
%TO.C,C4*%
X111682200Y-69349948D02*
X111682200Y-69872452D01*
X110212200Y-69349948D02*
X110212200Y-69872452D01*
%TO.C,C1*%
X100038000Y-68357048D02*
X100038000Y-68879552D01*
X98568000Y-68357048D02*
X98568000Y-68879552D01*
%TO.C,J3*%
X116850000Y-79330000D02*
X127070000Y-79330000D01*
X127070000Y-79330000D02*
X127070000Y-76670000D01*
X116850000Y-79270000D02*
X116850000Y-76670000D01*
X116850000Y-76670000D02*
X127070000Y-76670000D01*
%TO.C,C11*%
X105925252Y-70839000D02*
X105402748Y-70839000D01*
X105925252Y-69369000D02*
X105402748Y-69369000D01*
%TO.C,C10*%
X134875600Y-68714252D02*
X134875600Y-68191748D01*
X136345600Y-68714252D02*
X136345600Y-68191748D01*
%TO.C,C9*%
X129821000Y-68714252D02*
X129821000Y-68191748D01*
X131291000Y-68714252D02*
X131291000Y-68191748D01*
%TO.C,R5*%
X95429336Y-62866600D02*
X95883464Y-62866600D01*
X95429336Y-64336600D02*
X95883464Y-64336600D01*
%TO.C,J2*%
X136855200Y-76648000D02*
X129175200Y-76648000D01*
X136855200Y-76648000D02*
X136855200Y-79308000D01*
X129175200Y-76648000D02*
X129175200Y-79308000D01*
X136855200Y-79308000D02*
X129175200Y-79308000D01*
%TO.C,U1*%
X119532400Y-72015800D02*
X123132400Y-72015800D01*
X119532400Y-72015800D02*
X117332400Y-72015800D01*
X119532400Y-65245800D02*
X121732400Y-65245800D01*
X119532400Y-65245800D02*
X117332400Y-65245800D01*
%TO.C,R6*%
X96188200Y-68403736D02*
X96188200Y-68857864D01*
X94718200Y-68403736D02*
X94718200Y-68857864D01*
%TO.C,C6*%
X126211000Y-65946348D02*
X126211000Y-66468852D01*
X124741000Y-65946348D02*
X124741000Y-66468852D01*
%TO.C,C2*%
X113039300Y-69872452D02*
X113039300Y-69349948D01*
X114509300Y-69872452D02*
X114509300Y-69349948D01*
%TO.C,U3*%
X100349900Y-63283900D02*
X98549900Y-63283900D01*
X100349900Y-63283900D02*
X101149900Y-63283900D01*
X100349900Y-66403900D02*
X99549900Y-66403900D01*
X100349900Y-66403900D02*
X101149900Y-66403900D01*
%TO.C,C12*%
X105925252Y-68553000D02*
X105402748Y-68553000D01*
X105925252Y-67083000D02*
X105402748Y-67083000D01*
%TO.C,C8*%
X119758052Y-64209600D02*
X119235548Y-64209600D01*
X119758052Y-62739600D02*
X119235548Y-62739600D01*
%TO.C,C5*%
X124741000Y-71406652D02*
X124741000Y-70884148D01*
X126211000Y-71406652D02*
X126211000Y-70884148D01*
%TO.C,J4*%
X98460400Y-76551800D02*
X93310400Y-76571800D01*
X98460400Y-76551800D02*
X98460400Y-79211800D01*
X93310400Y-76571800D02*
X93310400Y-79231800D01*
X98460400Y-79211800D02*
X93310400Y-79231800D01*
%TO.C,R2*%
X136294800Y-72277836D02*
X136294800Y-72731964D01*
X134824800Y-72277836D02*
X134824800Y-72731964D01*
%TO.C,R4*%
X99950600Y-78181564D02*
X99950600Y-77727436D01*
X101420600Y-78181564D02*
X101420600Y-77727436D01*
%TO.C,R1*%
X131265600Y-72277836D02*
X131265600Y-72731964D01*
X129795600Y-72277836D02*
X129795600Y-72731964D01*
%TD*%
%LPC*%
D13*
%TO.C,U2*%
X91000000Y-56000000D03*
D14*
X93540000Y-56000000D03*
X96080000Y-56000000D03*
X98620000Y-56000000D03*
X101160000Y-56000000D03*
X103700000Y-56000000D03*
X116400000Y-56000000D03*
X118940000Y-56000000D03*
X121480000Y-56000000D03*
X124020000Y-56000000D03*
X126560000Y-56000000D03*
X129100000Y-56000000D03*
%TD*%
D13*
%TO.C,D1*%
X104000000Y-78000000D03*
D14*
X106540000Y-78000000D03*
%TD*%
%TO.C,S1*%
X111069200Y-78000000D03*
X113609200Y-78000000D03*
%TD*%
D15*
%TO.C,C7*%
X120446800Y-60960000D03*
X118546800Y-60960000D03*
%TD*%
D16*
%TO.C,R3*%
X124743200Y-60121800D03*
X126568200Y-60121800D03*
%TD*%
D15*
%TO.C,C3*%
X101534000Y-61722000D03*
X99634000Y-61722000D03*
%TD*%
D17*
%TO.C,C13*%
X94706400Y-60960000D03*
X96606400Y-60960000D03*
%TD*%
D18*
%TO.C,L1*%
X103718000Y-63246000D03*
X108118000Y-63246000D03*
%TD*%
D19*
%TO.C,C4*%
X110947200Y-68661200D03*
X110947200Y-70561200D03*
%TD*%
%TO.C,C1*%
X99303000Y-67668300D03*
X99303000Y-69568300D03*
%TD*%
D14*
%TO.C,J3*%
X118120000Y-78000000D03*
D13*
X120660000Y-78000000D03*
D14*
X123200000Y-78000000D03*
X125740000Y-78000000D03*
%TD*%
D15*
%TO.C,C11*%
X106614000Y-70104000D03*
X104714000Y-70104000D03*
%TD*%
D20*
%TO.C,C10*%
X135610600Y-69403000D03*
X135610600Y-67503000D03*
%TD*%
%TO.C,C9*%
X130556000Y-69403000D03*
X130556000Y-67503000D03*
%TD*%
D16*
%TO.C,R5*%
X94743900Y-63601600D03*
X96568900Y-63601600D03*
%TD*%
D14*
%TO.C,J2*%
X135585200Y-77978000D03*
D13*
X133045200Y-77978000D03*
D14*
X130505200Y-77978000D03*
%TD*%
D21*
%TO.C,U1*%
X122394900Y-71555800D03*
X122394900Y-70905800D03*
X122394900Y-70255800D03*
X122394900Y-69605800D03*
X122394900Y-68955800D03*
X122394900Y-68305800D03*
X122394900Y-67655800D03*
X122394900Y-67005800D03*
X122394900Y-66355800D03*
X122394900Y-65705800D03*
X116669900Y-65705800D03*
X116669900Y-66355800D03*
X116669900Y-67005800D03*
X116669900Y-67655800D03*
X116669900Y-68305800D03*
X116669900Y-68955800D03*
X116669900Y-69605800D03*
X116669900Y-70255800D03*
X116669900Y-70905800D03*
X116669900Y-71555800D03*
%TD*%
D22*
%TO.C,R6*%
X95453200Y-67718300D03*
X95453200Y-69543300D03*
%TD*%
D19*
%TO.C,C6*%
X125476000Y-65257600D03*
X125476000Y-67157600D03*
%TD*%
D20*
%TO.C,C2*%
X113774300Y-70561200D03*
X113774300Y-68661200D03*
%TD*%
D23*
%TO.C,U3*%
X99212400Y-63893900D03*
X99212400Y-64843900D03*
X99212400Y-65793900D03*
X101487400Y-65793900D03*
X101487400Y-64843900D03*
X101487400Y-63893900D03*
%TD*%
D15*
%TO.C,C12*%
X106614000Y-67818000D03*
X104714000Y-67818000D03*
%TD*%
%TO.C,C8*%
X120446800Y-63474600D03*
X118546800Y-63474600D03*
%TD*%
D20*
%TO.C,C5*%
X125476000Y-72095400D03*
X125476000Y-70195400D03*
%TD*%
D13*
%TO.C,J4*%
X97180400Y-77901800D03*
D14*
X94640400Y-77901800D03*
%TD*%
D22*
%TO.C,R2*%
X135559800Y-71592400D03*
X135559800Y-73417400D03*
%TD*%
D24*
%TO.C,R4*%
X100685600Y-78867000D03*
X100685600Y-77042000D03*
%TD*%
D22*
%TO.C,R1*%
X130530600Y-71592400D03*
X130530600Y-73417400D03*
%TD*%
D14*
%TO.C,J1*%
X88440000Y-52070000D03*
X88440000Y-49530000D03*
X90980000Y-52070000D03*
X90980000Y-49530000D03*
X93520000Y-52070000D03*
X93520000Y-49530000D03*
X96060000Y-52070000D03*
X96060000Y-49530000D03*
X98600000Y-52070000D03*
X98600000Y-49530000D03*
X101140000Y-52070000D03*
X101140000Y-49530000D03*
X103680000Y-52070000D03*
X103680000Y-49530000D03*
X106220000Y-52070000D03*
X106220000Y-49530000D03*
X108760000Y-52070000D03*
X108760000Y-49530000D03*
X111300000Y-52070000D03*
X111300000Y-49530000D03*
X113840000Y-52070000D03*
X113840000Y-49530000D03*
X116380000Y-52070000D03*
X116380000Y-49530000D03*
X118920000Y-52070000D03*
X118920000Y-49530000D03*
X121460000Y-52070000D03*
X121460000Y-49530000D03*
X124000000Y-52070000D03*
X124000000Y-49530000D03*
X126540000Y-52070000D03*
X126540000Y-49530000D03*
X129080000Y-52070000D03*
X129080000Y-49530000D03*
X131620000Y-52070000D03*
X131620000Y-49530000D03*
X134160000Y-52070000D03*
X134160000Y-49530000D03*
X136700000Y-52070000D03*
X136700000Y-49530000D03*
%TD*%
%TO.C,J5*%
X89001600Y-67995800D03*
X89001600Y-70535800D03*
X89001600Y-73075800D03*
D13*
X89001600Y-75615800D03*
%TD*%
D25*
%TO.C,RV1*%
X89099000Y-63968000D03*
X91599000Y-61468000D03*
X89099000Y-58968000D03*
%TD*%
M02*
