%TF.GenerationSoftware,KiCad,Pcbnew,7.0.1*%
%TF.CreationDate,2023-06-20T17:21:24-05:00*%
%TF.ProjectId,squishbox1,73717569-7368-4626-9f78-312e6b696361,rev?*%
%TF.SameCoordinates,Original*%
%TF.FileFunction,Drillmap*%
%TF.FilePolarity,Positive*%
%FSLAX45Y45*%
G04 Gerber Fmt 4.5, Leading zero omitted, Abs format (unit mm)*
G04 Created by KiCad (PCBNEW 7.0.1) date 2023-06-20 17:21:24*
%MOMM*%
%LPD*%
G01*
G04 APERTURE LIST*
%ADD10C,0.100000*%
%ADD11C,0.200000*%
G04 APERTURE END LIST*
D10*
X8600000Y-4700000D02*
X13900000Y-4700000D01*
X13900000Y-8100000D01*
X8600000Y-8100000D01*
X8600000Y-4700000D01*
D11*
X8842619Y-8417524D02*
X8842619Y-8217524D01*
X8842619Y-8217524D02*
X8890238Y-8217524D01*
X8890238Y-8217524D02*
X8918810Y-8227048D01*
X8918810Y-8227048D02*
X8937857Y-8246095D01*
X8937857Y-8246095D02*
X8947381Y-8265143D01*
X8947381Y-8265143D02*
X8956905Y-8303238D01*
X8956905Y-8303238D02*
X8956905Y-8331809D01*
X8956905Y-8331809D02*
X8947381Y-8369905D01*
X8947381Y-8369905D02*
X8937857Y-8388952D01*
X8937857Y-8388952D02*
X8918810Y-8408000D01*
X8918810Y-8408000D02*
X8890238Y-8417524D01*
X8890238Y-8417524D02*
X8842619Y-8417524D01*
X9042619Y-8417524D02*
X9042619Y-8284190D01*
X9042619Y-8322286D02*
X9052143Y-8303238D01*
X9052143Y-8303238D02*
X9061667Y-8293714D01*
X9061667Y-8293714D02*
X9080714Y-8284190D01*
X9080714Y-8284190D02*
X9099762Y-8284190D01*
X9166429Y-8417524D02*
X9166429Y-8284190D01*
X9166429Y-8217524D02*
X9156905Y-8227048D01*
X9156905Y-8227048D02*
X9166429Y-8236571D01*
X9166429Y-8236571D02*
X9175952Y-8227048D01*
X9175952Y-8227048D02*
X9166429Y-8217524D01*
X9166429Y-8217524D02*
X9166429Y-8236571D01*
X9290238Y-8417524D02*
X9271190Y-8408000D01*
X9271190Y-8408000D02*
X9261667Y-8388952D01*
X9261667Y-8388952D02*
X9261667Y-8217524D01*
X9395000Y-8417524D02*
X9375952Y-8408000D01*
X9375952Y-8408000D02*
X9366429Y-8388952D01*
X9366429Y-8388952D02*
X9366429Y-8217524D01*
X9623571Y-8417524D02*
X9623571Y-8217524D01*
X9623571Y-8217524D02*
X9690238Y-8360381D01*
X9690238Y-8360381D02*
X9756905Y-8217524D01*
X9756905Y-8217524D02*
X9756905Y-8417524D01*
X9937857Y-8417524D02*
X9937857Y-8312762D01*
X9937857Y-8312762D02*
X9928333Y-8293714D01*
X9928333Y-8293714D02*
X9909286Y-8284190D01*
X9909286Y-8284190D02*
X9871190Y-8284190D01*
X9871190Y-8284190D02*
X9852143Y-8293714D01*
X9937857Y-8408000D02*
X9918810Y-8417524D01*
X9918810Y-8417524D02*
X9871190Y-8417524D01*
X9871190Y-8417524D02*
X9852143Y-8408000D01*
X9852143Y-8408000D02*
X9842619Y-8388952D01*
X9842619Y-8388952D02*
X9842619Y-8369905D01*
X9842619Y-8369905D02*
X9852143Y-8350857D01*
X9852143Y-8350857D02*
X9871190Y-8341333D01*
X9871190Y-8341333D02*
X9918810Y-8341333D01*
X9918810Y-8341333D02*
X9937857Y-8331809D01*
X10033095Y-8284190D02*
X10033095Y-8484190D01*
X10033095Y-8293714D02*
X10052143Y-8284190D01*
X10052143Y-8284190D02*
X10090238Y-8284190D01*
X10090238Y-8284190D02*
X10109286Y-8293714D01*
X10109286Y-8293714D02*
X10118810Y-8303238D01*
X10118810Y-8303238D02*
X10128333Y-8322286D01*
X10128333Y-8322286D02*
X10128333Y-8379428D01*
X10128333Y-8379428D02*
X10118810Y-8398476D01*
X10118810Y-8398476D02*
X10109286Y-8408000D01*
X10109286Y-8408000D02*
X10090238Y-8417524D01*
X10090238Y-8417524D02*
X10052143Y-8417524D01*
X10052143Y-8417524D02*
X10033095Y-8408000D01*
X10214048Y-8398476D02*
X10223571Y-8408000D01*
X10223571Y-8408000D02*
X10214048Y-8417524D01*
X10214048Y-8417524D02*
X10204524Y-8408000D01*
X10204524Y-8408000D02*
X10214048Y-8398476D01*
X10214048Y-8398476D02*
X10214048Y-8417524D01*
X10214048Y-8293714D02*
X10223571Y-8303238D01*
X10223571Y-8303238D02*
X10214048Y-8312762D01*
X10214048Y-8312762D02*
X10204524Y-8303238D01*
X10204524Y-8303238D02*
X10214048Y-8293714D01*
X10214048Y-8293714D02*
X10214048Y-8312762D01*
M02*
