M48
; DRILL file {KiCad 7.0.1} date Tue Jun 20 17:21:23 2023
; FORMAT={-:-/ absolute / metric / decimal}
; #@! TF.CreationDate,2023-06-20T17:21:23-05:00
; #@! TF.GenerationSoftware,Kicad,Pcbnew,7.0.1
; #@! TF.FileFunction,Plated,1,2,PTH
FMAT,2
METRIC
; #@! TA.AperFunction,Plated,PTH,ViaDrill
T1C0.400
; #@! TA.AperFunction,Plated,PTH,ComponentDrill
T2C0.900
; #@! TA.AperFunction,Plated,PTH,ComponentDrill
T3C1.000
%
G90
G05
T1
X95.504Y-70.612
X96.52Y-70.612
X97.79Y-65.794
X98.552Y-70.612
X99.568Y-70.612
X101.6Y-66.548
X103.632Y-67.564
X103.632Y-68.58
X103.632Y-69.596
X103.632Y-70.612
X105.156Y-61.214
X105.156Y-62.23
X105.156Y-63.246
X105.156Y-64.262
X105.156Y-65.278
X106.68Y-61.214
X106.68Y-62.23
X106.68Y-63.246
X106.68Y-64.262
X106.68Y-65.278
X107.696Y-67.564
X107.696Y-68.58
X107.696Y-69.596
X107.696Y-70.612
X118.324Y-66.612
X119.2Y-59.4
X121.049Y-68.854
X128.155Y-71.592
T2
X89.099Y-58.968
X89.099Y-63.968
X91.599Y-61.468
T3
X88.44Y-49.53
X88.44Y-52.07
X89.002Y-67.996
X89.002Y-70.536
X89.002Y-73.076
X89.002Y-75.616
X90.98Y-49.53
X90.98Y-52.07
X91.0Y-56.0
X93.52Y-49.53
X93.52Y-52.07
X93.54Y-56.0
X94.64Y-77.902
X96.06Y-49.53
X96.06Y-52.07
X96.08Y-56.0
X97.18Y-77.902
X98.6Y-49.53
X98.6Y-52.07
X98.62Y-56.0
X101.14Y-49.53
X101.14Y-52.07
X101.16Y-56.0
X103.68Y-49.53
X103.68Y-52.07
X103.7Y-56.0
X104.0Y-78.0
X106.22Y-49.53
X106.22Y-52.07
X106.54Y-78.0
X108.76Y-49.53
X108.76Y-52.07
X111.069Y-78.0
X111.3Y-49.53
X111.3Y-52.07
X113.609Y-78.0
X113.84Y-49.53
X113.84Y-52.07
X116.38Y-49.53
X116.38Y-52.07
X116.4Y-56.0
X118.12Y-78.0
X118.92Y-49.53
X118.92Y-52.07
X118.94Y-56.0
X120.66Y-78.0
X121.46Y-49.53
X121.46Y-52.07
X121.48Y-56.0
X123.2Y-78.0
X124.0Y-49.53
X124.0Y-52.07
X124.02Y-56.0
X125.74Y-78.0
X126.54Y-49.53
X126.54Y-52.07
X126.56Y-56.0
X129.08Y-49.53
X129.08Y-52.07
X129.1Y-56.0
X130.505Y-77.978
X131.62Y-49.53
X131.62Y-52.07
X133.045Y-77.978
X134.16Y-49.53
X134.16Y-52.07
X135.585Y-77.978
X136.7Y-49.53
X136.7Y-52.07
T0
M30
