%TF.GenerationSoftware,KiCad,Pcbnew,7.0.1*%
%TF.CreationDate,2023-07-06T22:47:11-05:00*%
%TF.ProjectId,squishbox1,73717569-7368-4626-9f78-312e6b696361,rev?*%
%TF.SameCoordinates,Original*%
%TF.FileFunction,Soldermask,Bot*%
%TF.FilePolarity,Negative*%
%FSLAX46Y46*%
G04 Gerber Fmt 4.6, Leading zero omitted, Abs format (unit mm)*
G04 Created by KiCad (PCBNEW 7.0.1) date 2023-07-06 22:47:11*
%MOMM*%
%LPD*%
G01*
G04 APERTURE LIST*
%ADD10R,1.700000X1.700000*%
%ADD11O,1.700000X1.700000*%
%ADD12C,1.620000*%
G04 APERTURE END LIST*
D10*
%TO.C,U2*%
X91000000Y-56000000D03*
D11*
X93540000Y-56000000D03*
X96080000Y-56000000D03*
X98620000Y-56000000D03*
X101160000Y-56000000D03*
X103700000Y-56000000D03*
X116400000Y-56000000D03*
X118940000Y-56000000D03*
X121480000Y-56000000D03*
X124020000Y-56000000D03*
X126560000Y-56000000D03*
X129100000Y-56000000D03*
%TD*%
D10*
%TO.C,D1*%
X104000000Y-78000000D03*
D11*
X106540000Y-78000000D03*
%TD*%
%TO.C,S1*%
X111069200Y-78000000D03*
X113609200Y-78000000D03*
%TD*%
%TO.C,J3*%
X118120000Y-78000000D03*
D10*
X120660000Y-78000000D03*
D11*
X123200000Y-78000000D03*
X125740000Y-78000000D03*
%TD*%
%TO.C,J2*%
X135585200Y-77978000D03*
D10*
X133045200Y-77978000D03*
D11*
X130505200Y-77978000D03*
%TD*%
D10*
%TO.C,J4*%
X97180400Y-77901800D03*
D11*
X94640400Y-77901800D03*
%TD*%
%TO.C,J1*%
X88440000Y-52070000D03*
X88440000Y-49530000D03*
X90980000Y-52070000D03*
X90980000Y-49530000D03*
X93520000Y-52070000D03*
X93520000Y-49530000D03*
X96060000Y-52070000D03*
X96060000Y-49530000D03*
X98600000Y-52070000D03*
X98600000Y-49530000D03*
X101140000Y-52070000D03*
X101140000Y-49530000D03*
X103680000Y-52070000D03*
X103680000Y-49530000D03*
X106220000Y-52070000D03*
X106220000Y-49530000D03*
X108760000Y-52070000D03*
X108760000Y-49530000D03*
X111300000Y-52070000D03*
X111300000Y-49530000D03*
X113840000Y-52070000D03*
X113840000Y-49530000D03*
X116380000Y-52070000D03*
X116380000Y-49530000D03*
X118920000Y-52070000D03*
X118920000Y-49530000D03*
X121460000Y-52070000D03*
X121460000Y-49530000D03*
X124000000Y-52070000D03*
X124000000Y-49530000D03*
X126540000Y-52070000D03*
X126540000Y-49530000D03*
X129080000Y-52070000D03*
X129080000Y-49530000D03*
X131620000Y-52070000D03*
X131620000Y-49530000D03*
X134160000Y-52070000D03*
X134160000Y-49530000D03*
X136700000Y-52070000D03*
X136700000Y-49530000D03*
%TD*%
%TO.C,J5*%
X89001600Y-67995800D03*
X89001600Y-70535800D03*
X89001600Y-73075800D03*
D10*
X89001600Y-75615800D03*
%TD*%
D12*
%TO.C,RV1*%
X89099000Y-63968000D03*
X91599000Y-61468000D03*
X89099000Y-58968000D03*
%TD*%
M02*
