%TF.GenerationSoftware,KiCad,Pcbnew,7.0.1*%
%TF.CreationDate,2023-07-06T22:47:11-05:00*%
%TF.ProjectId,squishbox1,73717569-7368-4626-9f78-312e6b696361,rev?*%
%TF.SameCoordinates,Original*%
%TF.FileFunction,Copper,L1,Top*%
%TF.FilePolarity,Positive*%
%FSLAX46Y46*%
G04 Gerber Fmt 4.6, Leading zero omitted, Abs format (unit mm)*
G04 Created by KiCad (PCBNEW 7.0.1) date 2023-07-06 22:47:11*
%MOMM*%
%LPD*%
G01*
G04 APERTURE LIST*
G04 Aperture macros list*
%AMRoundRect*
0 Rectangle with rounded corners*
0 $1 Rounding radius*
0 $2 $3 $4 $5 $6 $7 $8 $9 X,Y pos of 4 corners*
0 Add a 4 corners polygon primitive as box body*
4,1,4,$2,$3,$4,$5,$6,$7,$8,$9,$2,$3,0*
0 Add four circle primitives for the rounded corners*
1,1,$1+$1,$2,$3*
1,1,$1+$1,$4,$5*
1,1,$1+$1,$6,$7*
1,1,$1+$1,$8,$9*
0 Add four rect primitives between the rounded corners*
20,1,$1+$1,$2,$3,$4,$5,0*
20,1,$1+$1,$4,$5,$6,$7,0*
20,1,$1+$1,$6,$7,$8,$9,0*
20,1,$1+$1,$8,$9,$2,$3,0*%
G04 Aperture macros list end*
%TA.AperFunction,ComponentPad*%
%ADD10R,1.700000X1.700000*%
%TD*%
%TA.AperFunction,ComponentPad*%
%ADD11O,1.700000X1.700000*%
%TD*%
%TA.AperFunction,SMDPad,CuDef*%
%ADD12RoundRect,0.250000X0.250000X0.475000X-0.250000X0.475000X-0.250000X-0.475000X0.250000X-0.475000X0*%
%TD*%
%TA.AperFunction,SMDPad,CuDef*%
%ADD13RoundRect,0.250000X-0.262500X-0.450000X0.262500X-0.450000X0.262500X0.450000X-0.262500X0.450000X0*%
%TD*%
%TA.AperFunction,SMDPad,CuDef*%
%ADD14RoundRect,0.250000X-0.250000X-0.475000X0.250000X-0.475000X0.250000X0.475000X-0.250000X0.475000X0*%
%TD*%
%TA.AperFunction,SMDPad,CuDef*%
%ADD15R,1.600000X2.500000*%
%TD*%
%TA.AperFunction,SMDPad,CuDef*%
%ADD16RoundRect,0.250000X-0.475000X0.250000X-0.475000X-0.250000X0.475000X-0.250000X0.475000X0.250000X0*%
%TD*%
%TA.AperFunction,SMDPad,CuDef*%
%ADD17RoundRect,0.250000X0.475000X-0.250000X0.475000X0.250000X-0.475000X0.250000X-0.475000X-0.250000X0*%
%TD*%
%TA.AperFunction,SMDPad,CuDef*%
%ADD18RoundRect,0.100000X0.637500X0.100000X-0.637500X0.100000X-0.637500X-0.100000X0.637500X-0.100000X0*%
%TD*%
%TA.AperFunction,SMDPad,CuDef*%
%ADD19RoundRect,0.250000X-0.450000X0.262500X-0.450000X-0.262500X0.450000X-0.262500X0.450000X0.262500X0*%
%TD*%
%TA.AperFunction,SMDPad,CuDef*%
%ADD20RoundRect,0.150000X-0.512500X-0.150000X0.512500X-0.150000X0.512500X0.150000X-0.512500X0.150000X0*%
%TD*%
%TA.AperFunction,SMDPad,CuDef*%
%ADD21RoundRect,0.250000X0.450000X-0.262500X0.450000X0.262500X-0.450000X0.262500X-0.450000X-0.262500X0*%
%TD*%
%TA.AperFunction,ComponentPad*%
%ADD22C,1.620000*%
%TD*%
%TA.AperFunction,ViaPad*%
%ADD23C,0.800000*%
%TD*%
%TA.AperFunction,Conductor*%
%ADD24C,0.500000*%
%TD*%
%TA.AperFunction,Conductor*%
%ADD25C,0.400000*%
%TD*%
%TA.AperFunction,Conductor*%
%ADD26C,1.000000*%
%TD*%
%TA.AperFunction,Conductor*%
%ADD27C,0.250000*%
%TD*%
%TA.AperFunction,Conductor*%
%ADD28C,0.600000*%
%TD*%
G04 APERTURE END LIST*
D10*
%TO.P,U2,1,VSS*%
%TO.N,GND*%
X91000000Y-56000000D03*
D11*
%TO.P,U2,2,VDD*%
%TO.N,+5V*%
X93540000Y-56000000D03*
%TO.P,U2,3,VO*%
%TO.N,Net-(U2-VO)*%
X96080000Y-56000000D03*
%TO.P,U2,4,RS*%
%TO.N,Net-(J1-SDA{slash}GPIO2)*%
X98620000Y-56000000D03*
%TO.P,U2,5,R/~{W}*%
%TO.N,GND*%
X101160000Y-56000000D03*
%TO.P,U2,6,E*%
%TO.N,Net-(J1-SCL{slash}GPIO3)*%
X103700000Y-56000000D03*
%TO.P,U2,11,DB4*%
%TO.N,Net-(J1-SCLK0{slash}GPIO11)*%
X116400000Y-56000000D03*
%TO.P,U2,12,DB5*%
%TO.N,Net-(J1-GCLK1{slash}GPIO5)*%
X118940000Y-56000000D03*
%TO.P,U2,13,DB6*%
%TO.N,Net-(J1-GCLK2{slash}GPIO6)*%
X121480000Y-56000000D03*
%TO.P,U2,14,DB7*%
%TO.N,Net-(J1-PWM1{slash}GPIO13)*%
X124020000Y-56000000D03*
%TO.P,U2,15,A/VEE*%
%TO.N,Net-(U2-A{slash}VEE)*%
X126560000Y-56000000D03*
%TO.P,U2,16,K*%
%TO.N,GND*%
X129100000Y-56000000D03*
%TD*%
D10*
%TO.P,D1,1,Pin_1*%
%TO.N,Net-(D1-Pin_1)*%
X104000000Y-78000000D03*
D11*
%TO.P,D1,2,Pin_2*%
%TO.N,Net-(D1-Pin_2)*%
X106540000Y-78000000D03*
%TD*%
%TO.P,S1,1,Pin_1*%
%TO.N,Net-(J1-GPIO27)*%
X111069200Y-78000000D03*
%TO.P,S1,2,Pin_2*%
%TO.N,GND*%
X113609200Y-78000000D03*
%TD*%
D12*
%TO.P,C7,1*%
%TO.N,+3V3*%
X120446800Y-60960000D03*
%TO.P,C7,2*%
%TO.N,GND*%
X118546800Y-60960000D03*
%TD*%
D13*
%TO.P,R3,1*%
%TO.N,+5V*%
X124743200Y-60121800D03*
%TO.P,R3,2*%
%TO.N,Net-(U2-A{slash}VEE)*%
X126568200Y-60121800D03*
%TD*%
D12*
%TO.P,C3,1*%
%TO.N,/SW*%
X101534000Y-61722000D03*
%TO.P,C3,2*%
%TO.N,Net-(U3-BST)*%
X99634000Y-61722000D03*
%TD*%
D14*
%TO.P,C13,1*%
%TO.N,/5.2V*%
X94706400Y-60960000D03*
%TO.P,C13,2*%
%TO.N,/FB*%
X96606400Y-60960000D03*
%TD*%
D15*
%TO.P,L1,1*%
%TO.N,/SW*%
X103718000Y-63246000D03*
%TO.P,L1,2*%
%TO.N,/5.2V*%
X108118000Y-63246000D03*
%TD*%
D16*
%TO.P,C4,1*%
%TO.N,GND*%
X110947200Y-68661200D03*
%TO.P,C4,2*%
%TO.N,Net-(U1-LDOO)*%
X110947200Y-70561200D03*
%TD*%
%TO.P,C1,1*%
%TO.N,/VIN*%
X99303000Y-67668300D03*
%TO.P,C1,2*%
%TO.N,GND*%
X99303000Y-69568300D03*
%TD*%
D11*
%TO.P,J3,1,Pin_1*%
%TO.N,/GPIO22*%
X118120000Y-78000000D03*
D10*
%TO.P,J3,2,Pin_2*%
%TO.N,GND*%
X120660000Y-78000000D03*
D11*
%TO.P,J3,3,Pin_3*%
%TO.N,Net-(J1-MOSI0{slash}GPIO10)*%
X123200000Y-78000000D03*
%TO.P,J3,4,Pin_4*%
%TO.N,Net-(J1-MISO0{slash}GPIO9)*%
X125740000Y-78000000D03*
%TD*%
D12*
%TO.P,C11,1*%
%TO.N,/5.2V*%
X106614000Y-70104000D03*
%TO.P,C11,2*%
%TO.N,GND*%
X104714000Y-70104000D03*
%TD*%
D17*
%TO.P,C10,1*%
%TO.N,/ROUT*%
X135610600Y-69403000D03*
%TO.P,C10,2*%
%TO.N,GND*%
X135610600Y-67503000D03*
%TD*%
%TO.P,C9,1*%
%TO.N,/LOUT*%
X130556000Y-69403000D03*
%TO.P,C9,2*%
%TO.N,GND*%
X130556000Y-67503000D03*
%TD*%
D13*
%TO.P,R5,1*%
%TO.N,/5.2V*%
X94743900Y-63601600D03*
%TO.P,R5,2*%
%TO.N,/FB*%
X96568900Y-63601600D03*
%TD*%
D11*
%TO.P,J2,1,Pin_1*%
%TO.N,/ROUT*%
X135585200Y-77978000D03*
D10*
%TO.P,J2,2,Pin_2*%
%TO.N,GND*%
X133045200Y-77978000D03*
D11*
%TO.P,J2,3,Pin_3*%
%TO.N,/LOUT*%
X130505200Y-77978000D03*
%TD*%
D18*
%TO.P,U1,1,CPVDD*%
%TO.N,+3V3*%
X122394900Y-71555800D03*
%TO.P,U1,2,CAPP*%
%TO.N,Net-(U1-CAPP)*%
X122394900Y-70905800D03*
%TO.P,U1,3,CPGND*%
%TO.N,GND*%
X122394900Y-70255800D03*
%TO.P,U1,4,CAPM*%
%TO.N,Net-(U1-CAPM)*%
X122394900Y-69605800D03*
%TO.P,U1,5,VNEG*%
%TO.N,Net-(U1-VNEG)*%
X122394900Y-68955800D03*
%TO.P,U1,6,OUTL*%
%TO.N,Net-(U1-OUTL)*%
X122394900Y-68305800D03*
%TO.P,U1,7,OUTR*%
%TO.N,Net-(U1-OUTR)*%
X122394900Y-67655800D03*
%TO.P,U1,8,AVDD*%
%TO.N,+3V3*%
X122394900Y-67005800D03*
%TO.P,U1,9,AGND*%
%TO.N,GND*%
X122394900Y-66355800D03*
%TO.P,U1,10,DEMP*%
X122394900Y-65705800D03*
%TO.P,U1,11,FLT*%
X116669900Y-65705800D03*
%TO.P,U1,12,SCK*%
X116669900Y-66355800D03*
%TO.P,U1,13,BCK*%
%TO.N,Net-(J1-GPIO18{slash}PWM0)*%
X116669900Y-67005800D03*
%TO.P,U1,14,DIN*%
%TO.N,Net-(J1-GPIO21{slash}SCLK1)*%
X116669900Y-67655800D03*
%TO.P,U1,15,LRCK*%
%TO.N,Net-(J1-GPIO19{slash}MISO1)*%
X116669900Y-68305800D03*
%TO.P,U1,16,FMT*%
%TO.N,GND*%
X116669900Y-68955800D03*
%TO.P,U1,17,XSMT*%
%TO.N,+3V3*%
X116669900Y-69605800D03*
%TO.P,U1,18,LDOO*%
%TO.N,Net-(U1-LDOO)*%
X116669900Y-70255800D03*
%TO.P,U1,19,DGND*%
%TO.N,GND*%
X116669900Y-70905800D03*
%TO.P,U1,20,DVDD*%
%TO.N,+3V3*%
X116669900Y-71555800D03*
%TD*%
D19*
%TO.P,R6,1*%
%TO.N,/FB*%
X95453200Y-67718300D03*
%TO.P,R6,2*%
%TO.N,GND*%
X95453200Y-69543300D03*
%TD*%
D16*
%TO.P,C6,1*%
%TO.N,GND*%
X125476000Y-65257600D03*
%TO.P,C6,2*%
%TO.N,Net-(U1-VNEG)*%
X125476000Y-67157600D03*
%TD*%
D17*
%TO.P,C2,1*%
%TO.N,Net-(U1-LDOO)*%
X113774300Y-70561200D03*
%TO.P,C2,2*%
%TO.N,GND*%
X113774300Y-68661200D03*
%TD*%
D20*
%TO.P,U3,1,FB*%
%TO.N,/FB*%
X99212400Y-63893900D03*
%TO.P,U3,2,EN*%
%TO.N,/VIN*%
X99212400Y-64843900D03*
%TO.P,U3,3,IN*%
X99212400Y-65793900D03*
%TO.P,U3,4,GND*%
%TO.N,GND*%
X101487400Y-65793900D03*
%TO.P,U3,5,SW*%
%TO.N,/SW*%
X101487400Y-64843900D03*
%TO.P,U3,6,BST*%
%TO.N,Net-(U3-BST)*%
X101487400Y-63893900D03*
%TD*%
D12*
%TO.P,C12,1*%
%TO.N,/5.2V*%
X106614000Y-67818000D03*
%TO.P,C12,2*%
%TO.N,GND*%
X104714000Y-67818000D03*
%TD*%
%TO.P,C8,1*%
%TO.N,+3V3*%
X120446800Y-63474600D03*
%TO.P,C8,2*%
%TO.N,GND*%
X118546800Y-63474600D03*
%TD*%
D17*
%TO.P,C5,1*%
%TO.N,Net-(U1-CAPP)*%
X125476000Y-72095400D03*
%TO.P,C5,2*%
%TO.N,Net-(U1-CAPM)*%
X125476000Y-70195400D03*
%TD*%
D10*
%TO.P,J4,1,Pin_1*%
%TO.N,GND*%
X97180400Y-77901800D03*
D11*
%TO.P,J4,2,Pin_2*%
%TO.N,/VIN*%
X94640400Y-77901800D03*
%TD*%
D19*
%TO.P,R2,1*%
%TO.N,Net-(U1-OUTR)*%
X135559800Y-71592400D03*
%TO.P,R2,2*%
%TO.N,/ROUT*%
X135559800Y-73417400D03*
%TD*%
D21*
%TO.P,R4,1*%
%TO.N,GND*%
X100685600Y-78867000D03*
%TO.P,R4,2*%
%TO.N,Net-(D1-Pin_1)*%
X100685600Y-77042000D03*
%TD*%
D19*
%TO.P,R1,1*%
%TO.N,Net-(U1-OUTL)*%
X130530600Y-71592400D03*
%TO.P,R1,2*%
%TO.N,/LOUT*%
X130530600Y-73417400D03*
%TD*%
D11*
%TO.P,J1,1,3V3*%
%TO.N,+3V3*%
X88440000Y-52070000D03*
%TO.P,J1,2,5V*%
%TO.N,/5.2V*%
X88440000Y-49530000D03*
%TO.P,J1,3,SDA/GPIO2*%
%TO.N,Net-(J1-SDA{slash}GPIO2)*%
X90980000Y-52070000D03*
%TO.P,J1,4,5V*%
%TO.N,+5V*%
X90980000Y-49530000D03*
%TO.P,J1,5,SCL/GPIO3*%
%TO.N,Net-(J1-SCL{slash}GPIO3)*%
X93520000Y-52070000D03*
%TO.P,J1,6,GND*%
%TO.N,unconnected-(J1-GND-Pad6)*%
X93520000Y-49530000D03*
%TO.P,J1,7,GCLK0/GPIO4*%
%TO.N,unconnected-(J1-GCLK0{slash}GPIO4-Pad7)*%
X96060000Y-52070000D03*
%TO.P,J1,8,GPIO14/TXD*%
%TO.N,Net-(J1-GPIO14{slash}TXD)*%
X96060000Y-49530000D03*
%TO.P,J1,9,GND*%
%TO.N,GND*%
X98600000Y-52070000D03*
%TO.P,J1,10,GPIO15/RXD*%
%TO.N,Net-(J1-GPIO15{slash}RXD)*%
X98600000Y-49530000D03*
%TO.P,J1,11,GPIO17*%
%TO.N,Net-(D1-Pin_2)*%
X101140000Y-52070000D03*
%TO.P,J1,12,GPIO18/PWM0*%
%TO.N,Net-(J1-GPIO18{slash}PWM0)*%
X101140000Y-49530000D03*
%TO.P,J1,13,GPIO27*%
%TO.N,Net-(J1-GPIO27)*%
X103680000Y-52070000D03*
%TO.P,J1,14,GND*%
%TO.N,unconnected-(J1-GND-Pad14)*%
X103680000Y-49530000D03*
%TO.P,J1,15,GPIO22*%
%TO.N,/GPIO22*%
X106220000Y-52070000D03*
%TO.P,J1,16,GPIO23*%
%TO.N,unconnected-(J1-GPIO23-Pad16)*%
X106220000Y-49530000D03*
%TO.P,J1,17,3V3*%
%TO.N,unconnected-(J1-3V3-Pad17)*%
X108760000Y-52070000D03*
%TO.P,J1,18,GPIO24*%
%TO.N,unconnected-(J1-GPIO24-Pad18)*%
X108760000Y-49530000D03*
%TO.P,J1,19,MOSI0/GPIO10*%
%TO.N,Net-(J1-MOSI0{slash}GPIO10)*%
X111300000Y-52070000D03*
%TO.P,J1,20,GND*%
%TO.N,unconnected-(J1-GND-Pad20)*%
X111300000Y-49530000D03*
%TO.P,J1,21,MISO0/GPIO9*%
%TO.N,Net-(J1-MISO0{slash}GPIO9)*%
X113840000Y-52070000D03*
%TO.P,J1,22,GPIO25*%
%TO.N,unconnected-(J1-GPIO25-Pad22)*%
X113840000Y-49530000D03*
%TO.P,J1,23,SCLK0/GPIO11*%
%TO.N,Net-(J1-SCLK0{slash}GPIO11)*%
X116380000Y-52070000D03*
%TO.P,J1,24,~{CE0}/GPIO8*%
%TO.N,unconnected-(J1-~{CE0}{slash}GPIO8-Pad24)*%
X116380000Y-49530000D03*
%TO.P,J1,25,GND*%
%TO.N,unconnected-(J1-GND-Pad25)*%
X118920000Y-52070000D03*
%TO.P,J1,26,~{CE1}/GPIO7*%
%TO.N,unconnected-(J1-~{CE1}{slash}GPIO7-Pad26)*%
X118920000Y-49530000D03*
%TO.P,J1,27,ID_SD/GPIO0*%
%TO.N,unconnected-(J1-ID_SD{slash}GPIO0-Pad27)*%
X121460000Y-52070000D03*
%TO.P,J1,28,ID_SC/GPIO1*%
%TO.N,unconnected-(J1-ID_SC{slash}GPIO1-Pad28)*%
X121460000Y-49530000D03*
%TO.P,J1,29,GCLK1/GPIO5*%
%TO.N,Net-(J1-GCLK1{slash}GPIO5)*%
X124000000Y-52070000D03*
%TO.P,J1,30,GND*%
%TO.N,unconnected-(J1-GND-Pad30)*%
X124000000Y-49530000D03*
%TO.P,J1,31,GCLK2/GPIO6*%
%TO.N,Net-(J1-GCLK2{slash}GPIO6)*%
X126540000Y-52070000D03*
%TO.P,J1,32,PWM0/GPIO12*%
%TO.N,unconnected-(J1-PWM0{slash}GPIO12-Pad32)*%
X126540000Y-49530000D03*
%TO.P,J1,33,PWM1/GPIO13*%
%TO.N,Net-(J1-PWM1{slash}GPIO13)*%
X129080000Y-52070000D03*
%TO.P,J1,34,GND*%
%TO.N,unconnected-(J1-GND-Pad34)*%
X129080000Y-49530000D03*
%TO.P,J1,35,GPIO19/MISO1*%
%TO.N,Net-(J1-GPIO19{slash}MISO1)*%
X131620000Y-52070000D03*
%TO.P,J1,36,GPIO16*%
%TO.N,unconnected-(J1-GPIO16-Pad36)*%
X131620000Y-49530000D03*
%TO.P,J1,37,GPIO26*%
%TO.N,unconnected-(J1-GPIO26-Pad37)*%
X134160000Y-52070000D03*
%TO.P,J1,38,GPIO20/MOSI1*%
%TO.N,unconnected-(J1-GPIO20{slash}MOSI1-Pad38)*%
X134160000Y-49530000D03*
%TO.P,J1,39,GND*%
%TO.N,GND*%
X136700000Y-52070000D03*
%TO.P,J1,40,GPIO21/SCLK1*%
%TO.N,Net-(J1-GPIO21{slash}SCLK1)*%
X136700000Y-49530000D03*
%TD*%
%TO.P,J5,1,Pin_1*%
%TO.N,+5V*%
X89001600Y-67995800D03*
%TO.P,J5,2,Pin_2*%
%TO.N,Net-(J1-GPIO14{slash}TXD)*%
X89001600Y-70535800D03*
%TO.P,J5,3,Pin_3*%
%TO.N,Net-(J1-GPIO15{slash}RXD)*%
X89001600Y-73075800D03*
D10*
%TO.P,J5,4,Pin_4*%
%TO.N,GND*%
X89001600Y-75615800D03*
%TD*%
D22*
%TO.P,RV1,1,1*%
%TO.N,+5V*%
X89099000Y-63968000D03*
%TO.P,RV1,2,2*%
%TO.N,Net-(U2-VO)*%
X91599000Y-61468000D03*
%TO.P,RV1,3,3*%
%TO.N,GND*%
X89099000Y-58968000D03*
%TD*%
D23*
%TO.N,GND*%
X103632000Y-67564000D03*
X103632000Y-69596000D03*
X96520000Y-70612000D03*
X103632000Y-68580000D03*
X98552000Y-70612000D03*
X99568000Y-70612000D03*
X119200000Y-59400000D03*
X103632000Y-70612000D03*
X101600000Y-66548000D03*
X95504000Y-70612000D03*
%TO.N,/5.2V*%
X106680000Y-63246000D03*
X107696000Y-69596000D03*
X106680000Y-62230000D03*
X107696000Y-68580000D03*
X106680000Y-64262000D03*
X106680000Y-65278000D03*
X107696000Y-67564000D03*
X106680000Y-61214000D03*
X107696000Y-70612000D03*
%TO.N,Net-(J1-GPIO21{slash}SCLK1)*%
X118323900Y-66611800D03*
%TO.N,Net-(U1-OUTL)*%
X128154700Y-71592400D03*
X121049500Y-68853700D03*
%TO.N,/VIN*%
X97790000Y-65793900D03*
%TO.N,/SW*%
X105156000Y-63246000D03*
X105156000Y-65278000D03*
X105156000Y-64262000D03*
X105156000Y-62230000D03*
X105156000Y-61214000D03*
%TD*%
D24*
%TO.N,GND*%
X102751499Y-57591499D02*
X101160000Y-56000000D01*
X129100000Y-65257600D02*
X129100000Y-56000000D01*
D25*
X126240949Y-71145400D02*
X124649700Y-71145400D01*
D24*
X110947200Y-68661200D02*
X110947200Y-58115200D01*
X101487400Y-66660600D02*
X101600000Y-66548000D01*
X136278000Y-56000000D02*
X129100000Y-56000000D01*
D26*
X97180400Y-70967600D02*
X96520000Y-71628000D01*
D24*
X113609200Y-73202817D02*
X113609200Y-78000000D01*
X137325000Y-69217400D02*
X137325000Y-78076678D01*
D26*
X97180400Y-73304400D02*
X97180400Y-77901800D01*
X97536000Y-72644000D02*
X97180400Y-72999600D01*
D24*
X127508000Y-79325000D02*
X127500000Y-79317000D01*
D26*
X97180400Y-69568300D02*
X97180400Y-70256400D01*
D27*
X116669900Y-66355800D02*
X116669900Y-65705800D01*
D24*
X110947200Y-68661200D02*
X113774300Y-68661200D01*
D26*
X97180400Y-72999600D02*
X96520000Y-72644000D01*
D24*
X113558383Y-73152000D02*
X104394000Y-73152000D01*
D26*
X97180400Y-71272400D02*
X97536000Y-71628000D01*
X96520000Y-70612000D02*
X97180400Y-70967600D01*
X96520000Y-71628000D02*
X97180400Y-71272400D01*
D24*
X101600000Y-66548000D02*
X101487400Y-66435400D01*
X104394000Y-67564000D02*
X103632000Y-67564000D01*
D26*
X97180400Y-69568300D02*
X99303000Y-69568300D01*
D25*
X116669900Y-70905800D02*
X115804583Y-70905800D01*
D24*
X131698200Y-79325000D02*
X133045200Y-77978000D01*
D26*
X97536000Y-70612000D02*
X96520000Y-70612000D01*
D24*
X101487400Y-67383900D02*
X101487400Y-66660600D01*
X110947200Y-58115200D02*
X110423499Y-57591499D01*
X120672000Y-78000000D02*
X121997000Y-79325000D01*
D25*
X122394900Y-65705800D02*
X125027800Y-65705800D01*
D24*
X116669900Y-65351500D02*
X116669900Y-65705800D01*
D26*
X95453200Y-69543300D02*
X95478200Y-69568300D01*
D24*
X136123678Y-79278000D02*
X134345200Y-79278000D01*
X136700000Y-52070000D02*
X136700000Y-55578000D01*
D26*
X97180400Y-70256400D02*
X97536000Y-70612000D01*
D24*
X110423499Y-57591499D02*
X102751499Y-57591499D01*
X130556000Y-67503000D02*
X129100000Y-66047000D01*
X127500000Y-79317000D02*
X127500000Y-72404451D01*
X121997000Y-79325000D02*
X131698200Y-79325000D01*
X104394000Y-73152000D02*
X104394000Y-67564000D01*
X118546800Y-60053200D02*
X119200000Y-59400000D01*
D25*
X123760100Y-70255800D02*
X122394900Y-70255800D01*
D24*
X129100000Y-65257600D02*
X125476000Y-65257600D01*
X135610600Y-67503000D02*
X137325000Y-69217400D01*
X135610600Y-67503000D02*
X130556000Y-67503000D01*
X97180400Y-77901800D02*
X98729800Y-77901800D01*
D25*
X114068900Y-68955800D02*
X116669900Y-68955800D01*
D24*
X92404000Y-57404000D02*
X99756000Y-57404000D01*
X99303000Y-69568300D02*
X99849700Y-69568300D01*
X118546800Y-63474600D02*
X118546800Y-60960000D01*
X118546800Y-63474600D02*
X116669900Y-65351500D01*
X134345200Y-79278000D02*
X133045200Y-77978000D01*
X118546800Y-60960000D02*
X118546800Y-60053200D01*
X101487400Y-66435400D02*
X101487400Y-65793900D01*
X136700000Y-55578000D02*
X136278000Y-56000000D01*
D25*
X127500000Y-72404451D02*
X126240949Y-71145400D01*
X125027800Y-65705800D02*
X125476000Y-65257600D01*
X124649700Y-71145400D02*
X123760100Y-70255800D01*
D24*
X99756000Y-57404000D02*
X101160000Y-56000000D01*
D26*
X96520000Y-72644000D02*
X97180400Y-73304400D01*
D24*
X120660000Y-78000000D02*
X120672000Y-78000000D01*
X99695000Y-78867000D02*
X100685600Y-78867000D01*
X137325000Y-78076678D02*
X136123678Y-79278000D01*
X129100000Y-66047000D02*
X129100000Y-65257600D01*
X91000000Y-56000000D02*
X92404000Y-57404000D01*
D25*
X115804583Y-70905800D02*
X113558383Y-73152000D01*
D26*
X97180400Y-71983600D02*
X97180400Y-72288400D01*
D24*
X98729800Y-77901800D02*
X99695000Y-78867000D01*
D26*
X97180400Y-72288400D02*
X97536000Y-72644000D01*
D24*
X113558383Y-73152000D02*
X113609200Y-73202817D01*
D27*
X122394900Y-66355800D02*
X122394900Y-65705800D01*
D26*
X95478200Y-69568300D02*
X97180400Y-69568300D01*
X97536000Y-71628000D02*
X97180400Y-71983600D01*
D27*
%TO.N,Net-(U1-LDOO)*%
X114079700Y-70255800D02*
X113774300Y-70561200D01*
X113774300Y-70561200D02*
X110947200Y-70561200D01*
X116669900Y-70255800D02*
X114079700Y-70255800D01*
%TO.N,Net-(U1-CAPP)*%
X122394900Y-70905800D02*
X123204500Y-70905800D01*
X123204500Y-70905800D02*
X124394100Y-72095400D01*
X124394100Y-72095400D02*
X125476000Y-72095400D01*
%TO.N,Net-(U1-CAPM)*%
X122394900Y-69605800D02*
X124886400Y-69605800D01*
X124886400Y-69605800D02*
X125476000Y-70195400D01*
%TO.N,Net-(U1-VNEG)*%
X123677800Y-68955800D02*
X125476000Y-67157600D01*
X122394900Y-68955800D02*
X123677800Y-68955800D01*
%TO.N,/LOUT*%
X130505200Y-77978000D02*
X130505200Y-73442800D01*
X130530600Y-73417400D02*
X131569000Y-72379000D01*
X131569000Y-72379000D02*
X131569000Y-70416000D01*
X130505200Y-73442800D02*
X130530600Y-73417400D01*
X131569000Y-70416000D02*
X130556000Y-69403000D01*
%TO.N,/ROUT*%
X136617700Y-70410100D02*
X135610600Y-69403000D01*
X136617700Y-72359500D02*
X136617700Y-70410100D01*
X135585200Y-77978000D02*
X135585200Y-73442800D01*
X135559800Y-73417400D02*
X136617700Y-72359500D01*
X135585200Y-73442800D02*
X135559800Y-73417400D01*
%TO.N,Net-(D1-Pin_1)*%
X104000000Y-78000000D02*
X102824900Y-78000000D01*
X101866900Y-77042000D02*
X102824900Y-78000000D01*
X100685600Y-77042000D02*
X101866900Y-77042000D01*
%TO.N,+3V3*%
X109728000Y-68980173D02*
X109728000Y-58166000D01*
X117461000Y-69605800D02*
X116669900Y-69605800D01*
X117745900Y-69890700D02*
X117461000Y-69605800D01*
X121697100Y-67005800D02*
X120446800Y-65755500D01*
X121608300Y-71555800D02*
X122394900Y-71555800D01*
X109728000Y-58166000D02*
X91004900Y-58166000D01*
X110353627Y-69605800D02*
X109728000Y-68980173D01*
X117745900Y-69890700D02*
X117745900Y-71169500D01*
X88440000Y-55601100D02*
X88440000Y-52070000D01*
X118812200Y-69890700D02*
X117745900Y-69890700D01*
X117359600Y-71555800D02*
X116669900Y-71555800D01*
X122394900Y-67005800D02*
X121697100Y-67005800D01*
X119377700Y-69325200D02*
X118812200Y-69890700D01*
X120446800Y-63474600D02*
X120446800Y-60960000D01*
X91004900Y-58166000D02*
X88440000Y-55601100D01*
X116669900Y-69605800D02*
X110353627Y-69605800D01*
X117745900Y-71169500D02*
X117359600Y-71555800D01*
X120446800Y-65755500D02*
X120446800Y-63474600D01*
X119377700Y-69325200D02*
X121608300Y-71555800D01*
X121697100Y-67005800D02*
X119377700Y-69325200D01*
%TO.N,Net-(J1-SDA{slash}GPIO2)*%
X96772700Y-54100700D02*
X98620000Y-55948000D01*
X93010700Y-54100700D02*
X96772700Y-54100700D01*
X98620000Y-55948000D02*
X98620000Y-56000000D01*
X90980000Y-52070000D02*
X93010700Y-54100700D01*
D26*
%TO.N,/5.2V*%
X94706400Y-60960000D02*
X94706400Y-60436800D01*
D28*
X94743900Y-63601600D02*
X91409463Y-63601600D01*
D26*
X95961200Y-59182000D02*
X106934000Y-59182000D01*
X107630000Y-67498000D02*
X106680000Y-67498000D01*
D28*
X86890000Y-51080000D02*
X88440000Y-49530000D01*
D24*
X94743900Y-60960000D02*
X94706400Y-60960000D01*
D26*
X94743900Y-63601600D02*
X94743900Y-60960000D01*
D28*
X91409463Y-63601600D02*
X86890000Y-59082137D01*
D26*
X107950000Y-60198000D02*
X107950000Y-67498000D01*
D28*
X86890000Y-59082137D02*
X86890000Y-51080000D01*
D26*
X106934000Y-59182000D02*
X107950000Y-60198000D01*
X106680000Y-67498000D02*
X106680000Y-69784000D01*
X94706400Y-60436800D02*
X95961200Y-59182000D01*
X107950000Y-67498000D02*
X107762000Y-67498000D01*
X107762000Y-67498000D02*
X107696000Y-67564000D01*
X107696000Y-67564000D02*
X107630000Y-67498000D01*
D27*
%TO.N,Net-(J1-SCL{slash}GPIO3)*%
X94695100Y-53245100D02*
X100945100Y-53245100D01*
X100945100Y-53245100D02*
X103700000Y-56000000D01*
X93520000Y-52070000D02*
X94695100Y-53245100D01*
%TO.N,Net-(J1-GPIO18{slash}PWM0)*%
X102315100Y-52372200D02*
X106959898Y-57016998D01*
X102315100Y-50705100D02*
X102315100Y-52372200D01*
X114281900Y-60637433D02*
X114281900Y-65325300D01*
X106959898Y-57016998D02*
X110661465Y-57016998D01*
X114281900Y-65325300D02*
X115962400Y-67005800D01*
X110661465Y-57016998D02*
X114281900Y-60637433D01*
X101140000Y-49530000D02*
X102315100Y-50705100D01*
X115962400Y-67005800D02*
X116669900Y-67005800D01*
%TO.N,Net-(J1-SCLK0{slash}GPIO11)*%
X116380000Y-52070000D02*
X116380000Y-54804900D01*
X116400000Y-56000000D02*
X116400000Y-54824900D01*
X116380000Y-54804900D02*
X116400000Y-54824900D01*
%TO.N,Net-(J1-GPIO19{slash}MISO1)*%
X127892100Y-55475200D02*
X131297300Y-52070000D01*
X117702000Y-68305800D02*
X119502100Y-66505700D01*
X116669900Y-68305800D02*
X117702000Y-68305800D01*
X119502100Y-60364900D02*
X119960400Y-59906600D01*
X126614700Y-61614300D02*
X127892100Y-60336900D01*
X119502100Y-66505700D02*
X119502100Y-60364900D01*
X123943000Y-61614300D02*
X126614700Y-61614300D01*
X122235300Y-59906600D02*
X123943000Y-61614300D01*
X131297300Y-52070000D02*
X131620000Y-52070000D01*
X127892100Y-60336900D02*
X127892100Y-55475200D01*
X119960400Y-59906600D02*
X122235300Y-59906600D01*
%TO.N,Net-(J1-GPIO21{slash}SCLK1)*%
X117393000Y-67655800D02*
X116669900Y-67655800D01*
X118323900Y-66724900D02*
X117393000Y-67655800D01*
X118323900Y-66611800D02*
X118323900Y-66724900D01*
%TO.N,Net-(U1-OUTL)*%
X121597400Y-68305800D02*
X121049500Y-68853700D01*
X122394900Y-68305800D02*
X121597400Y-68305800D01*
X128154700Y-71592400D02*
X130530600Y-71592400D01*
%TO.N,Net-(U1-OUTR)*%
X128401000Y-68453000D02*
X132420400Y-68453000D01*
X124754300Y-66297500D02*
X126245500Y-66297500D01*
X132420400Y-68453000D02*
X135559800Y-71592400D01*
X126245500Y-66297500D02*
X128401000Y-68453000D01*
X123396000Y-67655800D02*
X124754300Y-66297500D01*
X122394900Y-67655800D02*
X123396000Y-67655800D01*
%TO.N,Net-(U2-A{slash}VEE)*%
X126568200Y-57183300D02*
X126560000Y-57175100D01*
X126560000Y-56000000D02*
X126560000Y-57175100D01*
X126568200Y-60121800D02*
X126568200Y-57183300D01*
%TO.N,+5V*%
X113587400Y-58640000D02*
X123261400Y-58640000D01*
X92163100Y-48346900D02*
X104221800Y-48346900D01*
X104950000Y-49075100D02*
X104950000Y-49995400D01*
X123261400Y-58640000D02*
X124743200Y-60121800D01*
X104221800Y-48346900D02*
X104950000Y-49075100D01*
X105849400Y-50894800D02*
X106745700Y-50894800D01*
X107490000Y-51639100D02*
X107490000Y-52542600D01*
X107490000Y-52542600D02*
X113587400Y-58640000D01*
X106745700Y-50894800D02*
X107490000Y-51639100D01*
X104950000Y-49995400D02*
X105849400Y-50894800D01*
X90980000Y-49530000D02*
X92163100Y-48346900D01*
D24*
%TO.N,/VIN*%
X99212400Y-65793900D02*
X99303000Y-65884500D01*
X99303000Y-65884500D02*
X99303000Y-67668300D01*
X99212400Y-65793900D02*
X97790000Y-65793900D01*
X99212400Y-65793900D02*
X99212400Y-64843900D01*
D28*
%TO.N,/FB*%
X96568900Y-63893900D02*
X99212400Y-63893900D01*
X95453200Y-67718300D02*
X95453200Y-65009600D01*
X95453200Y-65009600D02*
X96568900Y-63893900D01*
D26*
X96606400Y-63564100D02*
X96606400Y-60960000D01*
D28*
X96568900Y-63893900D02*
X96568900Y-63601600D01*
X96568900Y-63601600D02*
X96606400Y-63564100D01*
%TO.N,/SW*%
X101534000Y-61722000D02*
X103632000Y-61722000D01*
X103718000Y-61808000D02*
X103718000Y-63246000D01*
X103632000Y-61722000D02*
X103718000Y-61808000D01*
X103718000Y-64843900D02*
X103718000Y-63246000D01*
X101487400Y-64843900D02*
X103718000Y-64843900D01*
D27*
%TO.N,Net-(U3-BST)*%
X99634000Y-61722000D02*
X99634000Y-62040500D01*
D28*
X99634000Y-62040500D02*
X99634000Y-62422250D01*
X99634000Y-62422250D02*
X101105650Y-63893900D01*
X101105650Y-63893900D02*
X101487400Y-63893900D01*
%TD*%
%TA.AperFunction,Conductor*%
%TO.N,+3V3*%
G36*
X120455753Y-63484241D02*
G01*
X120922629Y-64039161D01*
X120925317Y-64045518D01*
X120923954Y-64052284D01*
X120575123Y-64693491D01*
X120570823Y-64697958D01*
X120564845Y-64699600D01*
X120328755Y-64699600D01*
X120322777Y-64697958D01*
X120318477Y-64693491D01*
X119969645Y-64052284D01*
X119968282Y-64045518D01*
X119970969Y-64039162D01*
X120437847Y-63484240D01*
X120443449Y-63480563D01*
X120450151Y-63480563D01*
X120455753Y-63484241D01*
G37*
%TD.AperFunction*%
%TD*%
%TA.AperFunction,Conductor*%
%TO.N,+3V3*%
G36*
X117407558Y-69491116D02*
G01*
X117638902Y-69613521D01*
X117643909Y-69618659D01*
X117644976Y-69625753D01*
X117641703Y-69632136D01*
X117479329Y-69794510D01*
X117471616Y-69797924D01*
X117309480Y-69805700D01*
X117305410Y-69805174D01*
X116716755Y-69620050D01*
X116710582Y-69615456D01*
X116708597Y-69608022D01*
X116711659Y-69600962D01*
X116718441Y-69597333D01*
X117400268Y-69489902D01*
X117407558Y-69491116D01*
G37*
%TD.AperFunction*%
%TD*%
%TA.AperFunction,Conductor*%
%TO.N,GND*%
G36*
X121510952Y-77623722D02*
G01*
X121514772Y-77628438D01*
X121835231Y-78348810D01*
X122157268Y-79072730D01*
X122158278Y-79077485D01*
X122158278Y-79557749D01*
X122155893Y-79564829D01*
X122149710Y-79569022D01*
X122142250Y-79568619D01*
X122132730Y-79564829D01*
X121730005Y-79404495D01*
X120347914Y-78854254D01*
X120341535Y-78848101D01*
X120341300Y-78839242D01*
X120657282Y-78004537D01*
X120659703Y-78000663D01*
X120663424Y-77998012D01*
X121499291Y-77622520D01*
X121505281Y-77621556D01*
X121510952Y-77623722D01*
G37*
%TD.AperFunction*%
%TD*%
%TA.AperFunction,Conductor*%
%TO.N,GND*%
G36*
X118927124Y-59127075D02*
G01*
X119200707Y-59399293D01*
X119200749Y-59399335D01*
X119472924Y-59672875D01*
X119476101Y-59678822D01*
X119475468Y-59685534D01*
X119471237Y-59690783D01*
X118819104Y-60136978D01*
X118811414Y-60138972D01*
X118804224Y-60135595D01*
X118464404Y-59795775D01*
X118461027Y-59788585D01*
X118463021Y-59780895D01*
X118909217Y-59128760D01*
X118914465Y-59124531D01*
X118921177Y-59123898D01*
X118927124Y-59127075D01*
G37*
%TD.AperFunction*%
%TD*%
%TA.AperFunction,Conductor*%
%TO.N,Net-(U1-OUTL)*%
G36*
X121620128Y-68191236D02*
G01*
X121622553Y-68198368D01*
X121622553Y-68428793D01*
X121621885Y-68432691D01*
X121549745Y-68636866D01*
X121546986Y-68641241D01*
X121505193Y-68683034D01*
X121459814Y-68785808D01*
X121456900Y-68810935D01*
X121456900Y-68897643D01*
X121456232Y-68901541D01*
X121423158Y-68995150D01*
X121419575Y-69000274D01*
X121413865Y-69002822D01*
X121407659Y-69002066D01*
X121052999Y-68855558D01*
X121049187Y-68853012D01*
X121046647Y-68849198D01*
X120900855Y-68494908D01*
X120900864Y-68485983D01*
X120907163Y-68479662D01*
X121606342Y-68187572D01*
X121613858Y-68187061D01*
X121620128Y-68191236D01*
G37*
%TD.AperFunction*%
%TD*%
%TA.AperFunction,Conductor*%
%TO.N,/LOUT*%
G36*
X131272417Y-69420673D02*
G01*
X131279277Y-69423116D01*
X131283363Y-69429147D01*
X131491896Y-70157394D01*
X131491975Y-70163547D01*
X131488921Y-70168888D01*
X131322738Y-70335071D01*
X131316564Y-70338308D01*
X131309644Y-70337459D01*
X131304363Y-70335071D01*
X130359199Y-69907660D01*
X130353145Y-69901313D01*
X130353204Y-69892541D01*
X130552225Y-69409733D01*
X130556658Y-69404390D01*
X130563340Y-69402499D01*
X131272417Y-69420673D01*
G37*
%TD.AperFunction*%
%TD*%
%TA.AperFunction,Conductor*%
%TO.N,GND*%
G36*
X129891199Y-66481499D02*
G01*
X130754452Y-66997823D01*
X130759551Y-67004179D01*
X130759263Y-67012323D01*
X130559775Y-67496263D01*
X130555341Y-67501609D01*
X130548658Y-67503500D01*
X129838284Y-67485293D01*
X129832146Y-67483367D01*
X129827955Y-67478487D01*
X129769319Y-67351021D01*
X129533221Y-66837771D01*
X129532334Y-66830822D01*
X129535576Y-66824613D01*
X129876922Y-66483267D01*
X129883756Y-66479930D01*
X129891199Y-66481499D01*
G37*
%TD.AperFunction*%
%TD*%
%TA.AperFunction,Conductor*%
%TO.N,Net-(U1-LDOO)*%
G36*
X111524883Y-70084044D02*
G01*
X111748130Y-70205496D01*
X112166091Y-70432877D01*
X112170558Y-70437177D01*
X112172200Y-70443155D01*
X112172200Y-70679245D01*
X112170558Y-70685223D01*
X112166091Y-70689523D01*
X111524884Y-71038354D01*
X111518118Y-71039717D01*
X111511761Y-71037029D01*
X110956841Y-70570152D01*
X110953163Y-70564550D01*
X110953163Y-70557848D01*
X110956839Y-70552248D01*
X111511762Y-70085369D01*
X111518118Y-70082682D01*
X111524883Y-70084044D01*
G37*
%TD.AperFunction*%
%TD*%
%TA.AperFunction,Conductor*%
%TO.N,Net-(U1-VNEG)*%
G36*
X123074032Y-68764278D02*
G01*
X123323617Y-68828539D01*
X123329947Y-68832701D01*
X123332400Y-68839869D01*
X123332400Y-69071731D01*
X123329947Y-69078899D01*
X123323617Y-69083061D01*
X123073737Y-69147397D01*
X123067621Y-69147321D01*
X122433488Y-68967054D01*
X122427351Y-68962852D01*
X122424987Y-68955800D01*
X122427351Y-68948748D01*
X122433488Y-68944546D01*
X122826928Y-68832701D01*
X123067621Y-68764277D01*
X123073736Y-68764202D01*
X123074032Y-68764278D01*
G37*
%TD.AperFunction*%
%TD*%
%TA.AperFunction,Conductor*%
%TO.N,+3V3*%
G36*
X122385614Y-67004394D02*
G01*
X122393008Y-67007730D01*
X122396454Y-67015075D01*
X122411651Y-67194155D01*
X122408940Y-67202683D01*
X122400995Y-67206801D01*
X121837526Y-67255257D01*
X121836524Y-67255300D01*
X121712535Y-67255300D01*
X121687407Y-67258215D01*
X121661197Y-67269786D01*
X121657475Y-67270740D01*
X121609792Y-67274842D01*
X121604779Y-67274176D01*
X121600516Y-67271458D01*
X121437943Y-67108885D01*
X121434721Y-67102795D01*
X121435486Y-67095948D01*
X121439969Y-67090718D01*
X121654162Y-66955503D01*
X121661221Y-66953727D01*
X122385614Y-67004394D01*
G37*
%TD.AperFunction*%
%TD*%
%TA.AperFunction,Conductor*%
%TO.N,Net-(J1-SCL{slash}GPIO3)*%
G36*
X94305606Y-51751595D02*
G01*
X94309104Y-51756951D01*
X94732730Y-53118403D01*
X94733258Y-53121879D01*
X94733258Y-53353848D01*
X94731003Y-53360753D01*
X94725109Y-53364996D01*
X94717845Y-53364943D01*
X93986107Y-53120100D01*
X93206603Y-52859274D01*
X93201378Y-52855729D01*
X93198756Y-52849984D01*
X93199501Y-52843716D01*
X93517147Y-52074485D01*
X93519684Y-52070683D01*
X93523483Y-52068145D01*
X94293461Y-51749615D01*
X94299814Y-51748879D01*
X94305606Y-51751595D01*
G37*
%TD.AperFunction*%
%TD*%
%TA.AperFunction,Conductor*%
%TO.N,/ROUT*%
G36*
X136341621Y-72470176D02*
G01*
X136507688Y-72636243D01*
X136510780Y-72641738D01*
X136510572Y-72648039D01*
X136262476Y-73433708D01*
X136258072Y-73439739D01*
X136250917Y-73441878D01*
X135566632Y-73418366D01*
X135560360Y-73416283D01*
X135556217Y-73411132D01*
X135351850Y-72915416D01*
X135351803Y-72906614D01*
X135357904Y-72900270D01*
X136328589Y-72467761D01*
X136335479Y-72466945D01*
X136341621Y-72470176D01*
G37*
%TD.AperFunction*%
%TD*%
%TA.AperFunction,Conductor*%
%TO.N,GND*%
G36*
X118795279Y-62251749D02*
G01*
X118799555Y-62257406D01*
X119025543Y-62897621D01*
X119026021Y-62903610D01*
X119023463Y-62909047D01*
X118555753Y-63464958D01*
X118550151Y-63468636D01*
X118543449Y-63468636D01*
X118537847Y-63464958D01*
X118070136Y-62909047D01*
X118067578Y-62903610D01*
X118068055Y-62897623D01*
X118294045Y-62257406D01*
X118298321Y-62251749D01*
X118305078Y-62249600D01*
X118788522Y-62249600D01*
X118795279Y-62251749D01*
G37*
%TD.AperFunction*%
%TD*%
%TA.AperFunction,Conductor*%
%TO.N,GND*%
G36*
X98038239Y-77110165D02*
G01*
X99002151Y-77823437D01*
X99006138Y-77828713D01*
X99006628Y-77835308D01*
X99003464Y-77841115D01*
X98659734Y-78184845D01*
X98659292Y-78185265D01*
X98038651Y-78744367D01*
X98030515Y-78747370D01*
X98022547Y-78743947D01*
X97188241Y-77909641D01*
X97185180Y-77904273D01*
X97185281Y-77898094D01*
X97188513Y-77892832D01*
X98023283Y-77111028D01*
X98030603Y-77107890D01*
X98038239Y-77110165D01*
G37*
%TD.AperFunction*%
%TD*%
%TA.AperFunction,Conductor*%
%TO.N,Net-(U1-CAPM)*%
G36*
X123074032Y-69414278D02*
G01*
X123323617Y-69478539D01*
X123329947Y-69482701D01*
X123332400Y-69489869D01*
X123332400Y-69721731D01*
X123329947Y-69728899D01*
X123323617Y-69733061D01*
X123073737Y-69797397D01*
X123067621Y-69797321D01*
X122433488Y-69617054D01*
X122427351Y-69612852D01*
X122424987Y-69605800D01*
X122427351Y-69598748D01*
X122433488Y-69594546D01*
X122826928Y-69482701D01*
X123067621Y-69414277D01*
X123073736Y-69414202D01*
X123074032Y-69414278D01*
G37*
%TD.AperFunction*%
%TD*%
%TA.AperFunction,Conductor*%
%TO.N,+3V3*%
G36*
X120570823Y-62251242D02*
G01*
X120575123Y-62255709D01*
X120923954Y-62896915D01*
X120925317Y-62903681D01*
X120922629Y-62910038D01*
X120455753Y-63464958D01*
X120450151Y-63468636D01*
X120443449Y-63468636D01*
X120437847Y-63464958D01*
X119970970Y-62910038D01*
X119968282Y-62903681D01*
X119969644Y-62896917D01*
X120318477Y-62255709D01*
X120322777Y-62251242D01*
X120328755Y-62249600D01*
X120564845Y-62249600D01*
X120570823Y-62251242D01*
G37*
%TD.AperFunction*%
%TD*%
%TA.AperFunction,Conductor*%
%TO.N,+5V*%
G36*
X123973836Y-59171026D02*
G01*
X124759510Y-59419123D01*
X124765540Y-59423527D01*
X124767679Y-59430682D01*
X124744166Y-60114967D01*
X124742083Y-60121239D01*
X124736932Y-60125382D01*
X124241216Y-60329749D01*
X124232414Y-60329796D01*
X124226070Y-60323694D01*
X124133067Y-60114967D01*
X123793561Y-59353011D01*
X123792745Y-59346120D01*
X123795974Y-59339980D01*
X123962045Y-59173909D01*
X123967538Y-59170819D01*
X123973836Y-59171026D01*
G37*
%TD.AperFunction*%
%TD*%
%TA.AperFunction,Conductor*%
%TO.N,GND*%
G36*
X111196108Y-67662960D02*
G01*
X111200422Y-67667709D01*
X111443458Y-68158615D01*
X111444514Y-68165726D01*
X111441213Y-68172112D01*
X110955440Y-68654025D01*
X110947200Y-68657419D01*
X110938960Y-68654025D01*
X110717029Y-68433858D01*
X110453185Y-68172110D01*
X110449885Y-68165726D01*
X110450940Y-68158617D01*
X110693978Y-67667709D01*
X110698292Y-67662960D01*
X110704463Y-67661200D01*
X111189937Y-67661200D01*
X111196108Y-67662960D01*
G37*
%TD.AperFunction*%
%TD*%
%TA.AperFunction,Conductor*%
%TO.N,Net-(U1-LDOO)*%
G36*
X113209738Y-70085370D02*
G01*
X113764658Y-70552247D01*
X113768336Y-70557849D01*
X113768336Y-70564551D01*
X113764658Y-70570153D01*
X113209738Y-71037029D01*
X113203381Y-71039717D01*
X113196615Y-71038354D01*
X112555409Y-70689523D01*
X112550942Y-70685223D01*
X112549300Y-70679245D01*
X112549300Y-70443155D01*
X112550942Y-70437177D01*
X112555409Y-70432877D01*
X112785965Y-70307448D01*
X113196617Y-70084044D01*
X113203381Y-70082682D01*
X113209738Y-70085370D01*
G37*
%TD.AperFunction*%
%TD*%
%TA.AperFunction,Conductor*%
%TO.N,/SW*%
G36*
X105475971Y-60200381D02*
G01*
X105516346Y-60208412D01*
X105561043Y-60226927D01*
X105584913Y-60242877D01*
X105619122Y-60277086D01*
X105635072Y-60300956D01*
X105653588Y-60345656D01*
X105661617Y-60386019D01*
X105664000Y-60410211D01*
X105664000Y-65573789D01*
X105661617Y-65597982D01*
X105653588Y-65638344D01*
X105635072Y-65683043D01*
X105619122Y-65706913D01*
X105584913Y-65741122D01*
X105561043Y-65757072D01*
X105516344Y-65775588D01*
X105499841Y-65778870D01*
X105475978Y-65783617D01*
X105451789Y-65786000D01*
X103082211Y-65786000D01*
X103058020Y-65783617D01*
X103042744Y-65780578D01*
X103017656Y-65775588D01*
X102972956Y-65757072D01*
X102949086Y-65741122D01*
X102914877Y-65706913D01*
X102898927Y-65683043D01*
X102880412Y-65638346D01*
X102872381Y-65597971D01*
X102870000Y-65573789D01*
X102870000Y-62937998D01*
X102870000Y-62738000D01*
X102670002Y-62738000D01*
X101304211Y-62738000D01*
X101280020Y-62735617D01*
X101264744Y-62732578D01*
X101239656Y-62727588D01*
X101194956Y-62709072D01*
X101171086Y-62693122D01*
X101136877Y-62658913D01*
X101120927Y-62635043D01*
X101102412Y-62590346D01*
X101094381Y-62549971D01*
X101092000Y-62525789D01*
X101092000Y-60410211D01*
X101094381Y-60386027D01*
X101102412Y-60345653D01*
X101120927Y-60300956D01*
X101136877Y-60277086D01*
X101171086Y-60242877D01*
X101194956Y-60226927D01*
X101239653Y-60208412D01*
X101280027Y-60200381D01*
X101304211Y-60198000D01*
X105451789Y-60198000D01*
X105475971Y-60200381D01*
G37*
%TD.AperFunction*%
%TD*%
%TA.AperFunction,Conductor*%
%TO.N,GND*%
G36*
X126052976Y-64778855D02*
G01*
X126315498Y-64871522D01*
X126693194Y-65004845D01*
X126698851Y-65009121D01*
X126701000Y-65015878D01*
X126701000Y-65499322D01*
X126698851Y-65506079D01*
X126693194Y-65510355D01*
X126052978Y-65736343D01*
X126046989Y-65736821D01*
X126041552Y-65734263D01*
X125485641Y-65266552D01*
X125481963Y-65260950D01*
X125481963Y-65254248D01*
X125485639Y-65248648D01*
X126041554Y-64780934D01*
X126046989Y-64778378D01*
X126052976Y-64778855D01*
G37*
%TD.AperFunction*%
%TD*%
%TA.AperFunction,Conductor*%
%TO.N,Net-(U1-OUTL)*%
G36*
X129991123Y-71104522D02*
G01*
X130521978Y-71583715D01*
X130525386Y-71589180D01*
X130525386Y-71595620D01*
X130521978Y-71601085D01*
X129991123Y-72080277D01*
X129984623Y-72083215D01*
X129977624Y-72081833D01*
X129324141Y-71720738D01*
X129319723Y-71716442D01*
X129318100Y-71710497D01*
X129318100Y-71474303D01*
X129319723Y-71468358D01*
X129324141Y-71464062D01*
X129408451Y-71417474D01*
X129977625Y-71102965D01*
X129984623Y-71101584D01*
X129991123Y-71104522D01*
G37*
%TD.AperFunction*%
%TD*%
%TA.AperFunction,Conductor*%
%TO.N,Net-(U1-OUTL)*%
G36*
X122346974Y-68297167D02*
G01*
X122353727Y-68300821D01*
X122356760Y-68307877D01*
X122354764Y-68315294D01*
X122348600Y-68319875D01*
X121759537Y-68505127D01*
X121755164Y-68505634D01*
X121591129Y-68493503D01*
X121583719Y-68490108D01*
X121421297Y-68327686D01*
X121418020Y-68321278D01*
X121419114Y-68314164D01*
X121424163Y-68309037D01*
X121658000Y-68187241D01*
X121665284Y-68186071D01*
X122346974Y-68297167D01*
G37*
%TD.AperFunction*%
%TD*%
%TA.AperFunction,Conductor*%
%TO.N,Net-(J1-SDA{slash}GPIO2)*%
G36*
X97544526Y-54691335D02*
G01*
X98933941Y-55210465D01*
X98938956Y-55214084D01*
X98941426Y-55219754D01*
X98940660Y-55225891D01*
X98622562Y-55996214D01*
X98620021Y-56000021D01*
X98616214Y-56002562D01*
X97846390Y-56320454D01*
X97840085Y-56321195D01*
X97834321Y-56318533D01*
X97830796Y-56313253D01*
X97362914Y-54872294D01*
X97362667Y-54865951D01*
X97365768Y-54860412D01*
X97532160Y-54694020D01*
X97537947Y-54690862D01*
X97544526Y-54691335D01*
G37*
%TD.AperFunction*%
%TD*%
%TA.AperFunction,Conductor*%
%TO.N,GND*%
G36*
X132205953Y-77605370D02*
G01*
X133041762Y-77976032D01*
X133045498Y-77978665D01*
X133047940Y-77982532D01*
X133368523Y-78817321D01*
X133368343Y-78826152D01*
X133362040Y-78832340D01*
X132775779Y-79072759D01*
X131567201Y-79568382D01*
X131559709Y-79568851D01*
X131553473Y-79564669D01*
X131551064Y-79557557D01*
X131551064Y-79077443D01*
X131552043Y-79072759D01*
X131657077Y-78832340D01*
X132190490Y-77611380D01*
X132194285Y-77606636D01*
X132199950Y-77604434D01*
X132205953Y-77605370D01*
G37*
%TD.AperFunction*%
%TD*%
%TA.AperFunction,Conductor*%
%TO.N,GND*%
G36*
X100385274Y-55679084D02*
G01*
X101156216Y-55997438D01*
X101160021Y-55999978D01*
X101162562Y-56003785D01*
X101480914Y-56774723D01*
X101480954Y-56783557D01*
X101474807Y-56789900D01*
X100142018Y-57375639D01*
X100135151Y-57376427D01*
X100129038Y-57373201D01*
X99786798Y-57030961D01*
X99783572Y-57024848D01*
X99784359Y-57017983D01*
X100370099Y-55685191D01*
X100376442Y-55679045D01*
X100385274Y-55679084D01*
G37*
%TD.AperFunction*%
%TD*%
%TA.AperFunction,Conductor*%
%TO.N,GND*%
G36*
X118056122Y-63271335D02*
G01*
X118540064Y-63470824D01*
X118545409Y-63475258D01*
X118547300Y-63481941D01*
X118529093Y-64192315D01*
X118527167Y-64198453D01*
X118522287Y-64202644D01*
X117881574Y-64497377D01*
X117874622Y-64498265D01*
X117868411Y-64495021D01*
X117527068Y-64153678D01*
X117523730Y-64146843D01*
X117525299Y-64139400D01*
X118041624Y-63276145D01*
X118047979Y-63271048D01*
X118056122Y-63271335D01*
G37*
%TD.AperFunction*%
%TD*%
%TA.AperFunction,Conductor*%
%TO.N,GND*%
G36*
X97679074Y-76203779D02*
G01*
X97683383Y-76209045D01*
X98027432Y-77044592D01*
X98028086Y-77051338D01*
X98024891Y-77057315D01*
X97188677Y-77894512D01*
X97183429Y-77897545D01*
X97177369Y-77897545D01*
X97172122Y-77894513D01*
X96335907Y-77057313D01*
X96332713Y-77051338D01*
X96333366Y-77044595D01*
X96677416Y-76209045D01*
X96681726Y-76203779D01*
X96688236Y-76201800D01*
X97672564Y-76201800D01*
X97679074Y-76203779D01*
G37*
%TD.AperFunction*%
%TD*%
%TA.AperFunction,Conductor*%
%TO.N,/ROUT*%
G36*
X136327017Y-69420673D02*
G01*
X136333877Y-69423116D01*
X136337963Y-69429147D01*
X136546496Y-70157394D01*
X136546575Y-70163547D01*
X136543521Y-70168888D01*
X136377338Y-70335071D01*
X136371164Y-70338308D01*
X136364244Y-70337459D01*
X136358963Y-70335071D01*
X135413799Y-69907660D01*
X135407745Y-69901313D01*
X135407804Y-69892541D01*
X135606825Y-69409733D01*
X135611258Y-69404390D01*
X135617940Y-69402499D01*
X136327017Y-69420673D01*
G37*
%TD.AperFunction*%
%TD*%
%TA.AperFunction,Conductor*%
%TO.N,Net-(J1-SCLK0{slash}GPIO11)*%
G36*
X116471246Y-54723124D02*
G01*
X116476527Y-54726940D01*
X116606392Y-54893326D01*
X116994682Y-55390812D01*
X116997137Y-55398721D01*
X116993742Y-55406274D01*
X116408980Y-55992414D01*
X116403734Y-55995450D01*
X116397673Y-55995454D01*
X116392424Y-55992424D01*
X115807125Y-55407125D01*
X115803698Y-55398928D01*
X115807018Y-55390687D01*
X116291612Y-54893288D01*
X116459034Y-54725865D01*
X116464741Y-54722724D01*
X116471246Y-54723124D01*
G37*
%TD.AperFunction*%
%TD*%
%TA.AperFunction,Conductor*%
%TO.N,+3V3*%
G36*
X115997178Y-69414278D02*
G01*
X116631311Y-69594546D01*
X116637448Y-69598748D01*
X116639812Y-69605800D01*
X116637448Y-69612852D01*
X116631311Y-69617054D01*
X115997178Y-69797321D01*
X115991062Y-69797397D01*
X115741183Y-69733061D01*
X115734853Y-69728899D01*
X115732400Y-69721731D01*
X115732400Y-69489869D01*
X115734853Y-69482701D01*
X115741183Y-69478539D01*
X115853892Y-69449519D01*
X115991063Y-69414202D01*
X115997178Y-69414278D01*
G37*
%TD.AperFunction*%
%TD*%
%TA.AperFunction,Conductor*%
%TO.N,Net-(D1-Pin_1)*%
G36*
X103156665Y-77156665D02*
G01*
X103991390Y-77991390D01*
X103994529Y-77997083D01*
X103994144Y-78003573D01*
X103990354Y-78008856D01*
X103158994Y-78663342D01*
X103150501Y-78665781D01*
X103142724Y-78661585D01*
X102595722Y-77997083D01*
X102372100Y-77725426D01*
X102369448Y-77717426D01*
X102372860Y-77709719D01*
X102541242Y-77541337D01*
X102543182Y-77539774D01*
X103142069Y-77155093D01*
X103149644Y-77153305D01*
X103156665Y-77156665D01*
G37*
%TD.AperFunction*%
%TD*%
%TA.AperFunction,Conductor*%
%TO.N,GND*%
G36*
X113208747Y-68184536D02*
G01*
X113764658Y-68652247D01*
X113768336Y-68657849D01*
X113768336Y-68664551D01*
X113764658Y-68670153D01*
X113208747Y-69137863D01*
X113203310Y-69140421D01*
X113197321Y-69139943D01*
X112557106Y-68913955D01*
X112551449Y-68909679D01*
X112549300Y-68902922D01*
X112549300Y-68419478D01*
X112551449Y-68412721D01*
X112557106Y-68408445D01*
X112809790Y-68319250D01*
X113197323Y-68182455D01*
X113203310Y-68181978D01*
X113208747Y-68184536D01*
G37*
%TD.AperFunction*%
%TD*%
%TA.AperFunction,Conductor*%
%TO.N,GND*%
G36*
X129104489Y-56000865D02*
G01*
X129874732Y-56320891D01*
X129881006Y-56327109D01*
X129881146Y-56335941D01*
X129352903Y-57692545D01*
X129348604Y-57697958D01*
X129342000Y-57700000D01*
X128858000Y-57700000D01*
X128851396Y-57697958D01*
X128847097Y-57692545D01*
X128318853Y-56335941D01*
X128318993Y-56327109D01*
X128325266Y-56320891D01*
X129095511Y-56000864D01*
X129100000Y-55999970D01*
X129104489Y-56000865D01*
G37*
%TD.AperFunction*%
%TD*%
%TA.AperFunction,Conductor*%
%TO.N,GND*%
G36*
X135045047Y-67026336D02*
G01*
X135600958Y-67494047D01*
X135604636Y-67499649D01*
X135604636Y-67506351D01*
X135600958Y-67511953D01*
X135045047Y-67979663D01*
X135039610Y-67982221D01*
X135033621Y-67981743D01*
X134393406Y-67755755D01*
X134387749Y-67751479D01*
X134385600Y-67744722D01*
X134385600Y-67261278D01*
X134387749Y-67254521D01*
X134393406Y-67250245D01*
X134646090Y-67161050D01*
X135033623Y-67024255D01*
X135039610Y-67023778D01*
X135045047Y-67026336D01*
G37*
%TD.AperFunction*%
%TD*%
%TA.AperFunction,Conductor*%
%TO.N,/FB*%
G36*
X96562918Y-63598759D02*
G01*
X96568146Y-63602177D01*
X96570871Y-63607798D01*
X96696698Y-64294856D01*
X96696184Y-64300964D01*
X96692653Y-64305974D01*
X96050389Y-64838081D01*
X96042378Y-64840758D01*
X96034652Y-64837344D01*
X95623611Y-64426303D01*
X95620379Y-64420159D01*
X95621197Y-64413267D01*
X96052136Y-63446747D01*
X96058036Y-63440837D01*
X96066375Y-63440367D01*
X96562918Y-63598759D01*
G37*
%TD.AperFunction*%
%TD*%
%TA.AperFunction,Conductor*%
%TO.N,Net-(U1-LDOO)*%
G36*
X114977677Y-70129801D02*
G01*
X114985232Y-70133573D01*
X114988280Y-70141449D01*
X114988280Y-70376030D01*
X114984945Y-70384210D01*
X114487752Y-70892658D01*
X114481437Y-70895997D01*
X114474357Y-70895041D01*
X114256992Y-70791532D01*
X113787873Y-70568139D01*
X113782620Y-70563158D01*
X113781304Y-70556039D01*
X113784428Y-70549510D01*
X114245386Y-70065310D01*
X114249757Y-70062422D01*
X114254951Y-70061732D01*
X114977677Y-70129801D01*
G37*
%TD.AperFunction*%
%TD*%
%TA.AperFunction,Conductor*%
%TO.N,GND*%
G36*
X118555753Y-60969641D02*
G01*
X119023463Y-61525552D01*
X119026021Y-61530989D01*
X119025543Y-61536978D01*
X118799555Y-62177194D01*
X118795279Y-62182851D01*
X118788522Y-62185000D01*
X118305078Y-62185000D01*
X118298321Y-62182851D01*
X118294045Y-62177194D01*
X118068056Y-61536978D01*
X118067578Y-61530989D01*
X118070134Y-61525554D01*
X118537847Y-60969640D01*
X118543449Y-60965963D01*
X118550151Y-60965963D01*
X118555753Y-60969641D01*
G37*
%TD.AperFunction*%
%TD*%
%TA.AperFunction,Conductor*%
%TO.N,GND*%
G36*
X136328315Y-67520706D02*
G01*
X136334453Y-67522632D01*
X136338644Y-67527512D01*
X136633377Y-68168225D01*
X136634265Y-68175177D01*
X136631021Y-68181388D01*
X136289678Y-68522731D01*
X136282843Y-68526069D01*
X136275399Y-68524499D01*
X135412147Y-68008176D01*
X135407048Y-68001820D01*
X135407335Y-67993677D01*
X135606825Y-67509733D01*
X135611258Y-67504390D01*
X135617940Y-67502499D01*
X136328315Y-67520706D01*
G37*
%TD.AperFunction*%
%TD*%
%TA.AperFunction,Conductor*%
%TO.N,Net-(J1-GPIO19{slash}MISO1)*%
G36*
X130844686Y-51748841D02*
G01*
X131500822Y-52019787D01*
X131613466Y-52066303D01*
X131618727Y-52070616D01*
X131620700Y-52077127D01*
X131620007Y-52910404D01*
X131617348Y-52917821D01*
X131610588Y-52921870D01*
X130383183Y-53165807D01*
X130377505Y-53165527D01*
X130372629Y-53162604D01*
X130206283Y-52996258D01*
X130203000Y-52989816D01*
X130204130Y-52982677D01*
X130829799Y-51754343D01*
X130836166Y-51748682D01*
X130844686Y-51748841D01*
G37*
%TD.AperFunction*%
%TD*%
%TA.AperFunction,Conductor*%
%TO.N,Net-(U2-A{slash}VEE)*%
G36*
X126692242Y-58910923D02*
G01*
X126696538Y-58915341D01*
X127057633Y-59568824D01*
X127059015Y-59575823D01*
X127056077Y-59582323D01*
X126576885Y-60113178D01*
X126571420Y-60116586D01*
X126564980Y-60116586D01*
X126559515Y-60113178D01*
X126080322Y-59582323D01*
X126077384Y-59575823D01*
X126078765Y-59568825D01*
X126439861Y-58915341D01*
X126444158Y-58910923D01*
X126450103Y-58909300D01*
X126686297Y-58909300D01*
X126692242Y-58910923D01*
G37*
%TD.AperFunction*%
%TD*%
%TA.AperFunction,Conductor*%
%TO.N,Net-(U1-CAPM)*%
G36*
X125606050Y-69692964D02*
G01*
X125611733Y-69695839D01*
X125615068Y-69701265D01*
X125615067Y-69707634D01*
X125478962Y-70188467D01*
X125475618Y-70193897D01*
X125469924Y-70196767D01*
X124760631Y-70333835D01*
X124752732Y-70332577D01*
X124747487Y-70326538D01*
X124519755Y-69732823D01*
X124518979Y-69728633D01*
X124518979Y-69495004D01*
X124520943Y-69488516D01*
X124526176Y-69484205D01*
X124532920Y-69483521D01*
X125606050Y-69692964D01*
G37*
%TD.AperFunction*%
%TD*%
%TA.AperFunction,Conductor*%
%TO.N,GND*%
G36*
X130792545Y-55747097D02*
G01*
X130797958Y-55751396D01*
X130800000Y-55758000D01*
X130800000Y-56242000D01*
X130797958Y-56248604D01*
X130792545Y-56252903D01*
X129435941Y-56781146D01*
X129427109Y-56781006D01*
X129420891Y-56774732D01*
X129100865Y-56004489D01*
X129099970Y-56000000D01*
X129100865Y-55995511D01*
X129199548Y-55758000D01*
X129420891Y-55225266D01*
X129427109Y-55218993D01*
X129435941Y-55218853D01*
X130792545Y-55747097D01*
G37*
%TD.AperFunction*%
%TD*%
%TA.AperFunction,Conductor*%
%TO.N,GND*%
G36*
X111524176Y-68182455D02*
G01*
X111786698Y-68275122D01*
X112164394Y-68408445D01*
X112170051Y-68412721D01*
X112172200Y-68419478D01*
X112172200Y-68902922D01*
X112170051Y-68909679D01*
X112164394Y-68913955D01*
X111524178Y-69139943D01*
X111518189Y-69140421D01*
X111512752Y-69137863D01*
X110956841Y-68670153D01*
X110953163Y-68664551D01*
X110953163Y-68657849D01*
X110956841Y-68652247D01*
X111512754Y-68184534D01*
X111518189Y-68181978D01*
X111524176Y-68182455D01*
G37*
%TD.AperFunction*%
%TD*%
%TA.AperFunction,Conductor*%
%TO.N,GND*%
G36*
X136704489Y-52070865D02*
G01*
X137474732Y-52390891D01*
X137481006Y-52397109D01*
X137481146Y-52405941D01*
X136952903Y-53762545D01*
X136948604Y-53767958D01*
X136942000Y-53770000D01*
X136458000Y-53770000D01*
X136451396Y-53767958D01*
X136447097Y-53762545D01*
X135918853Y-52405941D01*
X135918993Y-52397109D01*
X135925266Y-52390891D01*
X136695511Y-52070864D01*
X136700000Y-52069970D01*
X136704489Y-52070865D01*
G37*
%TD.AperFunction*%
%TD*%
%TA.AperFunction,Conductor*%
%TO.N,GND*%
G36*
X102173971Y-65477381D02*
G01*
X102214346Y-65485412D01*
X102259043Y-65503927D01*
X102282913Y-65519877D01*
X102317122Y-65554086D01*
X102333072Y-65577956D01*
X102351588Y-65622656D01*
X102359617Y-65663019D01*
X102362000Y-65687211D01*
X102362000Y-66802000D01*
X104943789Y-66802000D01*
X104967971Y-66804381D01*
X105008346Y-66812412D01*
X105053043Y-66830927D01*
X105076913Y-66846877D01*
X105111122Y-66881086D01*
X105127072Y-66904956D01*
X105145588Y-66949656D01*
X105153617Y-66990019D01*
X105156000Y-67014211D01*
X105156000Y-73937789D01*
X105153617Y-73961982D01*
X105145588Y-74002344D01*
X105127072Y-74047043D01*
X105111122Y-74070913D01*
X105076913Y-74105122D01*
X105053043Y-74121072D01*
X105008344Y-74139588D01*
X104991841Y-74142870D01*
X104967978Y-74147617D01*
X104943789Y-74150000D01*
X94690305Y-74150000D01*
X94658307Y-74145800D01*
X94606307Y-74131911D01*
X94550837Y-74100005D01*
X94524626Y-74073921D01*
X94492450Y-74018604D01*
X94478310Y-73966673D01*
X94473955Y-73934698D01*
X94451035Y-69213218D01*
X94453314Y-69188948D01*
X94461196Y-69148420D01*
X94479601Y-69103525D01*
X94495526Y-69079533D01*
X94529753Y-69045140D01*
X94553667Y-69029098D01*
X94598476Y-69010475D01*
X94620336Y-69006113D01*
X94638961Y-69002397D01*
X94663225Y-69000000D01*
X99825282Y-69000000D01*
X99825283Y-69000000D01*
X99908000Y-69000000D01*
X100838000Y-68072000D01*
X100826067Y-65688251D01*
X100828343Y-65663975D01*
X100836220Y-65623449D01*
X100854626Y-65578539D01*
X100870547Y-65554550D01*
X100904775Y-65520149D01*
X100909763Y-65516801D01*
X100928686Y-65504106D01*
X100973500Y-65485477D01*
X101013994Y-65477396D01*
X101038255Y-65475000D01*
X102149789Y-65475000D01*
X102173971Y-65477381D01*
G37*
%TD.AperFunction*%
%TD*%
%TA.AperFunction,Conductor*%
%TO.N,Net-(U1-VNEG)*%
G36*
X125475341Y-67158990D02*
G01*
X125479775Y-67164336D01*
X125678795Y-67647141D01*
X125678854Y-67655913D01*
X125672799Y-67662261D01*
X124722355Y-68092059D01*
X124715435Y-68092908D01*
X124709261Y-68089671D01*
X124543078Y-67923488D01*
X124540024Y-67918147D01*
X124540103Y-67911994D01*
X124615944Y-67647141D01*
X124748636Y-67183745D01*
X124752722Y-67177716D01*
X124759581Y-67175273D01*
X125468658Y-67157099D01*
X125475341Y-67158990D01*
G37*
%TD.AperFunction*%
%TD*%
%TA.AperFunction,Conductor*%
%TO.N,Net-(U1-OUTL)*%
G36*
X128335396Y-71233290D02*
G01*
X128947137Y-71464541D01*
X128952625Y-71468833D01*
X128954700Y-71475485D01*
X128954700Y-71709315D01*
X128952625Y-71715967D01*
X128947137Y-71720259D01*
X128318355Y-71957951D01*
X128309584Y-71957750D01*
X128303419Y-71951509D01*
X128155575Y-71596897D01*
X128154675Y-71592400D01*
X128155575Y-71587902D01*
X128303419Y-71233289D01*
X128309584Y-71227049D01*
X128318354Y-71226848D01*
X128335396Y-71233290D01*
G37*
%TD.AperFunction*%
%TD*%
%TA.AperFunction,Conductor*%
%TO.N,/LOUT*%
G36*
X130629069Y-76279797D02*
G01*
X130633386Y-76284634D01*
X131285150Y-77641586D01*
X131286252Y-77647748D01*
X131284019Y-77653596D01*
X131279092Y-77657457D01*
X130509689Y-77977134D01*
X130505200Y-77978029D01*
X130500711Y-77977134D01*
X129731307Y-77657457D01*
X129726380Y-77653596D01*
X129724147Y-77647748D01*
X129725249Y-77641586D01*
X130377014Y-76284634D01*
X130381331Y-76279797D01*
X130387561Y-76278000D01*
X130622839Y-76278000D01*
X130629069Y-76279797D01*
G37*
%TD.AperFunction*%
%TD*%
%TA.AperFunction,Conductor*%
%TO.N,GND*%
G36*
X116793456Y-65957883D02*
G01*
X116797747Y-65963392D01*
X116867262Y-66148765D01*
X116867745Y-66155336D01*
X116864601Y-66161125D01*
X116678194Y-66348464D01*
X116672938Y-66351511D01*
X116666862Y-66351511D01*
X116661606Y-66348465D01*
X116661605Y-66348464D01*
X116475196Y-66161122D01*
X116472054Y-66155336D01*
X116472536Y-66148768D01*
X116542053Y-65963392D01*
X116546344Y-65957883D01*
X116553008Y-65955800D01*
X116786792Y-65955800D01*
X116793456Y-65957883D01*
G37*
%TD.AperFunction*%
%TD*%
%TA.AperFunction,Conductor*%
%TO.N,/ROUT*%
G36*
X135709069Y-76279797D02*
G01*
X135713386Y-76284634D01*
X136365150Y-77641586D01*
X136366252Y-77647748D01*
X136364019Y-77653596D01*
X136359092Y-77657457D01*
X135589689Y-77977134D01*
X135585200Y-77978029D01*
X135580711Y-77977134D01*
X134811307Y-77657457D01*
X134806380Y-77653596D01*
X134804147Y-77647748D01*
X134805249Y-77641586D01*
X135457014Y-76284634D01*
X135461331Y-76279797D01*
X135467561Y-76278000D01*
X135702839Y-76278000D01*
X135709069Y-76279797D01*
G37*
%TD.AperFunction*%
%TD*%
%TA.AperFunction,Conductor*%
%TO.N,+3V3*%
G36*
X88444488Y-52070865D02*
G01*
X89213892Y-52390542D01*
X89218819Y-52394403D01*
X89221052Y-52400251D01*
X89219950Y-52406413D01*
X88568186Y-53763366D01*
X88563869Y-53768203D01*
X88557639Y-53770000D01*
X88322361Y-53770000D01*
X88316131Y-53768203D01*
X88311814Y-53763366D01*
X87660049Y-52406413D01*
X87658947Y-52400251D01*
X87661180Y-52394403D01*
X87666105Y-52390542D01*
X88435512Y-52070864D01*
X88439999Y-52069970D01*
X88444488Y-52070865D01*
G37*
%TD.AperFunction*%
%TD*%
%TA.AperFunction,Conductor*%
%TO.N,Net-(J1-GPIO19{slash}MISO1)*%
G36*
X117349032Y-68114278D02*
G01*
X117598617Y-68178539D01*
X117604947Y-68182701D01*
X117607400Y-68189869D01*
X117607400Y-68421731D01*
X117604947Y-68428899D01*
X117598617Y-68433061D01*
X117348737Y-68497397D01*
X117342621Y-68497321D01*
X116708488Y-68317054D01*
X116702351Y-68312852D01*
X116699987Y-68305800D01*
X116702351Y-68298748D01*
X116708488Y-68294546D01*
X117101928Y-68182701D01*
X117342621Y-68114277D01*
X117348736Y-68114202D01*
X117349032Y-68114278D01*
G37*
%TD.AperFunction*%
%TD*%
%TA.AperFunction,Conductor*%
%TO.N,+3V3*%
G36*
X120455753Y-60969641D02*
G01*
X120922629Y-61524561D01*
X120925317Y-61530918D01*
X120923954Y-61537684D01*
X120575123Y-62178891D01*
X120570823Y-62183358D01*
X120564845Y-62185000D01*
X120328755Y-62185000D01*
X120322777Y-62183358D01*
X120318477Y-62178891D01*
X119969645Y-61537684D01*
X119968282Y-61530918D01*
X119970969Y-61524562D01*
X120437847Y-60969640D01*
X120443449Y-60965963D01*
X120450151Y-60965963D01*
X120455753Y-60969641D01*
G37*
%TD.AperFunction*%
%TD*%
%TA.AperFunction,Conductor*%
%TO.N,Net-(J1-GPIO18{slash}PWM0)*%
G36*
X101925729Y-49211378D02*
G01*
X101929274Y-49216603D01*
X102434943Y-50727845D01*
X102434996Y-50735109D01*
X102430753Y-50741003D01*
X102423848Y-50743258D01*
X102191879Y-50743258D01*
X102188403Y-50742730D01*
X102140565Y-50727845D01*
X100826951Y-50319104D01*
X100821595Y-50315606D01*
X100818879Y-50309814D01*
X100819615Y-50303461D01*
X101138145Y-49533483D01*
X101140683Y-49529684D01*
X101144485Y-49527147D01*
X101913716Y-49209501D01*
X101919984Y-49208756D01*
X101925729Y-49211378D01*
G37*
%TD.AperFunction*%
%TD*%
%TA.AperFunction,Conductor*%
%TO.N,Net-(U1-LDOO)*%
G36*
X115997178Y-70064278D02*
G01*
X116631311Y-70244546D01*
X116637448Y-70248748D01*
X116639812Y-70255800D01*
X116637448Y-70262852D01*
X116631311Y-70267054D01*
X115997178Y-70447321D01*
X115991062Y-70447397D01*
X115741183Y-70383061D01*
X115734853Y-70378899D01*
X115732400Y-70371731D01*
X115732400Y-70139869D01*
X115734853Y-70132701D01*
X115741183Y-70128539D01*
X115853892Y-70099519D01*
X115991063Y-70064202D01*
X115997178Y-70064278D01*
G37*
%TD.AperFunction*%
%TD*%
%TA.AperFunction,Conductor*%
%TO.N,/5.2V*%
G36*
X94249315Y-63094708D02*
G01*
X94736903Y-63593420D01*
X94740237Y-63601599D01*
X94736903Y-63609778D01*
X94249316Y-64108490D01*
X94243343Y-64111764D01*
X94236560Y-64111156D01*
X93726210Y-63904559D01*
X93720898Y-63900253D01*
X93718900Y-63893714D01*
X93718900Y-63309486D01*
X93720898Y-63302947D01*
X93726210Y-63298641D01*
X93824347Y-63258913D01*
X94236562Y-63092042D01*
X94243343Y-63091435D01*
X94249315Y-63094708D01*
G37*
%TD.AperFunction*%
%TD*%
%TA.AperFunction,Conductor*%
%TO.N,GND*%
G36*
X113857804Y-76302042D02*
G01*
X113862103Y-76307455D01*
X114390346Y-77664058D01*
X114390206Y-77672890D01*
X114383932Y-77679108D01*
X113613689Y-77999134D01*
X113609200Y-78000029D01*
X113604711Y-77999134D01*
X112834467Y-77679108D01*
X112828193Y-77672890D01*
X112828053Y-77664058D01*
X113356297Y-76307455D01*
X113360596Y-76302042D01*
X113367200Y-76300000D01*
X113851200Y-76300000D01*
X113857804Y-76302042D01*
G37*
%TD.AperFunction*%
%TD*%
%TA.AperFunction,Conductor*%
%TO.N,GND*%
G36*
X114486584Y-68323001D02*
G01*
X114986353Y-68752299D01*
X114989361Y-68756291D01*
X114990429Y-68761174D01*
X114990429Y-69144185D01*
X114987032Y-69152428D01*
X114978814Y-69155884D01*
X114402660Y-69160082D01*
X114254365Y-69161163D01*
X114249709Y-69160233D01*
X114245806Y-69157530D01*
X113784345Y-68672802D01*
X113781224Y-68666300D01*
X113782509Y-68659203D01*
X113787710Y-68654209D01*
X114473856Y-68321348D01*
X114480465Y-68320273D01*
X114486584Y-68323001D01*
G37*
%TD.AperFunction*%
%TD*%
%TA.AperFunction,Conductor*%
%TO.N,GND*%
G36*
X122403192Y-65713134D02*
G01*
X122589601Y-65900475D01*
X122592745Y-65906263D01*
X122592262Y-65912834D01*
X122522747Y-66098208D01*
X122518456Y-66103717D01*
X122511792Y-66105800D01*
X122278008Y-66105800D01*
X122271344Y-66103717D01*
X122267053Y-66098208D01*
X122197536Y-65912831D01*
X122197054Y-65906263D01*
X122200194Y-65900478D01*
X122386609Y-65713131D01*
X122391862Y-65710088D01*
X122397938Y-65710088D01*
X122403192Y-65713134D01*
G37*
%TD.AperFunction*%
%TD*%
%TA.AperFunction,Conductor*%
%TO.N,GND*%
G36*
X116678192Y-65713134D02*
G01*
X116864601Y-65900475D01*
X116867745Y-65906263D01*
X116867262Y-65912834D01*
X116797747Y-66098208D01*
X116793456Y-66103717D01*
X116786792Y-66105800D01*
X116553008Y-66105800D01*
X116546344Y-66103717D01*
X116542053Y-66098208D01*
X116472536Y-65912831D01*
X116472054Y-65906263D01*
X116475194Y-65900478D01*
X116661609Y-65713131D01*
X116666862Y-65710088D01*
X116672938Y-65710088D01*
X116678192Y-65713134D01*
G37*
%TD.AperFunction*%
%TD*%
%TA.AperFunction,Conductor*%
%TO.N,/FB*%
G36*
X95751853Y-66695298D02*
G01*
X95756159Y-66700610D01*
X95962756Y-67210960D01*
X95963364Y-67217743D01*
X95960090Y-67223716D01*
X95461379Y-67711303D01*
X95453200Y-67714637D01*
X95445021Y-67711303D01*
X94946309Y-67223716D01*
X94943035Y-67217743D01*
X94943642Y-67210962D01*
X95150240Y-66700610D01*
X95154547Y-66695298D01*
X95161086Y-66693300D01*
X95745314Y-66693300D01*
X95751853Y-66695298D01*
G37*
%TD.AperFunction*%
%TD*%
%TA.AperFunction,Conductor*%
%TO.N,/LOUT*%
G36*
X131312421Y-72470176D02*
G01*
X131478488Y-72636243D01*
X131481580Y-72641738D01*
X131481372Y-72648039D01*
X131233276Y-73433708D01*
X131228872Y-73439739D01*
X131221717Y-73441878D01*
X130537432Y-73418366D01*
X130531160Y-73416283D01*
X130527017Y-73411132D01*
X130322650Y-72915416D01*
X130322603Y-72906614D01*
X130328704Y-72900270D01*
X131299389Y-72467761D01*
X131306279Y-72466945D01*
X131312421Y-72470176D01*
G37*
%TD.AperFunction*%
%TD*%
%TA.AperFunction,Conductor*%
%TO.N,/5.2V*%
G36*
X108777971Y-60200381D02*
G01*
X108818346Y-60208412D01*
X108863043Y-60226927D01*
X108886913Y-60242877D01*
X108921122Y-60277086D01*
X108937072Y-60300956D01*
X108955588Y-60345656D01*
X108963617Y-60386019D01*
X108966000Y-60410211D01*
X108966000Y-70907789D01*
X108963617Y-70931982D01*
X108955588Y-70972344D01*
X108937072Y-71017043D01*
X108921122Y-71040913D01*
X108886913Y-71075122D01*
X108863043Y-71091072D01*
X108818344Y-71109588D01*
X108801841Y-71112870D01*
X108777978Y-71117617D01*
X108753789Y-71120000D01*
X106384211Y-71120000D01*
X106360020Y-71117617D01*
X106344744Y-71114578D01*
X106319656Y-71109588D01*
X106274956Y-71091072D01*
X106251086Y-71075122D01*
X106216877Y-71040913D01*
X106200927Y-71017043D01*
X106182412Y-70972346D01*
X106174381Y-70931971D01*
X106172000Y-70907789D01*
X106172000Y-60410211D01*
X106174381Y-60386027D01*
X106182412Y-60345653D01*
X106200927Y-60300956D01*
X106216877Y-60277086D01*
X106251086Y-60242877D01*
X106274956Y-60226927D01*
X106319653Y-60208412D01*
X106360027Y-60200381D01*
X106384211Y-60198000D01*
X108753789Y-60198000D01*
X108777971Y-60200381D01*
G37*
%TD.AperFunction*%
%TD*%
%TA.AperFunction,Conductor*%
%TO.N,Net-(U1-CAPP)*%
G36*
X123130370Y-70779963D02*
G01*
X123368908Y-70900560D01*
X123374043Y-70905667D01*
X123375187Y-70912819D01*
X123371902Y-70919274D01*
X123209403Y-71081773D01*
X123202542Y-71085114D01*
X123034910Y-71105494D01*
X123029988Y-71105041D01*
X122440182Y-70919556D01*
X122434034Y-70914999D01*
X122432018Y-70907616D01*
X122434997Y-70900567D01*
X122441695Y-70896867D01*
X123123095Y-70778876D01*
X123130370Y-70779963D01*
G37*
%TD.AperFunction*%
%TD*%
%TA.AperFunction,Conductor*%
%TO.N,/VIN*%
G36*
X99836971Y-64552381D02*
G01*
X99877346Y-64560412D01*
X99922043Y-64578927D01*
X99945913Y-64594877D01*
X99980122Y-64629086D01*
X99996072Y-64652956D01*
X100014588Y-64697656D01*
X100022617Y-64738019D01*
X100025000Y-64762211D01*
X100025000Y-67962789D01*
X100022617Y-67986982D01*
X100014588Y-68027344D01*
X99996072Y-68072043D01*
X99980122Y-68095913D01*
X99945913Y-68130122D01*
X99922043Y-68146072D01*
X99877344Y-68164588D01*
X99860841Y-68167870D01*
X99836978Y-68172617D01*
X99812789Y-68175000D01*
X96787211Y-68175000D01*
X96763020Y-68172617D01*
X96747744Y-68169578D01*
X96722656Y-68164588D01*
X96677956Y-68146072D01*
X96654086Y-68130122D01*
X96619877Y-68095913D01*
X96603927Y-68072043D01*
X96585412Y-68027346D01*
X96577381Y-67986971D01*
X96575000Y-67962789D01*
X96575000Y-64762211D01*
X96577381Y-64738029D01*
X96585387Y-64697779D01*
X96600496Y-64658475D01*
X96627888Y-64626494D01*
X96678762Y-64584347D01*
X96733674Y-64558220D01*
X96763031Y-64552380D01*
X96787213Y-64550000D01*
X99812789Y-64550000D01*
X99836971Y-64552381D01*
G37*
%TD.AperFunction*%
%TD*%
%TA.AperFunction,Conductor*%
%TO.N,Net-(U2-A{slash}VEE)*%
G36*
X126567575Y-56007575D02*
G01*
X127152679Y-56592679D01*
X127155718Y-56597964D01*
X127155686Y-56604060D01*
X127152591Y-56609312D01*
X126656590Y-57094908D01*
X126489190Y-57262308D01*
X126483472Y-57265453D01*
X126476958Y-57265045D01*
X126471677Y-57261212D01*
X126247915Y-56973098D01*
X125965281Y-56609182D01*
X125962844Y-56601282D01*
X125966238Y-56593744D01*
X126551022Y-56007582D01*
X126556265Y-56004549D01*
X126562326Y-56004545D01*
X126567575Y-56007575D01*
G37*
%TD.AperFunction*%
%TD*%
%TA.AperFunction,Conductor*%
%TO.N,GND*%
G36*
X100145218Y-78378314D02*
G01*
X100675269Y-78857724D01*
X100678806Y-78863705D01*
X100678327Y-78870638D01*
X100674000Y-78876076D01*
X100059535Y-79293945D01*
X100053313Y-79295965D01*
X100046979Y-79294328D01*
X99374255Y-78894557D01*
X99369587Y-78889354D01*
X99368718Y-78882419D01*
X99371957Y-78876228D01*
X99713081Y-78535104D01*
X99717232Y-78532428D01*
X100133255Y-78376038D01*
X100139555Y-78375497D01*
X100145218Y-78378314D01*
G37*
%TD.AperFunction*%
%TD*%
%TA.AperFunction,Conductor*%
%TO.N,Net-(U1-CAPP)*%
G36*
X124911501Y-71619633D02*
G01*
X125464678Y-72085967D01*
X125468475Y-72092023D01*
X125468039Y-72099158D01*
X125463534Y-72104708D01*
X124830892Y-72517821D01*
X124824270Y-72519723D01*
X124817726Y-72517568D01*
X124215827Y-72090619D01*
X124211705Y-72085351D01*
X124211143Y-72078687D01*
X124214321Y-72072805D01*
X124380149Y-71906977D01*
X124382727Y-71905032D01*
X124898274Y-71618352D01*
X124905087Y-71616932D01*
X124911501Y-71619633D01*
G37*
%TD.AperFunction*%
%TD*%
%TA.AperFunction,Conductor*%
%TO.N,GND*%
G36*
X118605029Y-59661427D02*
G01*
X118946099Y-60002497D01*
X118949285Y-60008409D01*
X119026624Y-60383768D01*
X119026505Y-60389008D01*
X119024110Y-60393670D01*
X118557153Y-60947586D01*
X118550785Y-60951458D01*
X118543371Y-60950698D01*
X118537921Y-60945618D01*
X118236651Y-60389329D01*
X118176796Y-60278807D01*
X118175399Y-60272650D01*
X118177403Y-60266666D01*
X118587079Y-59663126D01*
X118592331Y-59658869D01*
X118599066Y-59658230D01*
X118605029Y-59661427D01*
G37*
%TD.AperFunction*%
%TD*%
%TA.AperFunction,Conductor*%
%TO.N,+3V3*%
G36*
X121759277Y-71356390D02*
G01*
X122347643Y-71541423D01*
X122353821Y-71546025D01*
X122355798Y-71553472D01*
X122352715Y-71560534D01*
X122345910Y-71564147D01*
X121663998Y-71668990D01*
X121656701Y-71667743D01*
X121427115Y-71544924D01*
X121422139Y-71539779D01*
X121421090Y-71532700D01*
X121424359Y-71526336D01*
X121586701Y-71363994D01*
X121594628Y-71360573D01*
X121755432Y-71355857D01*
X121759277Y-71356390D01*
G37*
%TD.AperFunction*%
%TD*%
%TA.AperFunction,Conductor*%
%TO.N,Net-(J1-SCLK0{slash}GPIO11)*%
G36*
X116384488Y-52070865D02*
G01*
X117153892Y-52390542D01*
X117158819Y-52394403D01*
X117161052Y-52400251D01*
X117159950Y-52406413D01*
X116508186Y-53763366D01*
X116503869Y-53768203D01*
X116497639Y-53770000D01*
X116262361Y-53770000D01*
X116256131Y-53768203D01*
X116251814Y-53763366D01*
X115600049Y-52406413D01*
X115598947Y-52400251D01*
X115601180Y-52394403D01*
X115606105Y-52390542D01*
X116375512Y-52070864D01*
X116379999Y-52069970D01*
X116384488Y-52070865D01*
G37*
%TD.AperFunction*%
%TD*%
%TA.AperFunction,Conductor*%
%TO.N,/ROUT*%
G36*
X135568095Y-73424278D02*
G01*
X136077442Y-73907994D01*
X136081030Y-73915347D01*
X136078924Y-73923253D01*
X135713698Y-74437475D01*
X135709527Y-74441096D01*
X135704159Y-74442400D01*
X135465973Y-74442400D01*
X135460796Y-74441192D01*
X135456688Y-74437819D01*
X135065828Y-73928028D01*
X135063437Y-73920161D01*
X135066813Y-73912663D01*
X135551738Y-73424516D01*
X135559868Y-73421063D01*
X135568095Y-73424278D01*
G37*
%TD.AperFunction*%
%TD*%
%TA.AperFunction,Conductor*%
%TO.N,/FB*%
G36*
X97088418Y-63220188D02*
G01*
X97315890Y-63388362D01*
X97589156Y-63590393D01*
X97592647Y-63594533D01*
X97593900Y-63599801D01*
X97593900Y-64183222D01*
X97590842Y-64191109D01*
X97583267Y-64194872D01*
X97305303Y-64220293D01*
X96982232Y-64249839D01*
X96975976Y-64248674D01*
X96971256Y-64244407D01*
X96939563Y-64193900D01*
X96573610Y-63610701D01*
X96572015Y-63602359D01*
X96576482Y-63595138D01*
X97074427Y-63220249D01*
X97081412Y-63217897D01*
X97088418Y-63220188D01*
G37*
%TD.AperFunction*%
%TD*%
%TA.AperFunction,Conductor*%
%TO.N,Net-(U1-OUTR)*%
G36*
X134791011Y-70642761D02*
G01*
X135761694Y-71075270D01*
X135767796Y-71081614D01*
X135767749Y-71090416D01*
X135563382Y-71586132D01*
X135559239Y-71591283D01*
X135552967Y-71593366D01*
X134868682Y-71616879D01*
X134861527Y-71614740D01*
X134857123Y-71608709D01*
X134609026Y-70823036D01*
X134608819Y-70816738D01*
X134611909Y-70811245D01*
X134777980Y-70645174D01*
X134784120Y-70641945D01*
X134791011Y-70642761D01*
G37*
%TD.AperFunction*%
%TD*%
%TA.AperFunction,Conductor*%
%TO.N,Net-(J1-SCL{slash}GPIO3)*%
G36*
X102593251Y-54711968D02*
G01*
X103075027Y-54881102D01*
X104013630Y-55210611D01*
X104018765Y-55214188D01*
X104021322Y-55219902D01*
X104020567Y-55226116D01*
X103702562Y-55996214D01*
X103700021Y-56000021D01*
X103696214Y-56002562D01*
X102926116Y-56320567D01*
X102919902Y-56321322D01*
X102914188Y-56318765D01*
X102910611Y-56313629D01*
X102800755Y-56000707D01*
X102524637Y-55214188D01*
X102411968Y-54893251D01*
X102411599Y-54886777D01*
X102414732Y-54881104D01*
X102581104Y-54714732D01*
X102586777Y-54711599D01*
X102593251Y-54711968D01*
G37*
%TD.AperFunction*%
%TD*%
%TA.AperFunction,Conductor*%
%TO.N,+3V3*%
G36*
X121657475Y-66740858D02*
G01*
X121661198Y-66741812D01*
X121687408Y-66753385D01*
X121690323Y-66753723D01*
X121712535Y-66756300D01*
X121836556Y-66756299D01*
X121837515Y-66756341D01*
X122400996Y-66804798D01*
X122408940Y-66808916D01*
X122411651Y-66817444D01*
X122396454Y-66996524D01*
X122393008Y-67003869D01*
X122385612Y-67007206D01*
X121661223Y-67057872D01*
X121654161Y-67056095D01*
X121439970Y-66920881D01*
X121435486Y-66915651D01*
X121434721Y-66908804D01*
X121437941Y-66902716D01*
X121600518Y-66740139D01*
X121604779Y-66737423D01*
X121609789Y-66736757D01*
X121657475Y-66740858D01*
G37*
%TD.AperFunction*%
%TD*%
%TA.AperFunction,Conductor*%
%TO.N,GND*%
G36*
X122518456Y-65957883D02*
G01*
X122522747Y-65963392D01*
X122592262Y-66148765D01*
X122592745Y-66155336D01*
X122589601Y-66161125D01*
X122403194Y-66348464D01*
X122397938Y-66351511D01*
X122391862Y-66351511D01*
X122386606Y-66348465D01*
X122386605Y-66348464D01*
X122200196Y-66161122D01*
X122197054Y-66155336D01*
X122197536Y-66148768D01*
X122267053Y-65963392D01*
X122271344Y-65957883D01*
X122278008Y-65955800D01*
X122511792Y-65955800D01*
X122518456Y-65957883D01*
G37*
%TD.AperFunction*%
%TD*%
%TA.AperFunction,Conductor*%
%TO.N,/5.2V*%
G36*
X87664940Y-49208946D02*
G01*
X88436216Y-49527438D01*
X88440021Y-49529978D01*
X88442562Y-49533785D01*
X88761052Y-50305056D01*
X88761161Y-50313715D01*
X88755285Y-50320077D01*
X87457518Y-50940642D01*
X87450495Y-50941619D01*
X87444198Y-50938360D01*
X87031639Y-50525801D01*
X87028380Y-50519504D01*
X87029356Y-50512484D01*
X87649923Y-49214713D01*
X87656284Y-49208838D01*
X87664940Y-49208946D01*
G37*
%TD.AperFunction*%
%TD*%
%TA.AperFunction,Conductor*%
%TO.N,GND*%
G36*
X133900085Y-77598858D02*
G01*
X134557730Y-79025670D01*
X134558804Y-79030568D01*
X134558804Y-79510996D01*
X134556451Y-79518034D01*
X134550337Y-79522240D01*
X134542923Y-79521923D01*
X132740250Y-78832136D01*
X132733774Y-78826037D01*
X132733459Y-78817146D01*
X133042514Y-77982552D01*
X133044909Y-77978657D01*
X133048612Y-77975979D01*
X133884588Y-77593118D01*
X133893523Y-77592784D01*
X133900085Y-77598858D01*
G37*
%TD.AperFunction*%
%TD*%
%TA.AperFunction,Conductor*%
%TO.N,Net-(U1-OUTR)*%
G36*
X123074032Y-67464278D02*
G01*
X123323617Y-67528539D01*
X123329947Y-67532701D01*
X123332400Y-67539869D01*
X123332400Y-67771731D01*
X123329947Y-67778899D01*
X123323617Y-67783061D01*
X123073737Y-67847397D01*
X123067621Y-67847321D01*
X122433488Y-67667053D01*
X122427351Y-67662851D01*
X122424987Y-67655799D01*
X122427351Y-67648747D01*
X122433485Y-67644546D01*
X123067621Y-67464277D01*
X123073736Y-67464202D01*
X123074032Y-67464278D01*
G37*
%TD.AperFunction*%
%TD*%
%TA.AperFunction,Conductor*%
%TO.N,Net-(U3-BST)*%
G36*
X100127904Y-61640807D02*
G01*
X100132913Y-61644659D01*
X100135188Y-61650555D01*
X100223913Y-62582935D01*
X100223276Y-62588003D01*
X100220539Y-62592316D01*
X99809546Y-63003309D01*
X99803829Y-63006453D01*
X99797316Y-63006047D01*
X99792035Y-63002215D01*
X99601395Y-62756904D01*
X99360322Y-62446696D01*
X99357987Y-62441230D01*
X99358640Y-62435323D01*
X99630892Y-61727533D01*
X99634415Y-61722670D01*
X99639888Y-61720196D01*
X100121624Y-61640121D01*
X100127904Y-61640807D01*
G37*
%TD.AperFunction*%
%TD*%
%TA.AperFunction,Conductor*%
%TO.N,GND*%
G36*
X91850784Y-55643258D02*
G01*
X91854495Y-55648114D01*
X92469655Y-57151871D01*
X92470526Y-57156301D01*
X92470526Y-57636009D01*
X92468049Y-57643208D01*
X92461666Y-57647359D01*
X92454081Y-57646703D01*
X90668862Y-56854574D01*
X90662768Y-56848286D01*
X90662746Y-56839531D01*
X90997196Y-56004503D01*
X90999691Y-56000676D01*
X91003463Y-55998096D01*
X91839079Y-55641781D01*
X91845130Y-55640936D01*
X91850784Y-55643258D01*
G37*
%TD.AperFunction*%
%TD*%
%TA.AperFunction,Conductor*%
%TO.N,GND*%
G36*
X131132976Y-67024255D02*
G01*
X131395498Y-67116922D01*
X131773194Y-67250245D01*
X131778851Y-67254521D01*
X131781000Y-67261278D01*
X131781000Y-67744722D01*
X131778851Y-67751479D01*
X131773194Y-67755755D01*
X131132978Y-67981743D01*
X131126989Y-67982221D01*
X131121552Y-67979663D01*
X130565641Y-67511953D01*
X130561963Y-67506351D01*
X130561963Y-67499649D01*
X130565641Y-67494047D01*
X131121554Y-67026334D01*
X131126989Y-67023778D01*
X131132976Y-67024255D01*
G37*
%TD.AperFunction*%
%TD*%
%TA.AperFunction,Conductor*%
%TO.N,GND*%
G36*
X101949900Y-55685192D02*
G01*
X102535639Y-57017981D01*
X102536427Y-57024848D01*
X102533201Y-57030961D01*
X102190961Y-57373201D01*
X102184848Y-57376427D01*
X102177981Y-57375639D01*
X100845192Y-56789900D01*
X100839045Y-56783557D01*
X100839084Y-56774725D01*
X101157439Y-56003780D01*
X101159978Y-55999978D01*
X101163780Y-55997439D01*
X101934725Y-55679084D01*
X101943557Y-55679045D01*
X101949900Y-55685192D01*
G37*
%TD.AperFunction*%
%TD*%
%TA.AperFunction,Conductor*%
%TO.N,Net-(J1-SDA{slash}GPIO2)*%
G36*
X91765811Y-51751234D02*
G01*
X91769388Y-51756370D01*
X92268031Y-53176748D01*
X92268400Y-53183222D01*
X92265265Y-53188897D01*
X92098897Y-53355265D01*
X92093222Y-53358400D01*
X92086748Y-53358031D01*
X90666370Y-52859388D01*
X90661234Y-52855811D01*
X90658677Y-52850097D01*
X90659431Y-52843885D01*
X90977439Y-52073780D01*
X90979978Y-52069978D01*
X90983780Y-52067439D01*
X91753885Y-51749431D01*
X91760097Y-51748677D01*
X91765811Y-51751234D01*
G37*
%TD.AperFunction*%
%TD*%
%TA.AperFunction,Conductor*%
%TO.N,Net-(J1-GPIO21{slash}SCLK1)*%
G36*
X117966067Y-66463549D02*
G01*
X118320096Y-66609236D01*
X118323916Y-66611783D01*
X118326463Y-66615604D01*
X118473103Y-66971949D01*
X118473370Y-66980138D01*
X118468200Y-66986494D01*
X117922200Y-67306603D01*
X117914795Y-67308115D01*
X117908010Y-67304783D01*
X117742673Y-67139446D01*
X117739574Y-67133926D01*
X117739805Y-67127600D01*
X117950477Y-66470795D01*
X117953989Y-66465498D01*
X117959754Y-66462819D01*
X117966067Y-66463549D01*
G37*
%TD.AperFunction*%
%TD*%
%TA.AperFunction,Conductor*%
%TO.N,+5V*%
G36*
X92187678Y-48231323D02*
G01*
X92189945Y-48238244D01*
X92189945Y-48470145D01*
X92189430Y-48473578D01*
X91769071Y-49842986D01*
X91765582Y-49848365D01*
X91759783Y-49851098D01*
X91753413Y-49850364D01*
X90983487Y-49531856D01*
X90979684Y-49529316D01*
X90977146Y-49525511D01*
X90659477Y-48756224D01*
X90658728Y-48749974D01*
X90661326Y-48744240D01*
X90666517Y-48740684D01*
X91817415Y-48348760D01*
X92174473Y-48227169D01*
X92181756Y-48227083D01*
X92187678Y-48231323D01*
G37*
%TD.AperFunction*%
%TD*%
%TA.AperFunction,Conductor*%
%TO.N,/LOUT*%
G36*
X130538662Y-73424516D02*
G01*
X131023586Y-73912663D01*
X131026961Y-73920161D01*
X131024570Y-73928028D01*
X130633712Y-74437819D01*
X130629604Y-74441192D01*
X130624427Y-74442400D01*
X130386241Y-74442400D01*
X130380873Y-74441096D01*
X130376702Y-74437475D01*
X130011473Y-73923252D01*
X130009368Y-73915347D01*
X130012956Y-73907994D01*
X130522304Y-73424277D01*
X130530531Y-73421063D01*
X130538662Y-73424516D01*
G37*
%TD.AperFunction*%
%TD*%
%TA.AperFunction,Conductor*%
%TO.N,Net-(D1-Pin_1)*%
G36*
X101238624Y-76552739D02*
G01*
X101964067Y-76968069D01*
X101968846Y-76973253D01*
X101969779Y-76980241D01*
X101966527Y-76986496D01*
X101801373Y-77151650D01*
X101799636Y-77153081D01*
X101319046Y-77476784D01*
X101312400Y-77478779D01*
X101305793Y-77476660D01*
X100696918Y-77049724D01*
X100692687Y-77044271D01*
X100692265Y-77037383D01*
X100695797Y-77031458D01*
X101224978Y-76554204D01*
X101231563Y-76551261D01*
X101238624Y-76552739D01*
G37*
%TD.AperFunction*%
%TD*%
M02*
