%TF.GenerationSoftware,KiCad,Pcbnew,7.0.1*%
%TF.CreationDate,2023-07-06T22:47:11-05:00*%
%TF.ProjectId,squishbox1,73717569-7368-4626-9f78-312e6b696361,rev?*%
%TF.SameCoordinates,Original*%
%TF.FileFunction,Paste,Top*%
%TF.FilePolarity,Positive*%
%FSLAX46Y46*%
G04 Gerber Fmt 4.6, Leading zero omitted, Abs format (unit mm)*
G04 Created by KiCad (PCBNEW 7.0.1) date 2023-07-06 22:47:11*
%MOMM*%
%LPD*%
G01*
G04 APERTURE LIST*
G04 Aperture macros list*
%AMRoundRect*
0 Rectangle with rounded corners*
0 $1 Rounding radius*
0 $2 $3 $4 $5 $6 $7 $8 $9 X,Y pos of 4 corners*
0 Add a 4 corners polygon primitive as box body*
4,1,4,$2,$3,$4,$5,$6,$7,$8,$9,$2,$3,0*
0 Add four circle primitives for the rounded corners*
1,1,$1+$1,$2,$3*
1,1,$1+$1,$4,$5*
1,1,$1+$1,$6,$7*
1,1,$1+$1,$8,$9*
0 Add four rect primitives between the rounded corners*
20,1,$1+$1,$2,$3,$4,$5,0*
20,1,$1+$1,$4,$5,$6,$7,0*
20,1,$1+$1,$6,$7,$8,$9,0*
20,1,$1+$1,$8,$9,$2,$3,0*%
G04 Aperture macros list end*
%ADD10RoundRect,0.250000X0.250000X0.475000X-0.250000X0.475000X-0.250000X-0.475000X0.250000X-0.475000X0*%
%ADD11RoundRect,0.250000X-0.262500X-0.450000X0.262500X-0.450000X0.262500X0.450000X-0.262500X0.450000X0*%
%ADD12RoundRect,0.250000X-0.250000X-0.475000X0.250000X-0.475000X0.250000X0.475000X-0.250000X0.475000X0*%
%ADD13R,1.600000X2.500000*%
%ADD14RoundRect,0.250000X-0.475000X0.250000X-0.475000X-0.250000X0.475000X-0.250000X0.475000X0.250000X0*%
%ADD15RoundRect,0.250000X0.475000X-0.250000X0.475000X0.250000X-0.475000X0.250000X-0.475000X-0.250000X0*%
%ADD16RoundRect,0.100000X0.637500X0.100000X-0.637500X0.100000X-0.637500X-0.100000X0.637500X-0.100000X0*%
%ADD17RoundRect,0.250000X-0.450000X0.262500X-0.450000X-0.262500X0.450000X-0.262500X0.450000X0.262500X0*%
%ADD18RoundRect,0.150000X-0.512500X-0.150000X0.512500X-0.150000X0.512500X0.150000X-0.512500X0.150000X0*%
%ADD19RoundRect,0.250000X0.450000X-0.262500X0.450000X0.262500X-0.450000X0.262500X-0.450000X-0.262500X0*%
G04 APERTURE END LIST*
D10*
%TO.C,C7*%
X120446800Y-60960000D03*
X118546800Y-60960000D03*
%TD*%
D11*
%TO.C,R3*%
X124743200Y-60121800D03*
X126568200Y-60121800D03*
%TD*%
D10*
%TO.C,C3*%
X101534000Y-61722000D03*
X99634000Y-61722000D03*
%TD*%
D12*
%TO.C,C13*%
X94706400Y-60960000D03*
X96606400Y-60960000D03*
%TD*%
D13*
%TO.C,L1*%
X103718000Y-63246000D03*
X108118000Y-63246000D03*
%TD*%
D14*
%TO.C,C4*%
X110947200Y-68661200D03*
X110947200Y-70561200D03*
%TD*%
%TO.C,C1*%
X99303000Y-67668300D03*
X99303000Y-69568300D03*
%TD*%
D10*
%TO.C,C11*%
X106614000Y-70104000D03*
X104714000Y-70104000D03*
%TD*%
D15*
%TO.C,C10*%
X135610600Y-69403000D03*
X135610600Y-67503000D03*
%TD*%
%TO.C,C9*%
X130556000Y-69403000D03*
X130556000Y-67503000D03*
%TD*%
D11*
%TO.C,R5*%
X94743900Y-63601600D03*
X96568900Y-63601600D03*
%TD*%
D16*
%TO.C,U1*%
X122394900Y-71555800D03*
X122394900Y-70905800D03*
X122394900Y-70255800D03*
X122394900Y-69605800D03*
X122394900Y-68955800D03*
X122394900Y-68305800D03*
X122394900Y-67655800D03*
X122394900Y-67005800D03*
X122394900Y-66355800D03*
X122394900Y-65705800D03*
X116669900Y-65705800D03*
X116669900Y-66355800D03*
X116669900Y-67005800D03*
X116669900Y-67655800D03*
X116669900Y-68305800D03*
X116669900Y-68955800D03*
X116669900Y-69605800D03*
X116669900Y-70255800D03*
X116669900Y-70905800D03*
X116669900Y-71555800D03*
%TD*%
D17*
%TO.C,R6*%
X95453200Y-67718300D03*
X95453200Y-69543300D03*
%TD*%
D14*
%TO.C,C6*%
X125476000Y-65257600D03*
X125476000Y-67157600D03*
%TD*%
D15*
%TO.C,C2*%
X113774300Y-70561200D03*
X113774300Y-68661200D03*
%TD*%
D18*
%TO.C,U3*%
X99212400Y-63893900D03*
X99212400Y-64843900D03*
X99212400Y-65793900D03*
X101487400Y-65793900D03*
X101487400Y-64843900D03*
X101487400Y-63893900D03*
%TD*%
D10*
%TO.C,C12*%
X106614000Y-67818000D03*
X104714000Y-67818000D03*
%TD*%
%TO.C,C8*%
X120446800Y-63474600D03*
X118546800Y-63474600D03*
%TD*%
D15*
%TO.C,C5*%
X125476000Y-72095400D03*
X125476000Y-70195400D03*
%TD*%
D17*
%TO.C,R2*%
X135559800Y-71592400D03*
X135559800Y-73417400D03*
%TD*%
D19*
%TO.C,R4*%
X100685600Y-78867000D03*
X100685600Y-77042000D03*
%TD*%
D17*
%TO.C,R1*%
X130530600Y-71592400D03*
X130530600Y-73417400D03*
%TD*%
M02*
