%TF.GenerationSoftware,KiCad,Pcbnew,7.0.1*%
%TF.CreationDate,2023-06-20T17:21:24-05:00*%
%TF.ProjectId,squishbox1,73717569-7368-4626-9f78-312e6b696361,rev?*%
%TF.SameCoordinates,Original*%
%TF.FileFunction,Drillmap*%
%TF.FilePolarity,Positive*%
%FSLAX45Y45*%
G04 Gerber Fmt 4.5, Leading zero omitted, Abs format (unit mm)*
G04 Created by KiCad (PCBNEW 7.0.1) date 2023-06-20 17:21:24*
%MOMM*%
%LPD*%
G01*
G04 APERTURE LIST*
%ADD10C,0.100000*%
%ADD11C,0.200000*%
%ADD12C,0.040000*%
%ADD13C,0.090000*%
G04 APERTURE END LIST*
D10*
X8600000Y-4700000D02*
X13900000Y-4700000D01*
X13900000Y-8100000D01*
X8600000Y-8100000D01*
X8600000Y-4700000D01*
D11*
D12*
X9530400Y-7041200D02*
X9570400Y-7081200D01*
X9570400Y-7041200D02*
X9530400Y-7081200D01*
X9632000Y-7041200D02*
X9672000Y-7081200D01*
X9672000Y-7041200D02*
X9632000Y-7081200D01*
X9759000Y-6559390D02*
X9799000Y-6599390D01*
X9799000Y-6559390D02*
X9759000Y-6599390D01*
X9835200Y-7041200D02*
X9875200Y-7081200D01*
X9875200Y-7041200D02*
X9835200Y-7081200D01*
X9936800Y-7041200D02*
X9976800Y-7081200D01*
X9976800Y-7041200D02*
X9936800Y-7081200D01*
X10140000Y-6634800D02*
X10180000Y-6674800D01*
X10180000Y-6634800D02*
X10140000Y-6674800D01*
X10343200Y-6736400D02*
X10383200Y-6776400D01*
X10383200Y-6736400D02*
X10343200Y-6776400D01*
X10343200Y-6838000D02*
X10383200Y-6878000D01*
X10383200Y-6838000D02*
X10343200Y-6878000D01*
X10343200Y-6939600D02*
X10383200Y-6979600D01*
X10383200Y-6939600D02*
X10343200Y-6979600D01*
X10343200Y-7041200D02*
X10383200Y-7081200D01*
X10383200Y-7041200D02*
X10343200Y-7081200D01*
X10495600Y-6101400D02*
X10535600Y-6141400D01*
X10535600Y-6101400D02*
X10495600Y-6141400D01*
X10495600Y-6203000D02*
X10535600Y-6243000D01*
X10535600Y-6203000D02*
X10495600Y-6243000D01*
X10495600Y-6304600D02*
X10535600Y-6344600D01*
X10535600Y-6304600D02*
X10495600Y-6344600D01*
X10495600Y-6406200D02*
X10535600Y-6446200D01*
X10535600Y-6406200D02*
X10495600Y-6446200D01*
X10495600Y-6507800D02*
X10535600Y-6547800D01*
X10535600Y-6507800D02*
X10495600Y-6547800D01*
X10648000Y-6101400D02*
X10688000Y-6141400D01*
X10688000Y-6101400D02*
X10648000Y-6141400D01*
X10648000Y-6203000D02*
X10688000Y-6243000D01*
X10688000Y-6203000D02*
X10648000Y-6243000D01*
X10648000Y-6304600D02*
X10688000Y-6344600D01*
X10688000Y-6304600D02*
X10648000Y-6344600D01*
X10648000Y-6406200D02*
X10688000Y-6446200D01*
X10688000Y-6406200D02*
X10648000Y-6446200D01*
X10648000Y-6507800D02*
X10688000Y-6547800D01*
X10688000Y-6507800D02*
X10648000Y-6547800D01*
X10749600Y-6736400D02*
X10789600Y-6776400D01*
X10789600Y-6736400D02*
X10749600Y-6776400D01*
X10749600Y-6838000D02*
X10789600Y-6878000D01*
X10789600Y-6838000D02*
X10749600Y-6878000D01*
X10749600Y-6939600D02*
X10789600Y-6979600D01*
X10789600Y-6939600D02*
X10749600Y-6979600D01*
X10749600Y-7041200D02*
X10789600Y-7081200D01*
X10789600Y-7041200D02*
X10749600Y-7081200D01*
X11812390Y-6641180D02*
X11852390Y-6681180D01*
X11852390Y-6641180D02*
X11812390Y-6681180D01*
X11900000Y-5920000D02*
X11940000Y-5960000D01*
X11940000Y-5920000D02*
X11900000Y-5960000D01*
X12084950Y-6865370D02*
X12124950Y-6905370D01*
X12124950Y-6865370D02*
X12084950Y-6905370D01*
X12795470Y-7139240D02*
X12835470Y-7179240D01*
X12835470Y-7139240D02*
X12795470Y-7179240D01*
D13*
X8954900Y-5896800D02*
G75*
G03*
X8954900Y-5896800I-45000J0D01*
G01*
X8954900Y-6396800D02*
G75*
G03*
X8954900Y-6396800I-45000J0D01*
G01*
X9204900Y-6146800D02*
G75*
G03*
X9204900Y-6146800I-45000J0D01*
G01*
D10*
X8844000Y-4903000D02*
X8844000Y-5003000D01*
X8794000Y-4953000D02*
X8894000Y-4953000D01*
X8844000Y-5157000D02*
X8844000Y-5257000D01*
X8794000Y-5207000D02*
X8894000Y-5207000D01*
X8900160Y-6749580D02*
X8900160Y-6849580D01*
X8850160Y-6799580D02*
X8950160Y-6799580D01*
X8900160Y-7003580D02*
X8900160Y-7103580D01*
X8850160Y-7053580D02*
X8950160Y-7053580D01*
X8900160Y-7257580D02*
X8900160Y-7357580D01*
X8850160Y-7307580D02*
X8950160Y-7307580D01*
X8900160Y-7511580D02*
X8900160Y-7611580D01*
X8850160Y-7561580D02*
X8950160Y-7561580D01*
X9098000Y-4903000D02*
X9098000Y-5003000D01*
X9048000Y-4953000D02*
X9148000Y-4953000D01*
X9098000Y-5157000D02*
X9098000Y-5257000D01*
X9048000Y-5207000D02*
X9148000Y-5207000D01*
X9100000Y-5550000D02*
X9100000Y-5650000D01*
X9050000Y-5600000D02*
X9150000Y-5600000D01*
X9352000Y-4903000D02*
X9352000Y-5003000D01*
X9302000Y-4953000D02*
X9402000Y-4953000D01*
X9352000Y-5157000D02*
X9352000Y-5257000D01*
X9302000Y-5207000D02*
X9402000Y-5207000D01*
X9354000Y-5550000D02*
X9354000Y-5650000D01*
X9304000Y-5600000D02*
X9404000Y-5600000D01*
X9464040Y-7740180D02*
X9464040Y-7840180D01*
X9414040Y-7790180D02*
X9514040Y-7790180D01*
X9606000Y-4903000D02*
X9606000Y-5003000D01*
X9556000Y-4953000D02*
X9656000Y-4953000D01*
X9606000Y-5157000D02*
X9606000Y-5257000D01*
X9556000Y-5207000D02*
X9656000Y-5207000D01*
X9608000Y-5550000D02*
X9608000Y-5650000D01*
X9558000Y-5600000D02*
X9658000Y-5600000D01*
X9718040Y-7740180D02*
X9718040Y-7840180D01*
X9668040Y-7790180D02*
X9768040Y-7790180D01*
X9860000Y-4903000D02*
X9860000Y-5003000D01*
X9810000Y-4953000D02*
X9910000Y-4953000D01*
X9860000Y-5157000D02*
X9860000Y-5257000D01*
X9810000Y-5207000D02*
X9910000Y-5207000D01*
X9862000Y-5550000D02*
X9862000Y-5650000D01*
X9812000Y-5600000D02*
X9912000Y-5600000D01*
X10114000Y-4903000D02*
X10114000Y-5003000D01*
X10064000Y-4953000D02*
X10164000Y-4953000D01*
X10114000Y-5157000D02*
X10114000Y-5257000D01*
X10064000Y-5207000D02*
X10164000Y-5207000D01*
X10116000Y-5550000D02*
X10116000Y-5650000D01*
X10066000Y-5600000D02*
X10166000Y-5600000D01*
X10368000Y-4903000D02*
X10368000Y-5003000D01*
X10318000Y-4953000D02*
X10418000Y-4953000D01*
X10368000Y-5157000D02*
X10368000Y-5257000D01*
X10318000Y-5207000D02*
X10418000Y-5207000D01*
X10370000Y-5550000D02*
X10370000Y-5650000D01*
X10320000Y-5600000D02*
X10420000Y-5600000D01*
X10400000Y-7750000D02*
X10400000Y-7850000D01*
X10350000Y-7800000D02*
X10450000Y-7800000D01*
X10622000Y-4903000D02*
X10622000Y-5003000D01*
X10572000Y-4953000D02*
X10672000Y-4953000D01*
X10622000Y-5157000D02*
X10622000Y-5257000D01*
X10572000Y-5207000D02*
X10672000Y-5207000D01*
X10654000Y-7750000D02*
X10654000Y-7850000D01*
X10604000Y-7800000D02*
X10704000Y-7800000D01*
X10876000Y-4903000D02*
X10876000Y-5003000D01*
X10826000Y-4953000D02*
X10926000Y-4953000D01*
X10876000Y-5157000D02*
X10876000Y-5257000D01*
X10826000Y-5207000D02*
X10926000Y-5207000D01*
X11106920Y-7750000D02*
X11106920Y-7850000D01*
X11056920Y-7800000D02*
X11156920Y-7800000D01*
X11130000Y-4903000D02*
X11130000Y-5003000D01*
X11080000Y-4953000D02*
X11180000Y-4953000D01*
X11130000Y-5157000D02*
X11130000Y-5257000D01*
X11080000Y-5207000D02*
X11180000Y-5207000D01*
X11360920Y-7750000D02*
X11360920Y-7850000D01*
X11310920Y-7800000D02*
X11410920Y-7800000D01*
X11384000Y-4903000D02*
X11384000Y-5003000D01*
X11334000Y-4953000D02*
X11434000Y-4953000D01*
X11384000Y-5157000D02*
X11384000Y-5257000D01*
X11334000Y-5207000D02*
X11434000Y-5207000D01*
X11638000Y-4903000D02*
X11638000Y-5003000D01*
X11588000Y-4953000D02*
X11688000Y-4953000D01*
X11638000Y-5157000D02*
X11638000Y-5257000D01*
X11588000Y-5207000D02*
X11688000Y-5207000D01*
X11640000Y-5550000D02*
X11640000Y-5650000D01*
X11590000Y-5600000D02*
X11690000Y-5600000D01*
X11812000Y-7750000D02*
X11812000Y-7850000D01*
X11762000Y-7800000D02*
X11862000Y-7800000D01*
X11892000Y-4903000D02*
X11892000Y-5003000D01*
X11842000Y-4953000D02*
X11942000Y-4953000D01*
X11892000Y-5157000D02*
X11892000Y-5257000D01*
X11842000Y-5207000D02*
X11942000Y-5207000D01*
X11894000Y-5550000D02*
X11894000Y-5650000D01*
X11844000Y-5600000D02*
X11944000Y-5600000D01*
X12066000Y-7750000D02*
X12066000Y-7850000D01*
X12016000Y-7800000D02*
X12116000Y-7800000D01*
X12146000Y-4903000D02*
X12146000Y-5003000D01*
X12096000Y-4953000D02*
X12196000Y-4953000D01*
X12146000Y-5157000D02*
X12146000Y-5257000D01*
X12096000Y-5207000D02*
X12196000Y-5207000D01*
X12148000Y-5550000D02*
X12148000Y-5650000D01*
X12098000Y-5600000D02*
X12198000Y-5600000D01*
X12320000Y-7750000D02*
X12320000Y-7850000D01*
X12270000Y-7800000D02*
X12370000Y-7800000D01*
X12400000Y-4903000D02*
X12400000Y-5003000D01*
X12350000Y-4953000D02*
X12450000Y-4953000D01*
X12400000Y-5157000D02*
X12400000Y-5257000D01*
X12350000Y-5207000D02*
X12450000Y-5207000D01*
X12402000Y-5550000D02*
X12402000Y-5650000D01*
X12352000Y-5600000D02*
X12452000Y-5600000D01*
X12574000Y-7750000D02*
X12574000Y-7850000D01*
X12524000Y-7800000D02*
X12624000Y-7800000D01*
X12654000Y-4903000D02*
X12654000Y-5003000D01*
X12604000Y-4953000D02*
X12704000Y-4953000D01*
X12654000Y-5157000D02*
X12654000Y-5257000D01*
X12604000Y-5207000D02*
X12704000Y-5207000D01*
X12656000Y-5550000D02*
X12656000Y-5650000D01*
X12606000Y-5600000D02*
X12706000Y-5600000D01*
X12908000Y-4903000D02*
X12908000Y-5003000D01*
X12858000Y-4953000D02*
X12958000Y-4953000D01*
X12908000Y-5157000D02*
X12908000Y-5257000D01*
X12858000Y-5207000D02*
X12958000Y-5207000D01*
X12910000Y-5550000D02*
X12910000Y-5650000D01*
X12860000Y-5600000D02*
X12960000Y-5600000D01*
X13050520Y-7747800D02*
X13050520Y-7847800D01*
X13000520Y-7797800D02*
X13100520Y-7797800D01*
X13162000Y-4903000D02*
X13162000Y-5003000D01*
X13112000Y-4953000D02*
X13212000Y-4953000D01*
X13162000Y-5157000D02*
X13162000Y-5257000D01*
X13112000Y-5207000D02*
X13212000Y-5207000D01*
X13304520Y-7747800D02*
X13304520Y-7847800D01*
X13254520Y-7797800D02*
X13354520Y-7797800D01*
X13416000Y-4903000D02*
X13416000Y-5003000D01*
X13366000Y-4953000D02*
X13466000Y-4953000D01*
X13416000Y-5157000D02*
X13416000Y-5257000D01*
X13366000Y-5207000D02*
X13466000Y-5207000D01*
X13558520Y-7747800D02*
X13558520Y-7847800D01*
X13508520Y-7797800D02*
X13608520Y-7797800D01*
X13670000Y-4903000D02*
X13670000Y-5003000D01*
X13620000Y-4953000D02*
X13720000Y-4953000D01*
X13670000Y-5157000D02*
X13670000Y-5257000D01*
X13620000Y-5207000D02*
X13720000Y-5207000D01*
D11*
X8842619Y-8417524D02*
X8842619Y-8217524D01*
X8842619Y-8217524D02*
X8890238Y-8217524D01*
X8890238Y-8217524D02*
X8918810Y-8227048D01*
X8918810Y-8227048D02*
X8937857Y-8246095D01*
X8937857Y-8246095D02*
X8947381Y-8265143D01*
X8947381Y-8265143D02*
X8956905Y-8303238D01*
X8956905Y-8303238D02*
X8956905Y-8331809D01*
X8956905Y-8331809D02*
X8947381Y-8369905D01*
X8947381Y-8369905D02*
X8937857Y-8388952D01*
X8937857Y-8388952D02*
X8918810Y-8408000D01*
X8918810Y-8408000D02*
X8890238Y-8417524D01*
X8890238Y-8417524D02*
X8842619Y-8417524D01*
X9042619Y-8417524D02*
X9042619Y-8284190D01*
X9042619Y-8322286D02*
X9052143Y-8303238D01*
X9052143Y-8303238D02*
X9061667Y-8293714D01*
X9061667Y-8293714D02*
X9080714Y-8284190D01*
X9080714Y-8284190D02*
X9099762Y-8284190D01*
X9166429Y-8417524D02*
X9166429Y-8284190D01*
X9166429Y-8217524D02*
X9156905Y-8227048D01*
X9156905Y-8227048D02*
X9166429Y-8236571D01*
X9166429Y-8236571D02*
X9175952Y-8227048D01*
X9175952Y-8227048D02*
X9166429Y-8217524D01*
X9166429Y-8217524D02*
X9166429Y-8236571D01*
X9290238Y-8417524D02*
X9271190Y-8408000D01*
X9271190Y-8408000D02*
X9261667Y-8388952D01*
X9261667Y-8388952D02*
X9261667Y-8217524D01*
X9395000Y-8417524D02*
X9375952Y-8408000D01*
X9375952Y-8408000D02*
X9366429Y-8388952D01*
X9366429Y-8388952D02*
X9366429Y-8217524D01*
X9623571Y-8417524D02*
X9623571Y-8217524D01*
X9623571Y-8217524D02*
X9690238Y-8360381D01*
X9690238Y-8360381D02*
X9756905Y-8217524D01*
X9756905Y-8217524D02*
X9756905Y-8417524D01*
X9937857Y-8417524D02*
X9937857Y-8312762D01*
X9937857Y-8312762D02*
X9928333Y-8293714D01*
X9928333Y-8293714D02*
X9909286Y-8284190D01*
X9909286Y-8284190D02*
X9871190Y-8284190D01*
X9871190Y-8284190D02*
X9852143Y-8293714D01*
X9937857Y-8408000D02*
X9918810Y-8417524D01*
X9918810Y-8417524D02*
X9871190Y-8417524D01*
X9871190Y-8417524D02*
X9852143Y-8408000D01*
X9852143Y-8408000D02*
X9842619Y-8388952D01*
X9842619Y-8388952D02*
X9842619Y-8369905D01*
X9842619Y-8369905D02*
X9852143Y-8350857D01*
X9852143Y-8350857D02*
X9871190Y-8341333D01*
X9871190Y-8341333D02*
X9918810Y-8341333D01*
X9918810Y-8341333D02*
X9937857Y-8331809D01*
X10033095Y-8284190D02*
X10033095Y-8484190D01*
X10033095Y-8293714D02*
X10052143Y-8284190D01*
X10052143Y-8284190D02*
X10090238Y-8284190D01*
X10090238Y-8284190D02*
X10109286Y-8293714D01*
X10109286Y-8293714D02*
X10118810Y-8303238D01*
X10118810Y-8303238D02*
X10128333Y-8322286D01*
X10128333Y-8322286D02*
X10128333Y-8379428D01*
X10128333Y-8379428D02*
X10118810Y-8398476D01*
X10118810Y-8398476D02*
X10109286Y-8408000D01*
X10109286Y-8408000D02*
X10090238Y-8417524D01*
X10090238Y-8417524D02*
X10052143Y-8417524D01*
X10052143Y-8417524D02*
X10033095Y-8408000D01*
X10214048Y-8398476D02*
X10223571Y-8408000D01*
X10223571Y-8408000D02*
X10214048Y-8417524D01*
X10214048Y-8417524D02*
X10204524Y-8408000D01*
X10204524Y-8408000D02*
X10214048Y-8398476D01*
X10214048Y-8398476D02*
X10214048Y-8417524D01*
X10214048Y-8293714D02*
X10223571Y-8303238D01*
X10223571Y-8303238D02*
X10214048Y-8312762D01*
X10214048Y-8312762D02*
X10204524Y-8303238D01*
X10204524Y-8303238D02*
X10214048Y-8293714D01*
X10214048Y-8293714D02*
X10214048Y-8312762D01*
D12*
X8555000Y-8725000D02*
X8595000Y-8765000D01*
X8595000Y-8725000D02*
X8555000Y-8765000D01*
D11*
X8880714Y-8637524D02*
X8899762Y-8637524D01*
X8899762Y-8637524D02*
X8918810Y-8647048D01*
X8918810Y-8647048D02*
X8928333Y-8656571D01*
X8928333Y-8656571D02*
X8937857Y-8675619D01*
X8937857Y-8675619D02*
X8947381Y-8713714D01*
X8947381Y-8713714D02*
X8947381Y-8761333D01*
X8947381Y-8761333D02*
X8937857Y-8799429D01*
X8937857Y-8799429D02*
X8928333Y-8818476D01*
X8928333Y-8818476D02*
X8918810Y-8828000D01*
X8918810Y-8828000D02*
X8899762Y-8837524D01*
X8899762Y-8837524D02*
X8880714Y-8837524D01*
X8880714Y-8837524D02*
X8861667Y-8828000D01*
X8861667Y-8828000D02*
X8852143Y-8818476D01*
X8852143Y-8818476D02*
X8842619Y-8799429D01*
X8842619Y-8799429D02*
X8833095Y-8761333D01*
X8833095Y-8761333D02*
X8833095Y-8713714D01*
X8833095Y-8713714D02*
X8842619Y-8675619D01*
X8842619Y-8675619D02*
X8852143Y-8656571D01*
X8852143Y-8656571D02*
X8861667Y-8647048D01*
X8861667Y-8647048D02*
X8880714Y-8637524D01*
X9033095Y-8818476D02*
X9042619Y-8828000D01*
X9042619Y-8828000D02*
X9033095Y-8837524D01*
X9033095Y-8837524D02*
X9023571Y-8828000D01*
X9023571Y-8828000D02*
X9033095Y-8818476D01*
X9033095Y-8818476D02*
X9033095Y-8837524D01*
X9214048Y-8704190D02*
X9214048Y-8837524D01*
X9166429Y-8628000D02*
X9118810Y-8770857D01*
X9118810Y-8770857D02*
X9242619Y-8770857D01*
X9356905Y-8637524D02*
X9375952Y-8637524D01*
X9375952Y-8637524D02*
X9395000Y-8647048D01*
X9395000Y-8647048D02*
X9404524Y-8656571D01*
X9404524Y-8656571D02*
X9414048Y-8675619D01*
X9414048Y-8675619D02*
X9423571Y-8713714D01*
X9423571Y-8713714D02*
X9423571Y-8761333D01*
X9423571Y-8761333D02*
X9414048Y-8799429D01*
X9414048Y-8799429D02*
X9404524Y-8818476D01*
X9404524Y-8818476D02*
X9395000Y-8828000D01*
X9395000Y-8828000D02*
X9375952Y-8837524D01*
X9375952Y-8837524D02*
X9356905Y-8837524D01*
X9356905Y-8837524D02*
X9337857Y-8828000D01*
X9337857Y-8828000D02*
X9328333Y-8818476D01*
X9328333Y-8818476D02*
X9318810Y-8799429D01*
X9318810Y-8799429D02*
X9309286Y-8761333D01*
X9309286Y-8761333D02*
X9309286Y-8713714D01*
X9309286Y-8713714D02*
X9318810Y-8675619D01*
X9318810Y-8675619D02*
X9328333Y-8656571D01*
X9328333Y-8656571D02*
X9337857Y-8647048D01*
X9337857Y-8647048D02*
X9356905Y-8637524D01*
X9547381Y-8637524D02*
X9566429Y-8637524D01*
X9566429Y-8637524D02*
X9585476Y-8647048D01*
X9585476Y-8647048D02*
X9595000Y-8656571D01*
X9595000Y-8656571D02*
X9604524Y-8675619D01*
X9604524Y-8675619D02*
X9614048Y-8713714D01*
X9614048Y-8713714D02*
X9614048Y-8761333D01*
X9614048Y-8761333D02*
X9604524Y-8799429D01*
X9604524Y-8799429D02*
X9595000Y-8818476D01*
X9595000Y-8818476D02*
X9585476Y-8828000D01*
X9585476Y-8828000D02*
X9566429Y-8837524D01*
X9566429Y-8837524D02*
X9547381Y-8837524D01*
X9547381Y-8837524D02*
X9528333Y-8828000D01*
X9528333Y-8828000D02*
X9518810Y-8818476D01*
X9518810Y-8818476D02*
X9509286Y-8799429D01*
X9509286Y-8799429D02*
X9499762Y-8761333D01*
X9499762Y-8761333D02*
X9499762Y-8713714D01*
X9499762Y-8713714D02*
X9509286Y-8675619D01*
X9509286Y-8675619D02*
X9518810Y-8656571D01*
X9518810Y-8656571D02*
X9528333Y-8647048D01*
X9528333Y-8647048D02*
X9547381Y-8637524D01*
X9699762Y-8837524D02*
X9699762Y-8704190D01*
X9699762Y-8723238D02*
X9709286Y-8713714D01*
X9709286Y-8713714D02*
X9728333Y-8704190D01*
X9728333Y-8704190D02*
X9756905Y-8704190D01*
X9756905Y-8704190D02*
X9775952Y-8713714D01*
X9775952Y-8713714D02*
X9785476Y-8732762D01*
X9785476Y-8732762D02*
X9785476Y-8837524D01*
X9785476Y-8732762D02*
X9795000Y-8713714D01*
X9795000Y-8713714D02*
X9814048Y-8704190D01*
X9814048Y-8704190D02*
X9842619Y-8704190D01*
X9842619Y-8704190D02*
X9861667Y-8713714D01*
X9861667Y-8713714D02*
X9871191Y-8732762D01*
X9871191Y-8732762D02*
X9871191Y-8837524D01*
X9966429Y-8837524D02*
X9966429Y-8704190D01*
X9966429Y-8723238D02*
X9975952Y-8713714D01*
X9975952Y-8713714D02*
X9995000Y-8704190D01*
X9995000Y-8704190D02*
X10023572Y-8704190D01*
X10023572Y-8704190D02*
X10042619Y-8713714D01*
X10042619Y-8713714D02*
X10052143Y-8732762D01*
X10052143Y-8732762D02*
X10052143Y-8837524D01*
X10052143Y-8732762D02*
X10061667Y-8713714D01*
X10061667Y-8713714D02*
X10080714Y-8704190D01*
X10080714Y-8704190D02*
X10109286Y-8704190D01*
X10109286Y-8704190D02*
X10128333Y-8713714D01*
X10128333Y-8713714D02*
X10137857Y-8732762D01*
X10137857Y-8732762D02*
X10137857Y-8837524D01*
X10528333Y-8628000D02*
X10356905Y-8885143D01*
X10785476Y-8637524D02*
X10804524Y-8637524D01*
X10804524Y-8637524D02*
X10823572Y-8647048D01*
X10823572Y-8647048D02*
X10833095Y-8656571D01*
X10833095Y-8656571D02*
X10842619Y-8675619D01*
X10842619Y-8675619D02*
X10852143Y-8713714D01*
X10852143Y-8713714D02*
X10852143Y-8761333D01*
X10852143Y-8761333D02*
X10842619Y-8799429D01*
X10842619Y-8799429D02*
X10833095Y-8818476D01*
X10833095Y-8818476D02*
X10823572Y-8828000D01*
X10823572Y-8828000D02*
X10804524Y-8837524D01*
X10804524Y-8837524D02*
X10785476Y-8837524D01*
X10785476Y-8837524D02*
X10766429Y-8828000D01*
X10766429Y-8828000D02*
X10756905Y-8818476D01*
X10756905Y-8818476D02*
X10747381Y-8799429D01*
X10747381Y-8799429D02*
X10737857Y-8761333D01*
X10737857Y-8761333D02*
X10737857Y-8713714D01*
X10737857Y-8713714D02*
X10747381Y-8675619D01*
X10747381Y-8675619D02*
X10756905Y-8656571D01*
X10756905Y-8656571D02*
X10766429Y-8647048D01*
X10766429Y-8647048D02*
X10785476Y-8637524D01*
X10937857Y-8818476D02*
X10947381Y-8828000D01*
X10947381Y-8828000D02*
X10937857Y-8837524D01*
X10937857Y-8837524D02*
X10928334Y-8828000D01*
X10928334Y-8828000D02*
X10937857Y-8818476D01*
X10937857Y-8818476D02*
X10937857Y-8837524D01*
X11071191Y-8637524D02*
X11090238Y-8637524D01*
X11090238Y-8637524D02*
X11109286Y-8647048D01*
X11109286Y-8647048D02*
X11118810Y-8656571D01*
X11118810Y-8656571D02*
X11128334Y-8675619D01*
X11128334Y-8675619D02*
X11137857Y-8713714D01*
X11137857Y-8713714D02*
X11137857Y-8761333D01*
X11137857Y-8761333D02*
X11128334Y-8799429D01*
X11128334Y-8799429D02*
X11118810Y-8818476D01*
X11118810Y-8818476D02*
X11109286Y-8828000D01*
X11109286Y-8828000D02*
X11090238Y-8837524D01*
X11090238Y-8837524D02*
X11071191Y-8837524D01*
X11071191Y-8837524D02*
X11052143Y-8828000D01*
X11052143Y-8828000D02*
X11042619Y-8818476D01*
X11042619Y-8818476D02*
X11033095Y-8799429D01*
X11033095Y-8799429D02*
X11023572Y-8761333D01*
X11023572Y-8761333D02*
X11023572Y-8713714D01*
X11023572Y-8713714D02*
X11033095Y-8675619D01*
X11033095Y-8675619D02*
X11042619Y-8656571D01*
X11042619Y-8656571D02*
X11052143Y-8647048D01*
X11052143Y-8647048D02*
X11071191Y-8637524D01*
X11328333Y-8837524D02*
X11214048Y-8837524D01*
X11271191Y-8837524D02*
X11271191Y-8637524D01*
X11271191Y-8637524D02*
X11252143Y-8666095D01*
X11252143Y-8666095D02*
X11233095Y-8685143D01*
X11233095Y-8685143D02*
X11214048Y-8694667D01*
X11509286Y-8637524D02*
X11414048Y-8637524D01*
X11414048Y-8637524D02*
X11404524Y-8732762D01*
X11404524Y-8732762D02*
X11414048Y-8723238D01*
X11414048Y-8723238D02*
X11433095Y-8713714D01*
X11433095Y-8713714D02*
X11480714Y-8713714D01*
X11480714Y-8713714D02*
X11499762Y-8723238D01*
X11499762Y-8723238D02*
X11509286Y-8732762D01*
X11509286Y-8732762D02*
X11518810Y-8751810D01*
X11518810Y-8751810D02*
X11518810Y-8799429D01*
X11518810Y-8799429D02*
X11509286Y-8818476D01*
X11509286Y-8818476D02*
X11499762Y-8828000D01*
X11499762Y-8828000D02*
X11480714Y-8837524D01*
X11480714Y-8837524D02*
X11433095Y-8837524D01*
X11433095Y-8837524D02*
X11414048Y-8828000D01*
X11414048Y-8828000D02*
X11404524Y-8818476D01*
X11585476Y-8637524D02*
X11718810Y-8637524D01*
X11718810Y-8637524D02*
X11633095Y-8837524D01*
X11785476Y-8637524D02*
X11785476Y-8675619D01*
X11861667Y-8637524D02*
X11861667Y-8675619D01*
X12156905Y-8913714D02*
X12147381Y-8904190D01*
X12147381Y-8904190D02*
X12128334Y-8875619D01*
X12128334Y-8875619D02*
X12118810Y-8856571D01*
X12118810Y-8856571D02*
X12109286Y-8828000D01*
X12109286Y-8828000D02*
X12099762Y-8780381D01*
X12099762Y-8780381D02*
X12099762Y-8742286D01*
X12099762Y-8742286D02*
X12109286Y-8694667D01*
X12109286Y-8694667D02*
X12118810Y-8666095D01*
X12118810Y-8666095D02*
X12128334Y-8647048D01*
X12128334Y-8647048D02*
X12147381Y-8618476D01*
X12147381Y-8618476D02*
X12156905Y-8608952D01*
X12223572Y-8656571D02*
X12233095Y-8647048D01*
X12233095Y-8647048D02*
X12252143Y-8637524D01*
X12252143Y-8637524D02*
X12299762Y-8637524D01*
X12299762Y-8637524D02*
X12318810Y-8647048D01*
X12318810Y-8647048D02*
X12328334Y-8656571D01*
X12328334Y-8656571D02*
X12337857Y-8675619D01*
X12337857Y-8675619D02*
X12337857Y-8694667D01*
X12337857Y-8694667D02*
X12328334Y-8723238D01*
X12328334Y-8723238D02*
X12214048Y-8837524D01*
X12214048Y-8837524D02*
X12337857Y-8837524D01*
X12452143Y-8723238D02*
X12433095Y-8713714D01*
X12433095Y-8713714D02*
X12423572Y-8704190D01*
X12423572Y-8704190D02*
X12414048Y-8685143D01*
X12414048Y-8685143D02*
X12414048Y-8675619D01*
X12414048Y-8675619D02*
X12423572Y-8656571D01*
X12423572Y-8656571D02*
X12433095Y-8647048D01*
X12433095Y-8647048D02*
X12452143Y-8637524D01*
X12452143Y-8637524D02*
X12490238Y-8637524D01*
X12490238Y-8637524D02*
X12509286Y-8647048D01*
X12509286Y-8647048D02*
X12518810Y-8656571D01*
X12518810Y-8656571D02*
X12528334Y-8675619D01*
X12528334Y-8675619D02*
X12528334Y-8685143D01*
X12528334Y-8685143D02*
X12518810Y-8704190D01*
X12518810Y-8704190D02*
X12509286Y-8713714D01*
X12509286Y-8713714D02*
X12490238Y-8723238D01*
X12490238Y-8723238D02*
X12452143Y-8723238D01*
X12452143Y-8723238D02*
X12433095Y-8732762D01*
X12433095Y-8732762D02*
X12423572Y-8742286D01*
X12423572Y-8742286D02*
X12414048Y-8761333D01*
X12414048Y-8761333D02*
X12414048Y-8799429D01*
X12414048Y-8799429D02*
X12423572Y-8818476D01*
X12423572Y-8818476D02*
X12433095Y-8828000D01*
X12433095Y-8828000D02*
X12452143Y-8837524D01*
X12452143Y-8837524D02*
X12490238Y-8837524D01*
X12490238Y-8837524D02*
X12509286Y-8828000D01*
X12509286Y-8828000D02*
X12518810Y-8818476D01*
X12518810Y-8818476D02*
X12528334Y-8799429D01*
X12528334Y-8799429D02*
X12528334Y-8761333D01*
X12528334Y-8761333D02*
X12518810Y-8742286D01*
X12518810Y-8742286D02*
X12509286Y-8732762D01*
X12509286Y-8732762D02*
X12490238Y-8723238D01*
X12766429Y-8837524D02*
X12766429Y-8637524D01*
X12852143Y-8837524D02*
X12852143Y-8732762D01*
X12852143Y-8732762D02*
X12842619Y-8713714D01*
X12842619Y-8713714D02*
X12823572Y-8704190D01*
X12823572Y-8704190D02*
X12795000Y-8704190D01*
X12795000Y-8704190D02*
X12775953Y-8713714D01*
X12775953Y-8713714D02*
X12766429Y-8723238D01*
X12975953Y-8837524D02*
X12956905Y-8828000D01*
X12956905Y-8828000D02*
X12947381Y-8818476D01*
X12947381Y-8818476D02*
X12937857Y-8799429D01*
X12937857Y-8799429D02*
X12937857Y-8742286D01*
X12937857Y-8742286D02*
X12947381Y-8723238D01*
X12947381Y-8723238D02*
X12956905Y-8713714D01*
X12956905Y-8713714D02*
X12975953Y-8704190D01*
X12975953Y-8704190D02*
X13004524Y-8704190D01*
X13004524Y-8704190D02*
X13023572Y-8713714D01*
X13023572Y-8713714D02*
X13033096Y-8723238D01*
X13033096Y-8723238D02*
X13042619Y-8742286D01*
X13042619Y-8742286D02*
X13042619Y-8799429D01*
X13042619Y-8799429D02*
X13033096Y-8818476D01*
X13033096Y-8818476D02*
X13023572Y-8828000D01*
X13023572Y-8828000D02*
X13004524Y-8837524D01*
X13004524Y-8837524D02*
X12975953Y-8837524D01*
X13156905Y-8837524D02*
X13137857Y-8828000D01*
X13137857Y-8828000D02*
X13128334Y-8808952D01*
X13128334Y-8808952D02*
X13128334Y-8637524D01*
X13309286Y-8828000D02*
X13290238Y-8837524D01*
X13290238Y-8837524D02*
X13252143Y-8837524D01*
X13252143Y-8837524D02*
X13233096Y-8828000D01*
X13233096Y-8828000D02*
X13223572Y-8808952D01*
X13223572Y-8808952D02*
X13223572Y-8732762D01*
X13223572Y-8732762D02*
X13233096Y-8713714D01*
X13233096Y-8713714D02*
X13252143Y-8704190D01*
X13252143Y-8704190D02*
X13290238Y-8704190D01*
X13290238Y-8704190D02*
X13309286Y-8713714D01*
X13309286Y-8713714D02*
X13318810Y-8732762D01*
X13318810Y-8732762D02*
X13318810Y-8751810D01*
X13318810Y-8751810D02*
X13223572Y-8770857D01*
X13395000Y-8828000D02*
X13414048Y-8837524D01*
X13414048Y-8837524D02*
X13452143Y-8837524D01*
X13452143Y-8837524D02*
X13471191Y-8828000D01*
X13471191Y-8828000D02*
X13480715Y-8808952D01*
X13480715Y-8808952D02*
X13480715Y-8799429D01*
X13480715Y-8799429D02*
X13471191Y-8780381D01*
X13471191Y-8780381D02*
X13452143Y-8770857D01*
X13452143Y-8770857D02*
X13423572Y-8770857D01*
X13423572Y-8770857D02*
X13404524Y-8761333D01*
X13404524Y-8761333D02*
X13395000Y-8742286D01*
X13395000Y-8742286D02*
X13395000Y-8732762D01*
X13395000Y-8732762D02*
X13404524Y-8713714D01*
X13404524Y-8713714D02*
X13423572Y-8704190D01*
X13423572Y-8704190D02*
X13452143Y-8704190D01*
X13452143Y-8704190D02*
X13471191Y-8713714D01*
X13547381Y-8913714D02*
X13556905Y-8904190D01*
X13556905Y-8904190D02*
X13575953Y-8875619D01*
X13575953Y-8875619D02*
X13585477Y-8856571D01*
X13585477Y-8856571D02*
X13595000Y-8828000D01*
X13595000Y-8828000D02*
X13604524Y-8780381D01*
X13604524Y-8780381D02*
X13604524Y-8742286D01*
X13604524Y-8742286D02*
X13595000Y-8694667D01*
X13595000Y-8694667D02*
X13585477Y-8666095D01*
X13585477Y-8666095D02*
X13575953Y-8647048D01*
X13575953Y-8647048D02*
X13556905Y-8618476D01*
X13556905Y-8618476D02*
X13547381Y-8608952D01*
D13*
X8595000Y-9009000D02*
G75*
G03*
X8595000Y-9009000I-45000J0D01*
G01*
D11*
X8880714Y-8901524D02*
X8899762Y-8901524D01*
X8899762Y-8901524D02*
X8918810Y-8911048D01*
X8918810Y-8911048D02*
X8928333Y-8920571D01*
X8928333Y-8920571D02*
X8937857Y-8939619D01*
X8937857Y-8939619D02*
X8947381Y-8977714D01*
X8947381Y-8977714D02*
X8947381Y-9025333D01*
X8947381Y-9025333D02*
X8937857Y-9063429D01*
X8937857Y-9063429D02*
X8928333Y-9082476D01*
X8928333Y-9082476D02*
X8918810Y-9092000D01*
X8918810Y-9092000D02*
X8899762Y-9101524D01*
X8899762Y-9101524D02*
X8880714Y-9101524D01*
X8880714Y-9101524D02*
X8861667Y-9092000D01*
X8861667Y-9092000D02*
X8852143Y-9082476D01*
X8852143Y-9082476D02*
X8842619Y-9063429D01*
X8842619Y-9063429D02*
X8833095Y-9025333D01*
X8833095Y-9025333D02*
X8833095Y-8977714D01*
X8833095Y-8977714D02*
X8842619Y-8939619D01*
X8842619Y-8939619D02*
X8852143Y-8920571D01*
X8852143Y-8920571D02*
X8861667Y-8911048D01*
X8861667Y-8911048D02*
X8880714Y-8901524D01*
X9033095Y-9082476D02*
X9042619Y-9092000D01*
X9042619Y-9092000D02*
X9033095Y-9101524D01*
X9033095Y-9101524D02*
X9023571Y-9092000D01*
X9023571Y-9092000D02*
X9033095Y-9082476D01*
X9033095Y-9082476D02*
X9033095Y-9101524D01*
X9137857Y-9101524D02*
X9175952Y-9101524D01*
X9175952Y-9101524D02*
X9195000Y-9092000D01*
X9195000Y-9092000D02*
X9204524Y-9082476D01*
X9204524Y-9082476D02*
X9223571Y-9053905D01*
X9223571Y-9053905D02*
X9233095Y-9015810D01*
X9233095Y-9015810D02*
X9233095Y-8939619D01*
X9233095Y-8939619D02*
X9223571Y-8920571D01*
X9223571Y-8920571D02*
X9214048Y-8911048D01*
X9214048Y-8911048D02*
X9195000Y-8901524D01*
X9195000Y-8901524D02*
X9156905Y-8901524D01*
X9156905Y-8901524D02*
X9137857Y-8911048D01*
X9137857Y-8911048D02*
X9128333Y-8920571D01*
X9128333Y-8920571D02*
X9118810Y-8939619D01*
X9118810Y-8939619D02*
X9118810Y-8987238D01*
X9118810Y-8987238D02*
X9128333Y-9006286D01*
X9128333Y-9006286D02*
X9137857Y-9015810D01*
X9137857Y-9015810D02*
X9156905Y-9025333D01*
X9156905Y-9025333D02*
X9195000Y-9025333D01*
X9195000Y-9025333D02*
X9214048Y-9015810D01*
X9214048Y-9015810D02*
X9223571Y-9006286D01*
X9223571Y-9006286D02*
X9233095Y-8987238D01*
X9356905Y-8901524D02*
X9375952Y-8901524D01*
X9375952Y-8901524D02*
X9395000Y-8911048D01*
X9395000Y-8911048D02*
X9404524Y-8920571D01*
X9404524Y-8920571D02*
X9414048Y-8939619D01*
X9414048Y-8939619D02*
X9423571Y-8977714D01*
X9423571Y-8977714D02*
X9423571Y-9025333D01*
X9423571Y-9025333D02*
X9414048Y-9063429D01*
X9414048Y-9063429D02*
X9404524Y-9082476D01*
X9404524Y-9082476D02*
X9395000Y-9092000D01*
X9395000Y-9092000D02*
X9375952Y-9101524D01*
X9375952Y-9101524D02*
X9356905Y-9101524D01*
X9356905Y-9101524D02*
X9337857Y-9092000D01*
X9337857Y-9092000D02*
X9328333Y-9082476D01*
X9328333Y-9082476D02*
X9318810Y-9063429D01*
X9318810Y-9063429D02*
X9309286Y-9025333D01*
X9309286Y-9025333D02*
X9309286Y-8977714D01*
X9309286Y-8977714D02*
X9318810Y-8939619D01*
X9318810Y-8939619D02*
X9328333Y-8920571D01*
X9328333Y-8920571D02*
X9337857Y-8911048D01*
X9337857Y-8911048D02*
X9356905Y-8901524D01*
X9547381Y-8901524D02*
X9566429Y-8901524D01*
X9566429Y-8901524D02*
X9585476Y-8911048D01*
X9585476Y-8911048D02*
X9595000Y-8920571D01*
X9595000Y-8920571D02*
X9604524Y-8939619D01*
X9604524Y-8939619D02*
X9614048Y-8977714D01*
X9614048Y-8977714D02*
X9614048Y-9025333D01*
X9614048Y-9025333D02*
X9604524Y-9063429D01*
X9604524Y-9063429D02*
X9595000Y-9082476D01*
X9595000Y-9082476D02*
X9585476Y-9092000D01*
X9585476Y-9092000D02*
X9566429Y-9101524D01*
X9566429Y-9101524D02*
X9547381Y-9101524D01*
X9547381Y-9101524D02*
X9528333Y-9092000D01*
X9528333Y-9092000D02*
X9518810Y-9082476D01*
X9518810Y-9082476D02*
X9509286Y-9063429D01*
X9509286Y-9063429D02*
X9499762Y-9025333D01*
X9499762Y-9025333D02*
X9499762Y-8977714D01*
X9499762Y-8977714D02*
X9509286Y-8939619D01*
X9509286Y-8939619D02*
X9518810Y-8920571D01*
X9518810Y-8920571D02*
X9528333Y-8911048D01*
X9528333Y-8911048D02*
X9547381Y-8901524D01*
X9699762Y-9101524D02*
X9699762Y-8968190D01*
X9699762Y-8987238D02*
X9709286Y-8977714D01*
X9709286Y-8977714D02*
X9728333Y-8968190D01*
X9728333Y-8968190D02*
X9756905Y-8968190D01*
X9756905Y-8968190D02*
X9775952Y-8977714D01*
X9775952Y-8977714D02*
X9785476Y-8996762D01*
X9785476Y-8996762D02*
X9785476Y-9101524D01*
X9785476Y-8996762D02*
X9795000Y-8977714D01*
X9795000Y-8977714D02*
X9814048Y-8968190D01*
X9814048Y-8968190D02*
X9842619Y-8968190D01*
X9842619Y-8968190D02*
X9861667Y-8977714D01*
X9861667Y-8977714D02*
X9871191Y-8996762D01*
X9871191Y-8996762D02*
X9871191Y-9101524D01*
X9966429Y-9101524D02*
X9966429Y-8968190D01*
X9966429Y-8987238D02*
X9975952Y-8977714D01*
X9975952Y-8977714D02*
X9995000Y-8968190D01*
X9995000Y-8968190D02*
X10023572Y-8968190D01*
X10023572Y-8968190D02*
X10042619Y-8977714D01*
X10042619Y-8977714D02*
X10052143Y-8996762D01*
X10052143Y-8996762D02*
X10052143Y-9101524D01*
X10052143Y-8996762D02*
X10061667Y-8977714D01*
X10061667Y-8977714D02*
X10080714Y-8968190D01*
X10080714Y-8968190D02*
X10109286Y-8968190D01*
X10109286Y-8968190D02*
X10128333Y-8977714D01*
X10128333Y-8977714D02*
X10137857Y-8996762D01*
X10137857Y-8996762D02*
X10137857Y-9101524D01*
X10528333Y-8892000D02*
X10356905Y-9149143D01*
X10785476Y-8901524D02*
X10804524Y-8901524D01*
X10804524Y-8901524D02*
X10823572Y-8911048D01*
X10823572Y-8911048D02*
X10833095Y-8920571D01*
X10833095Y-8920571D02*
X10842619Y-8939619D01*
X10842619Y-8939619D02*
X10852143Y-8977714D01*
X10852143Y-8977714D02*
X10852143Y-9025333D01*
X10852143Y-9025333D02*
X10842619Y-9063429D01*
X10842619Y-9063429D02*
X10833095Y-9082476D01*
X10833095Y-9082476D02*
X10823572Y-9092000D01*
X10823572Y-9092000D02*
X10804524Y-9101524D01*
X10804524Y-9101524D02*
X10785476Y-9101524D01*
X10785476Y-9101524D02*
X10766429Y-9092000D01*
X10766429Y-9092000D02*
X10756905Y-9082476D01*
X10756905Y-9082476D02*
X10747381Y-9063429D01*
X10747381Y-9063429D02*
X10737857Y-9025333D01*
X10737857Y-9025333D02*
X10737857Y-8977714D01*
X10737857Y-8977714D02*
X10747381Y-8939619D01*
X10747381Y-8939619D02*
X10756905Y-8920571D01*
X10756905Y-8920571D02*
X10766429Y-8911048D01*
X10766429Y-8911048D02*
X10785476Y-8901524D01*
X10937857Y-9082476D02*
X10947381Y-9092000D01*
X10947381Y-9092000D02*
X10937857Y-9101524D01*
X10937857Y-9101524D02*
X10928334Y-9092000D01*
X10928334Y-9092000D02*
X10937857Y-9082476D01*
X10937857Y-9082476D02*
X10937857Y-9101524D01*
X11071191Y-8901524D02*
X11090238Y-8901524D01*
X11090238Y-8901524D02*
X11109286Y-8911048D01*
X11109286Y-8911048D02*
X11118810Y-8920571D01*
X11118810Y-8920571D02*
X11128334Y-8939619D01*
X11128334Y-8939619D02*
X11137857Y-8977714D01*
X11137857Y-8977714D02*
X11137857Y-9025333D01*
X11137857Y-9025333D02*
X11128334Y-9063429D01*
X11128334Y-9063429D02*
X11118810Y-9082476D01*
X11118810Y-9082476D02*
X11109286Y-9092000D01*
X11109286Y-9092000D02*
X11090238Y-9101524D01*
X11090238Y-9101524D02*
X11071191Y-9101524D01*
X11071191Y-9101524D02*
X11052143Y-9092000D01*
X11052143Y-9092000D02*
X11042619Y-9082476D01*
X11042619Y-9082476D02*
X11033095Y-9063429D01*
X11033095Y-9063429D02*
X11023572Y-9025333D01*
X11023572Y-9025333D02*
X11023572Y-8977714D01*
X11023572Y-8977714D02*
X11033095Y-8939619D01*
X11033095Y-8939619D02*
X11042619Y-8920571D01*
X11042619Y-8920571D02*
X11052143Y-8911048D01*
X11052143Y-8911048D02*
X11071191Y-8901524D01*
X11204524Y-8901524D02*
X11328333Y-8901524D01*
X11328333Y-8901524D02*
X11261667Y-8977714D01*
X11261667Y-8977714D02*
X11290238Y-8977714D01*
X11290238Y-8977714D02*
X11309286Y-8987238D01*
X11309286Y-8987238D02*
X11318810Y-8996762D01*
X11318810Y-8996762D02*
X11328333Y-9015810D01*
X11328333Y-9015810D02*
X11328333Y-9063429D01*
X11328333Y-9063429D02*
X11318810Y-9082476D01*
X11318810Y-9082476D02*
X11309286Y-9092000D01*
X11309286Y-9092000D02*
X11290238Y-9101524D01*
X11290238Y-9101524D02*
X11233095Y-9101524D01*
X11233095Y-9101524D02*
X11214048Y-9092000D01*
X11214048Y-9092000D02*
X11204524Y-9082476D01*
X11509286Y-8901524D02*
X11414048Y-8901524D01*
X11414048Y-8901524D02*
X11404524Y-8996762D01*
X11404524Y-8996762D02*
X11414048Y-8987238D01*
X11414048Y-8987238D02*
X11433095Y-8977714D01*
X11433095Y-8977714D02*
X11480714Y-8977714D01*
X11480714Y-8977714D02*
X11499762Y-8987238D01*
X11499762Y-8987238D02*
X11509286Y-8996762D01*
X11509286Y-8996762D02*
X11518810Y-9015810D01*
X11518810Y-9015810D02*
X11518810Y-9063429D01*
X11518810Y-9063429D02*
X11509286Y-9082476D01*
X11509286Y-9082476D02*
X11499762Y-9092000D01*
X11499762Y-9092000D02*
X11480714Y-9101524D01*
X11480714Y-9101524D02*
X11433095Y-9101524D01*
X11433095Y-9101524D02*
X11414048Y-9092000D01*
X11414048Y-9092000D02*
X11404524Y-9082476D01*
X11690238Y-8968190D02*
X11690238Y-9101524D01*
X11642619Y-8892000D02*
X11595000Y-9034857D01*
X11595000Y-9034857D02*
X11718810Y-9034857D01*
X11785476Y-8901524D02*
X11785476Y-8939619D01*
X11861667Y-8901524D02*
X11861667Y-8939619D01*
X12156905Y-9177714D02*
X12147381Y-9168190D01*
X12147381Y-9168190D02*
X12128334Y-9139619D01*
X12128334Y-9139619D02*
X12118810Y-9120571D01*
X12118810Y-9120571D02*
X12109286Y-9092000D01*
X12109286Y-9092000D02*
X12099762Y-9044381D01*
X12099762Y-9044381D02*
X12099762Y-9006286D01*
X12099762Y-9006286D02*
X12109286Y-8958667D01*
X12109286Y-8958667D02*
X12118810Y-8930095D01*
X12118810Y-8930095D02*
X12128334Y-8911048D01*
X12128334Y-8911048D02*
X12147381Y-8882476D01*
X12147381Y-8882476D02*
X12156905Y-8872952D01*
X12214048Y-8901524D02*
X12337857Y-8901524D01*
X12337857Y-8901524D02*
X12271191Y-8977714D01*
X12271191Y-8977714D02*
X12299762Y-8977714D01*
X12299762Y-8977714D02*
X12318810Y-8987238D01*
X12318810Y-8987238D02*
X12328334Y-8996762D01*
X12328334Y-8996762D02*
X12337857Y-9015810D01*
X12337857Y-9015810D02*
X12337857Y-9063429D01*
X12337857Y-9063429D02*
X12328334Y-9082476D01*
X12328334Y-9082476D02*
X12318810Y-9092000D01*
X12318810Y-9092000D02*
X12299762Y-9101524D01*
X12299762Y-9101524D02*
X12242619Y-9101524D01*
X12242619Y-9101524D02*
X12223572Y-9092000D01*
X12223572Y-9092000D02*
X12214048Y-9082476D01*
X12575953Y-9101524D02*
X12575953Y-8901524D01*
X12661667Y-9101524D02*
X12661667Y-8996762D01*
X12661667Y-8996762D02*
X12652143Y-8977714D01*
X12652143Y-8977714D02*
X12633096Y-8968190D01*
X12633096Y-8968190D02*
X12604524Y-8968190D01*
X12604524Y-8968190D02*
X12585476Y-8977714D01*
X12585476Y-8977714D02*
X12575953Y-8987238D01*
X12785476Y-9101524D02*
X12766429Y-9092000D01*
X12766429Y-9092000D02*
X12756905Y-9082476D01*
X12756905Y-9082476D02*
X12747381Y-9063429D01*
X12747381Y-9063429D02*
X12747381Y-9006286D01*
X12747381Y-9006286D02*
X12756905Y-8987238D01*
X12756905Y-8987238D02*
X12766429Y-8977714D01*
X12766429Y-8977714D02*
X12785476Y-8968190D01*
X12785476Y-8968190D02*
X12814048Y-8968190D01*
X12814048Y-8968190D02*
X12833096Y-8977714D01*
X12833096Y-8977714D02*
X12842619Y-8987238D01*
X12842619Y-8987238D02*
X12852143Y-9006286D01*
X12852143Y-9006286D02*
X12852143Y-9063429D01*
X12852143Y-9063429D02*
X12842619Y-9082476D01*
X12842619Y-9082476D02*
X12833096Y-9092000D01*
X12833096Y-9092000D02*
X12814048Y-9101524D01*
X12814048Y-9101524D02*
X12785476Y-9101524D01*
X12966429Y-9101524D02*
X12947381Y-9092000D01*
X12947381Y-9092000D02*
X12937857Y-9072952D01*
X12937857Y-9072952D02*
X12937857Y-8901524D01*
X13118810Y-9092000D02*
X13099762Y-9101524D01*
X13099762Y-9101524D02*
X13061667Y-9101524D01*
X13061667Y-9101524D02*
X13042619Y-9092000D01*
X13042619Y-9092000D02*
X13033096Y-9072952D01*
X13033096Y-9072952D02*
X13033096Y-8996762D01*
X13033096Y-8996762D02*
X13042619Y-8977714D01*
X13042619Y-8977714D02*
X13061667Y-8968190D01*
X13061667Y-8968190D02*
X13099762Y-8968190D01*
X13099762Y-8968190D02*
X13118810Y-8977714D01*
X13118810Y-8977714D02*
X13128334Y-8996762D01*
X13128334Y-8996762D02*
X13128334Y-9015810D01*
X13128334Y-9015810D02*
X13033096Y-9034857D01*
X13204524Y-9092000D02*
X13223572Y-9101524D01*
X13223572Y-9101524D02*
X13261667Y-9101524D01*
X13261667Y-9101524D02*
X13280715Y-9092000D01*
X13280715Y-9092000D02*
X13290238Y-9072952D01*
X13290238Y-9072952D02*
X13290238Y-9063429D01*
X13290238Y-9063429D02*
X13280715Y-9044381D01*
X13280715Y-9044381D02*
X13261667Y-9034857D01*
X13261667Y-9034857D02*
X13233096Y-9034857D01*
X13233096Y-9034857D02*
X13214048Y-9025333D01*
X13214048Y-9025333D02*
X13204524Y-9006286D01*
X13204524Y-9006286D02*
X13204524Y-8996762D01*
X13204524Y-8996762D02*
X13214048Y-8977714D01*
X13214048Y-8977714D02*
X13233096Y-8968190D01*
X13233096Y-8968190D02*
X13261667Y-8968190D01*
X13261667Y-8968190D02*
X13280715Y-8977714D01*
X13356905Y-9177714D02*
X13366429Y-9168190D01*
X13366429Y-9168190D02*
X13385477Y-9139619D01*
X13385477Y-9139619D02*
X13395000Y-9120571D01*
X13395000Y-9120571D02*
X13404524Y-9092000D01*
X13404524Y-9092000D02*
X13414048Y-9044381D01*
X13414048Y-9044381D02*
X13414048Y-9006286D01*
X13414048Y-9006286D02*
X13404524Y-8958667D01*
X13404524Y-8958667D02*
X13395000Y-8930095D01*
X13395000Y-8930095D02*
X13385477Y-8911048D01*
X13385477Y-8911048D02*
X13366429Y-8882476D01*
X13366429Y-8882476D02*
X13356905Y-8872952D01*
D10*
X8545000Y-9223000D02*
X8545000Y-9323000D01*
X8495000Y-9273000D02*
X8595000Y-9273000D01*
D11*
X8947381Y-9365524D02*
X8833095Y-9365524D01*
X8890238Y-9365524D02*
X8890238Y-9165524D01*
X8890238Y-9165524D02*
X8871190Y-9194095D01*
X8871190Y-9194095D02*
X8852143Y-9213143D01*
X8852143Y-9213143D02*
X8833095Y-9222667D01*
X9033095Y-9346476D02*
X9042619Y-9356000D01*
X9042619Y-9356000D02*
X9033095Y-9365524D01*
X9033095Y-9365524D02*
X9023571Y-9356000D01*
X9023571Y-9356000D02*
X9033095Y-9346476D01*
X9033095Y-9346476D02*
X9033095Y-9365524D01*
X9166429Y-9165524D02*
X9185476Y-9165524D01*
X9185476Y-9165524D02*
X9204524Y-9175048D01*
X9204524Y-9175048D02*
X9214048Y-9184571D01*
X9214048Y-9184571D02*
X9223571Y-9203619D01*
X9223571Y-9203619D02*
X9233095Y-9241714D01*
X9233095Y-9241714D02*
X9233095Y-9289333D01*
X9233095Y-9289333D02*
X9223571Y-9327429D01*
X9223571Y-9327429D02*
X9214048Y-9346476D01*
X9214048Y-9346476D02*
X9204524Y-9356000D01*
X9204524Y-9356000D02*
X9185476Y-9365524D01*
X9185476Y-9365524D02*
X9166429Y-9365524D01*
X9166429Y-9365524D02*
X9147381Y-9356000D01*
X9147381Y-9356000D02*
X9137857Y-9346476D01*
X9137857Y-9346476D02*
X9128333Y-9327429D01*
X9128333Y-9327429D02*
X9118810Y-9289333D01*
X9118810Y-9289333D02*
X9118810Y-9241714D01*
X9118810Y-9241714D02*
X9128333Y-9203619D01*
X9128333Y-9203619D02*
X9137857Y-9184571D01*
X9137857Y-9184571D02*
X9147381Y-9175048D01*
X9147381Y-9175048D02*
X9166429Y-9165524D01*
X9356905Y-9165524D02*
X9375952Y-9165524D01*
X9375952Y-9165524D02*
X9395000Y-9175048D01*
X9395000Y-9175048D02*
X9404524Y-9184571D01*
X9404524Y-9184571D02*
X9414048Y-9203619D01*
X9414048Y-9203619D02*
X9423571Y-9241714D01*
X9423571Y-9241714D02*
X9423571Y-9289333D01*
X9423571Y-9289333D02*
X9414048Y-9327429D01*
X9414048Y-9327429D02*
X9404524Y-9346476D01*
X9404524Y-9346476D02*
X9395000Y-9356000D01*
X9395000Y-9356000D02*
X9375952Y-9365524D01*
X9375952Y-9365524D02*
X9356905Y-9365524D01*
X9356905Y-9365524D02*
X9337857Y-9356000D01*
X9337857Y-9356000D02*
X9328333Y-9346476D01*
X9328333Y-9346476D02*
X9318810Y-9327429D01*
X9318810Y-9327429D02*
X9309286Y-9289333D01*
X9309286Y-9289333D02*
X9309286Y-9241714D01*
X9309286Y-9241714D02*
X9318810Y-9203619D01*
X9318810Y-9203619D02*
X9328333Y-9184571D01*
X9328333Y-9184571D02*
X9337857Y-9175048D01*
X9337857Y-9175048D02*
X9356905Y-9165524D01*
X9547381Y-9165524D02*
X9566429Y-9165524D01*
X9566429Y-9165524D02*
X9585476Y-9175048D01*
X9585476Y-9175048D02*
X9595000Y-9184571D01*
X9595000Y-9184571D02*
X9604524Y-9203619D01*
X9604524Y-9203619D02*
X9614048Y-9241714D01*
X9614048Y-9241714D02*
X9614048Y-9289333D01*
X9614048Y-9289333D02*
X9604524Y-9327429D01*
X9604524Y-9327429D02*
X9595000Y-9346476D01*
X9595000Y-9346476D02*
X9585476Y-9356000D01*
X9585476Y-9356000D02*
X9566429Y-9365524D01*
X9566429Y-9365524D02*
X9547381Y-9365524D01*
X9547381Y-9365524D02*
X9528333Y-9356000D01*
X9528333Y-9356000D02*
X9518810Y-9346476D01*
X9518810Y-9346476D02*
X9509286Y-9327429D01*
X9509286Y-9327429D02*
X9499762Y-9289333D01*
X9499762Y-9289333D02*
X9499762Y-9241714D01*
X9499762Y-9241714D02*
X9509286Y-9203619D01*
X9509286Y-9203619D02*
X9518810Y-9184571D01*
X9518810Y-9184571D02*
X9528333Y-9175048D01*
X9528333Y-9175048D02*
X9547381Y-9165524D01*
X9699762Y-9365524D02*
X9699762Y-9232190D01*
X9699762Y-9251238D02*
X9709286Y-9241714D01*
X9709286Y-9241714D02*
X9728333Y-9232190D01*
X9728333Y-9232190D02*
X9756905Y-9232190D01*
X9756905Y-9232190D02*
X9775952Y-9241714D01*
X9775952Y-9241714D02*
X9785476Y-9260762D01*
X9785476Y-9260762D02*
X9785476Y-9365524D01*
X9785476Y-9260762D02*
X9795000Y-9241714D01*
X9795000Y-9241714D02*
X9814048Y-9232190D01*
X9814048Y-9232190D02*
X9842619Y-9232190D01*
X9842619Y-9232190D02*
X9861667Y-9241714D01*
X9861667Y-9241714D02*
X9871191Y-9260762D01*
X9871191Y-9260762D02*
X9871191Y-9365524D01*
X9966429Y-9365524D02*
X9966429Y-9232190D01*
X9966429Y-9251238D02*
X9975952Y-9241714D01*
X9975952Y-9241714D02*
X9995000Y-9232190D01*
X9995000Y-9232190D02*
X10023572Y-9232190D01*
X10023572Y-9232190D02*
X10042619Y-9241714D01*
X10042619Y-9241714D02*
X10052143Y-9260762D01*
X10052143Y-9260762D02*
X10052143Y-9365524D01*
X10052143Y-9260762D02*
X10061667Y-9241714D01*
X10061667Y-9241714D02*
X10080714Y-9232190D01*
X10080714Y-9232190D02*
X10109286Y-9232190D01*
X10109286Y-9232190D02*
X10128333Y-9241714D01*
X10128333Y-9241714D02*
X10137857Y-9260762D01*
X10137857Y-9260762D02*
X10137857Y-9365524D01*
X10528333Y-9156000D02*
X10356905Y-9413143D01*
X10785476Y-9165524D02*
X10804524Y-9165524D01*
X10804524Y-9165524D02*
X10823572Y-9175048D01*
X10823572Y-9175048D02*
X10833095Y-9184571D01*
X10833095Y-9184571D02*
X10842619Y-9203619D01*
X10842619Y-9203619D02*
X10852143Y-9241714D01*
X10852143Y-9241714D02*
X10852143Y-9289333D01*
X10852143Y-9289333D02*
X10842619Y-9327429D01*
X10842619Y-9327429D02*
X10833095Y-9346476D01*
X10833095Y-9346476D02*
X10823572Y-9356000D01*
X10823572Y-9356000D02*
X10804524Y-9365524D01*
X10804524Y-9365524D02*
X10785476Y-9365524D01*
X10785476Y-9365524D02*
X10766429Y-9356000D01*
X10766429Y-9356000D02*
X10756905Y-9346476D01*
X10756905Y-9346476D02*
X10747381Y-9327429D01*
X10747381Y-9327429D02*
X10737857Y-9289333D01*
X10737857Y-9289333D02*
X10737857Y-9241714D01*
X10737857Y-9241714D02*
X10747381Y-9203619D01*
X10747381Y-9203619D02*
X10756905Y-9184571D01*
X10756905Y-9184571D02*
X10766429Y-9175048D01*
X10766429Y-9175048D02*
X10785476Y-9165524D01*
X10937857Y-9346476D02*
X10947381Y-9356000D01*
X10947381Y-9356000D02*
X10937857Y-9365524D01*
X10937857Y-9365524D02*
X10928334Y-9356000D01*
X10928334Y-9356000D02*
X10937857Y-9346476D01*
X10937857Y-9346476D02*
X10937857Y-9365524D01*
X11071191Y-9165524D02*
X11090238Y-9165524D01*
X11090238Y-9165524D02*
X11109286Y-9175048D01*
X11109286Y-9175048D02*
X11118810Y-9184571D01*
X11118810Y-9184571D02*
X11128334Y-9203619D01*
X11128334Y-9203619D02*
X11137857Y-9241714D01*
X11137857Y-9241714D02*
X11137857Y-9289333D01*
X11137857Y-9289333D02*
X11128334Y-9327429D01*
X11128334Y-9327429D02*
X11118810Y-9346476D01*
X11118810Y-9346476D02*
X11109286Y-9356000D01*
X11109286Y-9356000D02*
X11090238Y-9365524D01*
X11090238Y-9365524D02*
X11071191Y-9365524D01*
X11071191Y-9365524D02*
X11052143Y-9356000D01*
X11052143Y-9356000D02*
X11042619Y-9346476D01*
X11042619Y-9346476D02*
X11033095Y-9327429D01*
X11033095Y-9327429D02*
X11023572Y-9289333D01*
X11023572Y-9289333D02*
X11023572Y-9241714D01*
X11023572Y-9241714D02*
X11033095Y-9203619D01*
X11033095Y-9203619D02*
X11042619Y-9184571D01*
X11042619Y-9184571D02*
X11052143Y-9175048D01*
X11052143Y-9175048D02*
X11071191Y-9165524D01*
X11204524Y-9165524D02*
X11328333Y-9165524D01*
X11328333Y-9165524D02*
X11261667Y-9241714D01*
X11261667Y-9241714D02*
X11290238Y-9241714D01*
X11290238Y-9241714D02*
X11309286Y-9251238D01*
X11309286Y-9251238D02*
X11318810Y-9260762D01*
X11318810Y-9260762D02*
X11328333Y-9279810D01*
X11328333Y-9279810D02*
X11328333Y-9327429D01*
X11328333Y-9327429D02*
X11318810Y-9346476D01*
X11318810Y-9346476D02*
X11309286Y-9356000D01*
X11309286Y-9356000D02*
X11290238Y-9365524D01*
X11290238Y-9365524D02*
X11233095Y-9365524D01*
X11233095Y-9365524D02*
X11214048Y-9356000D01*
X11214048Y-9356000D02*
X11204524Y-9346476D01*
X11423572Y-9365524D02*
X11461667Y-9365524D01*
X11461667Y-9365524D02*
X11480714Y-9356000D01*
X11480714Y-9356000D02*
X11490238Y-9346476D01*
X11490238Y-9346476D02*
X11509286Y-9317905D01*
X11509286Y-9317905D02*
X11518810Y-9279810D01*
X11518810Y-9279810D02*
X11518810Y-9203619D01*
X11518810Y-9203619D02*
X11509286Y-9184571D01*
X11509286Y-9184571D02*
X11499762Y-9175048D01*
X11499762Y-9175048D02*
X11480714Y-9165524D01*
X11480714Y-9165524D02*
X11442619Y-9165524D01*
X11442619Y-9165524D02*
X11423572Y-9175048D01*
X11423572Y-9175048D02*
X11414048Y-9184571D01*
X11414048Y-9184571D02*
X11404524Y-9203619D01*
X11404524Y-9203619D02*
X11404524Y-9251238D01*
X11404524Y-9251238D02*
X11414048Y-9270286D01*
X11414048Y-9270286D02*
X11423572Y-9279810D01*
X11423572Y-9279810D02*
X11442619Y-9289333D01*
X11442619Y-9289333D02*
X11480714Y-9289333D01*
X11480714Y-9289333D02*
X11499762Y-9279810D01*
X11499762Y-9279810D02*
X11509286Y-9270286D01*
X11509286Y-9270286D02*
X11518810Y-9251238D01*
X11690238Y-9232190D02*
X11690238Y-9365524D01*
X11642619Y-9156000D02*
X11595000Y-9298857D01*
X11595000Y-9298857D02*
X11718810Y-9298857D01*
X11785476Y-9165524D02*
X11785476Y-9203619D01*
X11861667Y-9165524D02*
X11861667Y-9203619D01*
X12156905Y-9441714D02*
X12147381Y-9432190D01*
X12147381Y-9432190D02*
X12128334Y-9403619D01*
X12128334Y-9403619D02*
X12118810Y-9384571D01*
X12118810Y-9384571D02*
X12109286Y-9356000D01*
X12109286Y-9356000D02*
X12099762Y-9308381D01*
X12099762Y-9308381D02*
X12099762Y-9270286D01*
X12099762Y-9270286D02*
X12109286Y-9222667D01*
X12109286Y-9222667D02*
X12118810Y-9194095D01*
X12118810Y-9194095D02*
X12128334Y-9175048D01*
X12128334Y-9175048D02*
X12147381Y-9146476D01*
X12147381Y-9146476D02*
X12156905Y-9136952D01*
X12318810Y-9165524D02*
X12280714Y-9165524D01*
X12280714Y-9165524D02*
X12261667Y-9175048D01*
X12261667Y-9175048D02*
X12252143Y-9184571D01*
X12252143Y-9184571D02*
X12233095Y-9213143D01*
X12233095Y-9213143D02*
X12223572Y-9251238D01*
X12223572Y-9251238D02*
X12223572Y-9327429D01*
X12223572Y-9327429D02*
X12233095Y-9346476D01*
X12233095Y-9346476D02*
X12242619Y-9356000D01*
X12242619Y-9356000D02*
X12261667Y-9365524D01*
X12261667Y-9365524D02*
X12299762Y-9365524D01*
X12299762Y-9365524D02*
X12318810Y-9356000D01*
X12318810Y-9356000D02*
X12328334Y-9346476D01*
X12328334Y-9346476D02*
X12337857Y-9327429D01*
X12337857Y-9327429D02*
X12337857Y-9279810D01*
X12337857Y-9279810D02*
X12328334Y-9260762D01*
X12328334Y-9260762D02*
X12318810Y-9251238D01*
X12318810Y-9251238D02*
X12299762Y-9241714D01*
X12299762Y-9241714D02*
X12261667Y-9241714D01*
X12261667Y-9241714D02*
X12242619Y-9251238D01*
X12242619Y-9251238D02*
X12233095Y-9260762D01*
X12233095Y-9260762D02*
X12223572Y-9279810D01*
X12433095Y-9365524D02*
X12471191Y-9365524D01*
X12471191Y-9365524D02*
X12490238Y-9356000D01*
X12490238Y-9356000D02*
X12499762Y-9346476D01*
X12499762Y-9346476D02*
X12518810Y-9317905D01*
X12518810Y-9317905D02*
X12528334Y-9279810D01*
X12528334Y-9279810D02*
X12528334Y-9203619D01*
X12528334Y-9203619D02*
X12518810Y-9184571D01*
X12518810Y-9184571D02*
X12509286Y-9175048D01*
X12509286Y-9175048D02*
X12490238Y-9165524D01*
X12490238Y-9165524D02*
X12452143Y-9165524D01*
X12452143Y-9165524D02*
X12433095Y-9175048D01*
X12433095Y-9175048D02*
X12423572Y-9184571D01*
X12423572Y-9184571D02*
X12414048Y-9203619D01*
X12414048Y-9203619D02*
X12414048Y-9251238D01*
X12414048Y-9251238D02*
X12423572Y-9270286D01*
X12423572Y-9270286D02*
X12433095Y-9279810D01*
X12433095Y-9279810D02*
X12452143Y-9289333D01*
X12452143Y-9289333D02*
X12490238Y-9289333D01*
X12490238Y-9289333D02*
X12509286Y-9279810D01*
X12509286Y-9279810D02*
X12518810Y-9270286D01*
X12518810Y-9270286D02*
X12528334Y-9251238D01*
X12766429Y-9365524D02*
X12766429Y-9165524D01*
X12852143Y-9365524D02*
X12852143Y-9260762D01*
X12852143Y-9260762D02*
X12842619Y-9241714D01*
X12842619Y-9241714D02*
X12823572Y-9232190D01*
X12823572Y-9232190D02*
X12795000Y-9232190D01*
X12795000Y-9232190D02*
X12775953Y-9241714D01*
X12775953Y-9241714D02*
X12766429Y-9251238D01*
X12975953Y-9365524D02*
X12956905Y-9356000D01*
X12956905Y-9356000D02*
X12947381Y-9346476D01*
X12947381Y-9346476D02*
X12937857Y-9327429D01*
X12937857Y-9327429D02*
X12937857Y-9270286D01*
X12937857Y-9270286D02*
X12947381Y-9251238D01*
X12947381Y-9251238D02*
X12956905Y-9241714D01*
X12956905Y-9241714D02*
X12975953Y-9232190D01*
X12975953Y-9232190D02*
X13004524Y-9232190D01*
X13004524Y-9232190D02*
X13023572Y-9241714D01*
X13023572Y-9241714D02*
X13033096Y-9251238D01*
X13033096Y-9251238D02*
X13042619Y-9270286D01*
X13042619Y-9270286D02*
X13042619Y-9327429D01*
X13042619Y-9327429D02*
X13033096Y-9346476D01*
X13033096Y-9346476D02*
X13023572Y-9356000D01*
X13023572Y-9356000D02*
X13004524Y-9365524D01*
X13004524Y-9365524D02*
X12975953Y-9365524D01*
X13156905Y-9365524D02*
X13137857Y-9356000D01*
X13137857Y-9356000D02*
X13128334Y-9336952D01*
X13128334Y-9336952D02*
X13128334Y-9165524D01*
X13309286Y-9356000D02*
X13290238Y-9365524D01*
X13290238Y-9365524D02*
X13252143Y-9365524D01*
X13252143Y-9365524D02*
X13233096Y-9356000D01*
X13233096Y-9356000D02*
X13223572Y-9336952D01*
X13223572Y-9336952D02*
X13223572Y-9260762D01*
X13223572Y-9260762D02*
X13233096Y-9241714D01*
X13233096Y-9241714D02*
X13252143Y-9232190D01*
X13252143Y-9232190D02*
X13290238Y-9232190D01*
X13290238Y-9232190D02*
X13309286Y-9241714D01*
X13309286Y-9241714D02*
X13318810Y-9260762D01*
X13318810Y-9260762D02*
X13318810Y-9279810D01*
X13318810Y-9279810D02*
X13223572Y-9298857D01*
X13395000Y-9356000D02*
X13414048Y-9365524D01*
X13414048Y-9365524D02*
X13452143Y-9365524D01*
X13452143Y-9365524D02*
X13471191Y-9356000D01*
X13471191Y-9356000D02*
X13480715Y-9336952D01*
X13480715Y-9336952D02*
X13480715Y-9327429D01*
X13480715Y-9327429D02*
X13471191Y-9308381D01*
X13471191Y-9308381D02*
X13452143Y-9298857D01*
X13452143Y-9298857D02*
X13423572Y-9298857D01*
X13423572Y-9298857D02*
X13404524Y-9289333D01*
X13404524Y-9289333D02*
X13395000Y-9270286D01*
X13395000Y-9270286D02*
X13395000Y-9260762D01*
X13395000Y-9260762D02*
X13404524Y-9241714D01*
X13404524Y-9241714D02*
X13423572Y-9232190D01*
X13423572Y-9232190D02*
X13452143Y-9232190D01*
X13452143Y-9232190D02*
X13471191Y-9241714D01*
X13547381Y-9441714D02*
X13556905Y-9432190D01*
X13556905Y-9432190D02*
X13575953Y-9403619D01*
X13575953Y-9403619D02*
X13585477Y-9384571D01*
X13585477Y-9384571D02*
X13595000Y-9356000D01*
X13595000Y-9356000D02*
X13604524Y-9308381D01*
X13604524Y-9308381D02*
X13604524Y-9270286D01*
X13604524Y-9270286D02*
X13595000Y-9222667D01*
X13595000Y-9222667D02*
X13585477Y-9194095D01*
X13585477Y-9194095D02*
X13575953Y-9175048D01*
X13575953Y-9175048D02*
X13556905Y-9146476D01*
X13556905Y-9146476D02*
X13547381Y-9136952D01*
M02*
